<svg width="141" height="141" viewBox="0 0 141 141" fill="none" xmlns="http://www.w3.org/2000/svg">
<path d="M125.892 56.7561C127.825 56.7561 129.391 55.1895 129.391 53.2571C129.391 51.3246 127.825 49.7581 125.892 49.7581C123.96 49.7581 122.393 51.3246 122.393 53.2571C122.393 55.1895 123.96 56.7561 125.892 56.7561Z" fill="#FBD725"/>
<path d="M125.892 56.2561C127.548 56.2561 128.891 54.9134 128.891 53.2571C128.891 51.6008 127.548 50.2581 125.892 50.2581C124.236 50.2581 122.893 51.6008 122.893 53.2571C122.893 54.9134 124.236 56.2561 125.892 56.2561Z" stroke="#FBD725"/>
<path d="M83.5511 127.012C114.763 119.807 134.223 88.6634 127.017 57.4519C119.812 26.2403 88.6683 6.7798 57.4568 13.9856C26.2453 21.1913 6.78477 52.3347 13.9905 83.5462C21.1963 114.758 52.3396 134.218 83.5511 127.012Z" stroke="#1CCB65" stroke-dasharray="79 483"/>
<path opacity="0.45" d="M70.5 121C97.8381 121 120 98.6142 120 71C120 43.3858 97.8381 21 70.5 21C43.1619 21 21 43.3858 21 71C21 98.6142 43.1619 121 70.5 121Z" fill="#092F22"/>
<path d="M84.558 73.239H84.538V72.28C84.5383 70.3579 84.1253 68.4583 83.327 66.71C82.1608 69.0062 80.3816 70.9347 78.1866 72.2818C75.9915 73.6288 73.4664 74.3419 70.891 74.3419C68.3156 74.3419 65.7905 73.6288 63.5954 72.2818C61.4004 70.9347 59.6212 69.0062 58.455 66.71C57.6565 68.4583 57.2435 70.3579 57.244 72.28V73.239H57.221C56.1015 73.239 55.0279 73.6837 54.2363 74.4753C53.4447 75.2668 53 76.3405 53 77.46C53 78.5794 53.4447 79.6531 54.2363 80.4447C55.0279 81.2362 56.1015 81.681 57.221 81.681H57.491C58.0916 84.7945 59.7576 87.6017 62.2029 89.6204C64.6482 91.6391 67.7201 92.7433 70.891 92.7433C74.0619 92.7433 77.1338 91.6391 79.5791 89.6204C82.0244 87.6017 83.6904 84.7945 84.291 81.681H84.559C85.6785 81.681 86.7521 81.2362 87.5437 80.4447C88.3353 79.6531 88.78 78.5794 88.78 77.46C88.78 76.3405 88.3353 75.2668 87.5437 74.4753C86.7521 73.6837 85.6785 73.239 84.559 73.239H84.558ZM66.677 78.532H63.206V75.9689H66.682L66.677 78.532ZM72.494 87.0679C72.3968 86.7232 72.1899 86.4196 71.9046 86.203C71.6193 85.9865 71.2712 85.8689 70.913 85.868H68.056V83.3029H70.914C71.8308 83.3052 72.7219 83.6061 73.4525 84.16C74.1831 84.714 74.7133 85.4908 74.963 86.373L72.494 87.0679ZM78.58 78.532H75.106V75.9689H78.582L78.58 78.532Z" fill="#1CCB65"/>
<path d="M59.502 60.389C59.502 62.6415 60.1699 64.8435 61.4213 66.7164C62.6728 68.5893 64.4515 70.0491 66.5326 70.9111C68.6136 71.7731 70.9036 71.9986 73.1128 71.5592C75.3221 71.1197 77.3514 70.035 78.9442 68.4422C80.537 66.8495 81.6217 64.8201 82.0611 62.6109C82.5006 60.4016 82.275 58.1117 81.413 56.0306C80.551 53.9496 79.0912 52.1708 77.2183 50.9194C75.3454 49.668 73.1435 49 70.8909 49C67.8713 49.0029 64.9761 50.2038 62.8409 52.339C60.7057 54.4742 59.5049 57.3693 59.502 60.389ZM63.53 62.608H64.9189V59.1C64.9189 57.5164 65.548 55.9976 66.6678 54.8779C67.7876 53.7581 69.3063 53.129 70.89 53.129C72.4736 53.129 73.9923 53.7581 75.1121 54.8779C76.2319 55.9976 76.8609 57.5164 76.8609 59.1V62.608H78.25V65.171H63.53V62.608Z" fill="#1CCB65"/>
<path d="M70.8909 55.6919C69.9874 55.693 69.1211 56.0524 68.4823 56.6912C67.8434 57.3301 67.484 58.1964 67.4829 59.0999V62.6079H69.6099V59.1949H72.1729V62.6079H74.2999V59.0999C74.2989 58.1962 73.9393 57.3298 73.3002 56.6909C72.6611 56.052 71.7946 55.6927 70.8909 55.6919Z" fill="#1CCB65"/>
</svg>
