<svg width="141" height="141" viewBox="0 0 141 141" fill="none" xmlns="http://www.w3.org/2000/svg">
<path d="M125.892 56.7561C127.825 56.7561 129.391 55.1895 129.391 53.2571C129.391 51.3246 127.825 49.7581 125.892 49.7581C123.96 49.7581 122.393 51.3246 122.393 53.2571C122.393 55.1895 123.96 56.7561 125.892 56.7561Z" fill="#FBD725"/>
<path d="M125.892 56.2561C127.548 56.2561 128.891 54.9134 128.891 53.2571C128.891 51.6008 127.548 50.2581 125.892 50.2581C124.236 50.2581 122.893 51.6008 122.893 53.2571C122.893 54.9134 124.236 56.2561 125.892 56.2561Z" stroke="#FBD725"/>
<path d="M83.5472 127.012C114.759 119.807 134.219 88.6634 127.014 57.4519C119.808 26.2403 88.6644 6.7798 57.4529 13.9856C26.2414 21.1913 6.78087 52.3347 13.9866 83.5462C21.1924 114.758 52.3357 134.218 83.5472 127.012Z" stroke="#1CCB65" stroke-dasharray="79 483"/>
<path opacity="0.45" d="M70.5 121C97.8381 121 120 98.6142 120 71C120 43.3858 97.8381 21 70.5 21C43.1619 21 21 43.3858 21 71C21 98.6142 43.1619 121 70.5 121Z" fill="#092F22"/>
<path d="M88.3841 66.2589C86.4755 67.2384 84.3053 67.587 82.186 67.2546C80.0666 66.9222 78.1074 65.926 76.5902 64.4093C75.0731 62.8926 74.0762 60.9336 73.7432 58.8143C73.4103 56.6951 73.7582 54.5248 74.7371 52.6159C70.4084 51.3244 65.7725 51.5136 61.5635 53.1536C57.3544 54.7936 53.8125 57.7907 51.4987 61.6704C49.1848 65.5501 48.2311 70.0907 48.7885 74.5735C49.3459 79.0562 51.3826 83.225 54.5761 86.4199C54.7212 86.5662 54.8026 86.7639 54.8026 86.9699C54.8026 87.1759 54.7212 87.3736 54.5761 87.5199L49.7311 92.3689H68.9311C74.3159 92.3636 79.4787 90.2225 83.2866 86.4152C87.0946 82.608 89.2368 77.4457 89.2431 72.0609C89.2418 70.0953 88.9523 68.1406 88.3841 66.2589ZM59.5621 75.1859C58.9443 75.1859 58.3403 75.0027 57.8265 74.6594C57.3128 74.3161 56.9124 73.8282 56.6759 73.2574C56.4395 72.6866 56.3776 72.0584 56.4982 71.4524C56.6187 70.8464 56.9162 70.2898 57.3531 69.8529C57.79 69.416 58.3467 69.1185 58.9527 68.9979C59.5587 68.8774 60.1868 68.9393 60.7576 69.1757C61.3285 69.4122 61.8164 69.8126 62.1597 70.3263C62.5029 70.84 62.6861 71.444 62.6861 72.0619C62.6861 72.8904 62.357 73.685 61.7711 74.2709C61.1853 74.8568 60.3907 75.1859 59.5621 75.1859ZM68.9351 75.1859C68.3173 75.1859 67.7133 75.0027 67.1995 74.6594C66.6858 74.3161 66.2854 73.8282 66.0489 73.2574C65.8125 72.6866 65.7506 72.0584 65.8712 71.4524C65.9917 70.8464 66.2892 70.2898 66.7261 69.8529C67.163 69.416 67.7197 69.1185 68.3257 68.9979C68.9317 68.8774 69.5598 68.9393 70.1306 69.1757C70.7015 69.4122 71.1894 69.8126 71.5327 70.3263C71.8759 70.84 72.0591 71.444 72.0591 72.0619C72.0591 72.8904 71.73 73.685 71.1441 74.2709C70.5583 74.8568 69.7637 75.1859 68.9351 75.1859ZM78.3081 75.1859C77.6903 75.1859 77.0863 75.0027 76.5725 74.6594C76.0588 74.3161 75.6584 73.8282 75.4219 73.2574C75.1855 72.6866 75.1236 72.0584 75.2442 71.4524C75.3647 70.8464 75.6622 70.2898 76.0991 69.8529C76.536 69.416 77.0927 69.1185 77.6987 68.9979C78.3047 68.8774 78.9328 68.9393 79.5036 69.1757C80.0745 69.4122 80.5624 69.8126 80.9057 70.3263C81.2489 70.84 81.4321 71.444 81.4321 72.0619C81.4321 72.8904 81.103 73.685 80.5171 74.2709C79.9313 74.8568 79.1367 75.1859 78.3081 75.1859Z" fill="#1CCB65"/>
<path d="M83.7751 65.8129C85.4744 65.8129 87.1356 65.309 88.5486 64.3649C89.9615 63.4208 91.0628 62.0789 91.7131 60.5089C92.3634 58.9389 92.5335 57.2114 92.202 55.5447C91.8705 53.878 91.0522 52.3471 89.8506 51.1454C88.649 49.9438 87.118 49.1255 85.4513 48.794C83.7846 48.4625 82.0571 48.6326 80.4871 49.2829C78.9171 49.9332 77.5752 51.0345 76.6311 52.4475C75.687 53.8604 75.1831 55.5216 75.1831 57.2209C75.1831 59.4997 76.0883 61.6851 77.6996 63.2964C79.311 64.9077 81.4964 65.8129 83.7751 65.8129ZM83.7751 56.4399H85.3371V54.8779C85.3371 54.7753 85.3573 54.6738 85.3966 54.579C85.4358 54.4843 85.4933 54.3982 85.5659 54.3257C85.6384 54.2531 85.7245 54.1956 85.8192 54.1564C85.914 54.1171 86.0155 54.0969 86.1181 54.0969C86.2207 54.0969 86.3222 54.1171 86.417 54.1564C86.5117 54.1956 86.5978 54.2531 86.6704 54.3257C86.7429 54.3982 86.8004 54.4843 86.8397 54.579C86.8789 54.6738 86.8991 54.7753 86.8991 54.8779V56.4399H88.4611C88.6682 56.4399 88.8669 56.5222 89.0134 56.6687C89.1598 56.8151 89.2421 57.0138 89.2421 57.2209C89.2421 57.428 89.1598 57.6267 89.0134 57.7732C88.8669 57.9196 88.6682 58.0019 88.4611 58.0019H86.8991V59.5639C86.8991 59.6665 86.8789 59.768 86.8397 59.8628C86.8004 59.9575 86.7429 60.0436 86.6704 60.1162C86.5978 60.1887 86.5117 60.2462 86.417 60.2855C86.3222 60.3247 86.2207 60.3449 86.1181 60.3449C86.0155 60.3449 85.914 60.3247 85.8192 60.2855C85.7245 60.2462 85.6384 60.1887 85.5659 60.1162C85.4933 60.0436 85.4358 59.9575 85.3966 59.8628C85.3573 59.768 85.3371 59.6665 85.3371 59.5639V58.0019H83.7751C83.568 58.0019 83.3693 57.9196 83.2229 57.7732C83.0764 57.6267 82.9941 57.428 82.9941 57.2209C82.9941 57.0138 83.0764 56.8151 83.2229 56.6687C83.3693 56.5222 83.568 56.4399 83.7751 56.4399ZM78.6401 54.5499L80.2021 53.4559C80.3192 53.3739 80.4565 53.3257 80.5991 53.3163C80.7417 53.307 80.8841 53.3369 81.0108 53.4029C81.1376 53.4689 81.2438 53.5685 81.3179 53.6906C81.392 53.8128 81.4312 53.953 81.4311 54.0959V60.3449C81.4311 60.4475 81.4109 60.549 81.3717 60.6438C81.3324 60.7385 81.2749 60.8246 81.2024 60.8972C81.1298 60.9697 81.0437 61.0272 80.949 61.0665C80.8542 61.1057 80.7527 61.1259 80.6501 61.1259C80.5475 61.1259 80.446 61.1057 80.3512 61.0665C80.2565 61.0272 80.1704 60.9697 80.0979 60.8972C80.0253 60.8246 79.9678 60.7385 79.9286 60.6438C79.8893 60.549 79.8691 60.4475 79.8691 60.3449V55.5969L79.5361 55.8309C79.4521 55.89 79.3572 55.932 79.2569 55.9544C79.1567 55.9768 79.053 55.9793 78.9518 55.9617C78.8505 55.944 78.7538 55.9066 78.667 55.8516C78.5803 55.7965 78.5052 55.725 78.4461 55.6409C78.387 55.5569 78.3451 55.462 78.3226 55.3617C78.3002 55.2615 78.2977 55.1578 78.3154 55.0566C78.333 54.9553 78.3704 54.8586 78.4254 54.7718C78.4805 54.6851 78.5521 54.61 78.6361 54.5509L78.6401 54.5499Z" fill="#1CCB65"/>
</svg>
