<svg xmlns="http://www.w3.org/2000/svg" width="85.217" height="86.659" viewBox="0 0 85.217 86.659">
  <g id="Group_1" data-name="Group 1" transform="translate(-67.125 -510.116)">
    <path id="Path_177" data-name="Path 177" d="M106.138,556.6a2.4,2.4,0,0,1-.422.1c-.238.042-.494.078-.772.109a7.063,7.063,0,0,1-.756.045H98.3a7.3,7.3,0,0,1-.753-.045c-.28-.03-.535-.067-.762-.109a2.949,2.949,0,0,1-.451-.105l-.657-.241v3.166l1.133-.1v-.673a.462.462,0,0,1,.158-.366.611.611,0,0,1,.409-.161h2.818v9.191a.584.584,0,0,1-.2.416.613.613,0,0,1-.444.169h-.706v1.04h4.808V568h-.708a.612.612,0,0,1-.443-.169.577.577,0,0,1-.2-.414V558.22h2.816a.61.61,0,0,1,.406.168.442.442,0,0,1,.161.36v.673l1.135.1v-3.19Z" transform="translate(17.049 27.649)" fill="#1cd465"/>
    <path id="Path_178" data-name="Path 178" d="M115.478,559.379a5.706,5.706,0,0,0-2.218-2.236,7.078,7.078,0,0,0-6.51,0,5.727,5.727,0,0,0-2.218,2.236,7.316,7.316,0,0,0,0,6.618,5.7,5.7,0,0,0,2.218,2.236,7.066,7.066,0,0,0,6.51,0A5.689,5.689,0,0,0,115.48,566a7.3,7.3,0,0,0,0-6.618Zm-7.625,7.673a4.127,4.127,0,0,1-1.45-1.718,6.847,6.847,0,0,1,0-5.293,4.1,4.1,0,0,1,1.45-1.713,4.113,4.113,0,0,1,4.307,0,4.12,4.12,0,0,1,1.446,1.713,6.832,6.832,0,0,1,0,5.295,3.926,3.926,0,0,1-5.754,1.717Z" transform="translate(21.875 27.659)" fill="#1cd465"/>
    <path id="Path_179" data-name="Path 179" d="M124.475,567.951a1.959,1.959,0,0,1-.735-.131,2.467,2.467,0,0,1-.643-.382,6.746,6.746,0,0,1-.665-.623q-.252-.254-.6-.689c-.241-.3-.483-.6-.721-.917s-.513-.682-.839-1.132q-.24-.3-.548-.633a3.113,3.113,0,0,0,.7-.359,3.783,3.783,0,0,0,1.219-1.368,3.69,3.69,0,0,0,.451-1.758,3.956,3.956,0,0,0-.27-1.49,3.3,3.3,0,0,0-.79-1.154,3.393,3.393,0,0,0-1.256-.734,4.873,4.873,0,0,0-1.593-.248h-5.225v1.087h.708a.6.6,0,0,1,.443.177.593.593,0,0,1,.2.433v9.311a.645.645,0,0,1-.644.609h-.708v1.087h4.792v-1.087h-.692a.627.627,0,0,1-.456-.181.537.537,0,0,1-.189-.42v-4.071h.1a.83.83,0,0,1,.556.233,5.652,5.652,0,0,1,.662.687c.024.035.113.161.272.374l2.065,2.818a7.154,7.154,0,0,0,.734.714,4.05,4.05,0,0,0,1.125.66,4.234,4.234,0,0,0,1.584.272h1.448v-1.087Zm-8.065-5.762v-4.416c.256,0,.489,0,.7-.008.326-.01.655,0,.977.026a1.631,1.631,0,0,1,1.227.567,2.332,2.332,0,0,1,.5,1.56,2.4,2.4,0,0,1-.014.465,2.731,2.731,0,0,1-.07.382,1.85,1.85,0,0,1-.564.908,1.991,1.991,0,0,1-.825.4,5.086,5.086,0,0,1-.919.125q-.369.017-.892,0Z" transform="translate(27.387 27.649)" fill="#1cd465"/>
    <g id="Group_61" data-name="Group 61" transform="translate(81.323 510.116)">
      <path id="Path_180" data-name="Path 180" d="M100.042,532.431a7.4,7.4,0,0,0,1.6-3.5,7.418,7.418,0,0,1-.089,3.406,43.686,43.686,0,0,0,5.364-.726.261.261,0,0,0-.075-.112c-9.182-7.485-16.045-5.835-16.045-5.835a7.9,7.9,0,0,0,.013,5.888A33,33,0,0,0,100.042,532.431Z" transform="translate(-67.53 -500.905)" fill="#1cd465"/>
      <path id="Path_181" data-name="Path 181" d="M106.7,529.352a43.686,43.686,0,0,1-5.364.726c-1.092,3.7-5.571,3.647-5.571,3.647a14.368,14.368,0,0,0,4.064-3.556,33,33,0,0,1-9.236-.876,10.077,10.077,0,0,0,1.176,2.226,9.857,9.857,0,0,0,10.673,3.834,6.959,6.959,0,0,0,3.975-4.055A4.277,4.277,0,0,0,106.7,529.352Z" transform="translate(-67.315 -498.643)" fill="#1ccb65"/>
      <path id="Path_182" data-name="Path 182" d="M97.292,528.924a.77.77,0,0,1,.019.641,1.055,1.055,0,0,1-.735.59,2.382,2.382,0,0,1-.98,0,9.192,9.192,0,0,1-3.281-1.4,2.228,2.228,0,0,1-.662-.563.8.8,0,0,1-.1-.817c.2-.361.7-.393,1.12-.352C93.472,527.1,96.739,527.761,97.292,528.924Z" transform="translate(-66.782 -500.01)" fill="#1cc165"/>
      <path id="Path_183" data-name="Path 183" d="M108.936,533.432" transform="translate(-56.34 -496.167)" fill="none" stroke="#f4ac11" stroke-miterlimit="10" stroke-width="1"/>
      <path id="Path_184" data-name="Path 184" d="M132.566,525.736l0-.038c-.118-1-.235-1.6-.235-1.637l-.184-.89s-17.312-9.578-17.338-9.591a21.268,21.268,0,0,0-9.88-2.394,26.342,26.342,0,0,0-10.285,2.225,25.63,25.63,0,0,0-4.226,2.263l2.263,3.206a23.749,23.749,0,0,1,12.247-3.769,17.367,17.367,0,0,1,8.062,1.95L128.6,525.7h.032l0,.027c0,.117,0,.233,0,.352a1.379,1.379,0,0,1,.006.141c-.019,19.451-6.228,30.4-12.383,36.657a30.307,30.307,0,0,1-11.964,7.664,30.308,30.308,0,0,1-11.966-7.664c-6.155-6.262-12.362-17.207-12.382-36.657a1.379,1.379,0,0,1,.006-.141l0-.352,1.509-.324-.823-3.837L76.1,523.2l-.038.879c-.014.56-.018,1.106-.026,1.653,0,.16-.006.323-.006.481,0,10.305,1.694,18.509,4.282,25.008a40.706,40.706,0,0,0,14.7,18.987,29.078,29.078,0,0,0,9.062,4.339l.232.057.23-.057a29.078,29.078,0,0,0,9.062-4.339,40.706,40.706,0,0,0,14.7-18.987c2.588-6.5,4.283-14.7,4.283-25.008C132.573,526.059,132.566,525.9,132.566,525.736Z" transform="translate(-76.027 -509.476)" fill="#1cd465"/>
      <path id="Path_185" data-name="Path 185" d="M112.064,530.156l-.026-.008c-.254-.07-25.457-7.168-32.58-20.032a11.645,11.645,0,0,0,1.613,4.259c7.985,13.684,22.478,17.424,22.629,17.464,14.619,3.711,19.435,11.608,20.828,14.833l.272.627,1.466-2.791.037-.118C126.338,544.038,127,535.716,112.064,530.156Z" transform="translate(-73.974 -510.116)" fill="#1cd465"/>
      <path id="Path_186" data-name="Path 186" d="M121.364,543.975c-4.318,5.607-12.749,5.129-12.829,5.127h-.016c-6.363-.134-11.124-2.017-14.144-5.6-4.656-5.516-3.562-13.269-3.551-13.347-.917-.649-1.766-1.33-2.584-2.022A29.672,29.672,0,0,1,83.129,523a41.174,41.174,0,0,1-6.409-10.337c.014.115,1.507,11.555,9.2,17.344.04,1.485.567,12.479,7.622,18.415a17.222,17.222,0,0,0,11.451,3.855,28.636,28.636,0,0,0,4.891-.446c.353-.059,8.685-1.522,12.024-7.494Z" transform="translate(-75.612 -508.595)" fill="#1cd465"/>
    </g>
    <path id="Path_187" data-name="Path 187" d="M78.6,563.717l-.211,2.76a5.516,5.516,0,0,1-1.152,1.344,5.282,5.282,0,0,1-1.635.932,6.276,6.276,0,0,1-2.154.344,6.753,6.753,0,0,1-3.252-.809,5.634,5.634,0,0,1-2.223-2.223,7.518,7.518,0,0,1-.01-6.733,5.625,5.625,0,0,1,2.225-2.234,6.791,6.791,0,0,1,3.366-.8,7.562,7.562,0,0,1,2.348.342,7.671,7.671,0,0,1,1.819.853l.353,2.479h-.16a3.811,3.811,0,0,0-1.581-2.346,5.252,5.252,0,0,0-5.46-.07,4.819,4.819,0,0,0-1.758,2.039,7.862,7.862,0,0,0,0,6.144,4.93,4.93,0,0,0,1.74,2.057,4.8,4.8,0,0,0,2.592.773,5.684,5.684,0,0,0,2.313-.467,4.143,4.143,0,0,0,1.784-1.53,6.242,6.242,0,0,0,.916-2.856Z" transform="translate(0 27.628)" fill="#fff" stroke="#fff" stroke-miterlimit="10" stroke-width="0.1"/>
    <path id="Path_188" data-name="Path 188" d="M76.6,557.734h-.053a1.136,1.136,0,0,0-.344-.781,1.062,1.062,0,0,0-.782-.324h-.229v-.176H76.6Zm0,9.741v1.283H75.195v-.176h.229a1.064,1.064,0,0,0,.782-.326,1.13,1.13,0,0,0,.344-.782Zm1.09-11.023v12.306H76.549V556.452Zm2.25,0a4.27,4.27,0,0,1,1.434.229,2.829,2.829,0,0,1,1.756,1.7,3.725,3.725,0,0,1,.238,1.379,3.5,3.5,0,0,1-.395,1.617,3.433,3.433,0,0,1-1.072,1.256,2.552,2.552,0,0,1-1.522.484,1.98,1.98,0,0,1,.65.5c.233.252.44.5.615.73q.475.686.836,1.178c.238.329.483.651.729.967s.457.568.633.756a7.792,7.792,0,0,0,.7.686,2.96,2.96,0,0,0,.766.475,2.33,2.33,0,0,0,.922.176v.176h-.967a3.6,3.6,0,0,1-1.4-.246,3.556,3.556,0,0,1-.993-.606,6.946,6.946,0,0,1-.686-.7c-.035-.046-.133-.182-.289-.4s-.347-.489-.564-.8-.43-.617-.641-.922-.392-.564-.545-.782-.24-.344-.264-.379a6.113,6.113,0,0,0-.738-.809,1.281,1.281,0,0,0-.879-.369v-.176c.363.013.674.013.932,0a5.4,5.4,0,0,0,1-.141,2.438,2.438,0,0,0,1.02-.51,2.374,2.374,0,0,0,.721-1.178,3.543,3.543,0,0,0,.088-.483,3.285,3.285,0,0,0,.018-.572,2.971,2.971,0,0,0-.606-1.907,2.1,2.1,0,0,0-1.574-.766c-.329-.022-.665-.032-1.012-.026s-.751.008-1.221.008a.918.918,0,0,0-.045-.149c-.029-.09-.072-.221-.131-.4Zm-2.3,11.023h.053a1.045,1.045,0,0,0,.334.782,1.1,1.1,0,0,0,.791.326h.211v.176H77.639Z" transform="translate(4.798 27.72)" fill="#fff" stroke="#fff" stroke-miterlimit="10" stroke-width="0.1"/>
    <path id="Path_189" data-name="Path 189" d="M84.582,557.718l-1.475-.053a2.367,2.367,0,0,0-.722-.721,1.83,1.83,0,0,0-1.037-.317H81.1v-.176h4.325v.176H85.2a.638.638,0,0,0-.588.361A.749.749,0,0,0,84.582,557.718Zm-.668-1.25,3.447,6.419-.758.615-4.2-7.034ZM86.5,567.475v1.283H85.11v-.176h.229a1.064,1.064,0,0,0,.782-.326,1.123,1.123,0,0,0,.344-.782Zm1.106-4.378v5.661H86.463V563.1Zm3.129-6.63h1.072l-4.325,7-.633-.193Zm-3.182,11.007h.053a1.051,1.051,0,0,0,.334.782,1.1,1.1,0,0,0,.791.326h.211v.176H87.553Zm2.461-9.757a.6.6,0,0,0,.09-.5.838.838,0,0,0-.265-.42.652.652,0,0,0-.44-.168h-.211v-.176h3.9v.176h-.248a1.8,1.8,0,0,0-1.018.317,2.78,2.78,0,0,0-.758.721Z" transform="translate(8.332 27.72)" fill="#fff" stroke="#fff" stroke-miterlimit="10" stroke-width="0.1"/>
    <path id="Path_190" data-name="Path 190" d="M90.889,557.734h-.053a1.055,1.055,0,0,0-.334-.781,1.091,1.091,0,0,0-.791-.324H89.5l-.018-.176h1.406Zm0,9.741v1.283H89.483v-.176h.229a1.067,1.067,0,0,0,.783-.326,1.129,1.129,0,0,0,.342-.782Zm1.09-11.023v12.306H90.837V556.452Zm2.092,0a4.3,4.3,0,0,1,1.934.4,2.912,2.912,0,0,1,1.248,1.168,3.6,3.6,0,0,1,.44,1.82,3.219,3.219,0,0,1-1.16,2.532,3.645,3.645,0,0,1-1.2.66,3.517,3.517,0,0,1-2.76-.238v-.176a5.164,5.164,0,0,0,1.063.061,3.934,3.934,0,0,0,.986-.193,2.532,2.532,0,0,0,.965-.588,2.618,2.618,0,0,0,.678-1.178,3.548,3.548,0,0,0,.088-.483,3.275,3.275,0,0,0,.018-.572,3.014,3.014,0,0,0-.633-1.951,2.141,2.141,0,0,0-1.74-.738H91.927c-.059-.177-.117-.352-.176-.527Zm-2.145,11.023h.053a1.129,1.129,0,0,0,.342.782,1.067,1.067,0,0,0,.783.326h.229v.176H91.927Z" transform="translate(13.346 27.72)" fill="#fff" stroke="#fff" stroke-miterlimit="10" stroke-width="0.1"/>
  </g>
</svg>
