<svg width="18" height="15" viewBox="0 0 18 15" fill="none" xmlns="http://www.w3.org/2000/svg">
<path d="M17.6349 1.93908C16.9992 2.22021 16.3251 2.40491 15.6349 2.48708C16.3634 2.05176 16.9089 1.36659 17.1699 0.559079C16.486 0.965392 15.7375 1.25153 14.9569 1.40508C14.4324 0.844126 13.7373 0.47214 12.9796 0.346929C12.2219 0.221718 11.444 0.350295 10.7669 0.712679C10.0898 1.07506 9.55138 1.65096 9.23528 2.35086C8.91918 3.05077 8.84312 3.83549 9.01893 4.58308C7.63267 4.5139 6.27645 4.154 5.03829 3.52674C3.80014 2.89948 2.70771 2.01887 1.83193 0.942079C1.38651 1.70939 1.25005 2.61754 1.4503 3.48187C1.65055 4.3462 2.17246 5.10181 2.90993 5.59508C2.3567 5.57757 1.81567 5.42808 1.33193 5.15908V5.20208C1.33231 6.00735 1.61139 6.78768 2.12179 7.41054C2.63219 8.03341 3.34243 8.46043 4.13193 8.61908C3.61859 8.75814 3.08036 8.77865 2.55793 8.67908C2.77986 9.37103 3.21236 9.97638 3.79502 10.4106C4.37768 10.8448 5.08141 11.0862 5.80793 11.1011C4.34762 12.2471 2.4919 12.7662 0.648926 12.5441C2.24206 13.5688 4.09669 14.1128 5.99093 14.1111C7.29577 14.1201 8.5894 13.8698 9.79667 13.3746C11.0039 12.8794 12.1008 12.1493 13.0235 11.2266C13.9461 10.3039 14.6763 9.20709 15.1715 7.99982C15.6666 6.79255 15.917 5.49892 15.9079 4.19408C15.9079 4.04408 15.9079 3.89408 15.8969 3.74408C16.5789 3.25211 17.1678 2.64259 17.6359 1.94408L17.6349 1.93908Z" fill="#1CD465"/>
</svg>
