<svg xmlns="http://www.w3.org/2000/svg" width="332.253" height="292.753" viewBox="0 0 332.253 292.753">
  <g id="Group_91" data-name="Group 91" transform="translate(-768.747 -4882.247)">
    <text id="_60_Lorem_ipsum_dolor_sit" data-name="60% Lorem ipsum dolor sit" transform="translate(1016 5172)" fill="#fff" font-size="14" font-family="HelveticaNeue, Helvetica Neue"><tspan x="-84.812" y="0">60% Lorem ipsum dolor sit</tspan></text>
    <text id="_30_Lorem_ipsum_dolor_sit" data-name="30% Lorem ipsum dolor sit" transform="translate(1016 5152)" fill="#fff" font-size="14" font-family="HelveticaNeue, Helvetica Neue"><tspan x="-84.812" y="0">30% Lorem ipsum dolor sit</tspan></text>
    <text id="_45_Lorem_ipsum_dolor_sit" data-name="45% Lorem ipsum dolor sit" transform="translate(931 5132)" fill="#fff" font-size="14" font-family="HelveticaNeue, Helvetica Neue"><tspan x="0" y="0">45% Lorem ipsum dolor sit</tspan></text>
    <text id="_85_Lorem_ipsum_dolor_sit" data-name="85% Lorem ipsum dolor sit" transform="translate(931 5112)" fill="#fff" font-size="14" font-family="HelveticaNeue, Helvetica Neue"><tspan x="0" y="0">85% Lorem ipsum dolor sit</tspan></text>
    <g id="Group_88" data-name="Group 88" transform="translate(2419.873 4250.217)">
      <path id="Path_206" data-name="Path 206" d="M-1505.715,914.6a137.159,137.159,0,0,1-137.158-137.158,137.158,137.158,0,0,1,137.158-137.158,137.158,137.158,0,0,1,137.158,137.158" fill="none" stroke="#fff" stroke-linecap="round" stroke-linejoin="round" stroke-width="10" opacity="0.1"/>
      <path id="Path_207" data-name="Path 207" d="M-1522.457,842.025a81.326,81.326,0,0,1-81.325-81.325,81.327,81.327,0,0,1,81.325-81.327A81.327,81.327,0,0,1-1441.13,760.7" transform="translate(16.742 16.742)" fill="none" stroke="#fdfff9" stroke-linecap="round" stroke-linejoin="round" stroke-width="10" opacity="0.1"/>
      <path id="Path_208" data-name="Path 208" d="M-1516.263,868.873a101.98,101.98,0,0,1-101.979-101.98,101.98,101.98,0,0,1,101.979-101.981,101.981,101.981,0,0,1,101.981,101.981" transform="translate(10.549 10.548)" fill="none" stroke="#fff" stroke-linecap="round" stroke-linejoin="round" stroke-width="10" opacity="0.1"/>
      <path id="Path_209" data-name="Path 209" d="M-1510.761,892.726a120.33,120.33,0,0,1-120.33-120.33,120.331,120.331,0,0,1,120.33-120.332A120.331,120.331,0,0,1-1390.43,772.4" transform="translate(5.046 5.046)" fill="none" stroke="#fcfffe" stroke-linecap="round" stroke-linejoin="round" stroke-width="10" opacity="0.1"/>
      <path id="Path_210" data-name="Path 210" d="M-1505.715,899.838a137.159,137.159,0,0,1-137.158-137.158,136.612,136.612,0,0,1,31.887-87.928" transform="translate(0 14.762)" fill="none" stroke="#1cd465" stroke-linecap="round" stroke-linejoin="round" stroke-width="5"/>
      <path id="Path_211" data-name="Path 211" d="M-1514.414,840.805a120.336,120.336,0,0,1-108.148-67.512" transform="translate(8.699 56.967)" fill="none" stroke="#4dc861" stroke-linecap="round" stroke-linejoin="round" stroke-width="5"/>
      <path id="Path_212" data-name="Path 212" d="M-1516.263,846.549a101.98,101.98,0,0,1-101.979-101.98,102.031,102.031,0,0,1,3.761-27.535" transform="translate(10.549 32.872)" fill="none" stroke="#1cd465" stroke-linecap="round" stroke-linejoin="round" stroke-width="5"/>
      <path id="Path_213" data-name="Path 213" d="M-1522.457,842.025a81.326,81.326,0,0,1-81.325-81.325,81.327,81.327,0,0,1,81.325-81.327" transform="translate(16.742 16.742)" fill="none" stroke="#5ed37e" stroke-linecap="round" stroke-linejoin="round" stroke-width="5"/>
    </g>
  </g>
</svg>
