<svg xmlns="http://www.w3.org/2000/svg" xmlns:xlink="http://www.w3.org/1999/xlink" width="616.5" height="501.627" viewBox="0 0 616.5 501.627">
  <g id="Group_81" data-name="Group 81" transform="translate(-273.5 -2649.5)">
    <g id="Group_77" data-name="Group 77" transform="translate(-94.826 -106.501)">
      <path id="Path_193" data-name="Path 193" d="M87.186,119.95,52.278,132.539l-.294,6.74c-.11,4.292-.136,8.484-.2,12.673,0,1.227-.049,2.476-.049,3.69,0,79.034,12.993,141.947,32.836,191.784,29.735,74.793,74.913,119.774,112.714,145.612,37.824,25.9,68.184,32.972,69.5,33.289l1.777.44,1.764-.44c1.311-.307,31.671-7.377,69.5-33.289,37.8-25.838,82.967-70.819,112.714-145.612,19.843-49.836,32.849-112.75,32.849-191.784,0-1.214-.051-2.463-.051-3.69v-.294c-.906-7.636-1.792-12.243-1.792-12.547l-1.408-6.827S349.368,58.826,349.174,58.729A163.075,163.075,0,0,0,273.4,40.369a202,202,0,0,0-78.87,17.062,196.569,196.569,0,0,0-32.408,17.356S101.224,109.313,87.186,119.95Z" transform="translate(324.088 2723.134)" fill="url(#pattern)"/>
      <path id="Path_193-2" data-name="Path 193" d="M87.186,119.95,52.278,132.539l-.294,6.74c-.11,4.292-.136,8.484-.2,12.673,0,1.227-.049,2.476-.049,3.69,0,79.034,12.993,141.947,32.836,191.784,29.735,74.793,74.913,119.774,112.714,145.612,37.824,25.9,68.184,32.972,69.5,33.289l1.777.44,1.764-.44c1.311-.307,31.671-7.377,69.5-33.289,37.8-25.838,82.967-70.819,112.714-145.612,19.843-49.836,32.849-112.75,32.849-191.784,0-1.214-.051-2.463-.051-3.69v-.294c-.906-7.636-1.792-12.243-1.792-12.547l-1.408-6.827S349.368,58.826,349.174,58.729A163.075,163.075,0,0,0,273.4,40.369a202,202,0,0,0-78.87,17.062,196.569,196.569,0,0,0-32.408,17.356" transform="translate(324.088 2723.134)" fill="none" stroke="#1cd465" stroke-miterlimit="10" stroke-width="15"/>
    </g>
  </g>
</svg>
