<svg width="267" height="262" viewBox="0 0 267 262" fill="none" xmlns="http://www.w3.org/2000/svg">
<path d="M259.055 131.5C259.038 148.338 255.644 165.001 249.073 180.504C242.502 196.007 232.889 210.034 220.801 221.756" stroke="#658271" stroke-width="14" stroke-miterlimit="10"/>
<path d="M259.057 131.5C259.156 98.8345 246.466 67.4276 223.702 44C212.605 32.5436 199.319 23.4332 184.634 17.2096C169.948 10.9859 154.162 7.77592 138.212 7.77002" stroke="#2DFF85" stroke-width="14" stroke-miterlimit="10"/>
<path d="M48.668 215.509C59.7395 227.407 73.051 237.001 87.8389 243.742C102.627 250.483 118.6 254.238 134.843 254.791C151.103 255.369 167.317 252.729 182.554 247.023C197.791 241.316 211.75 232.656 223.63 221.539" stroke="#004A1F" stroke-width="14" stroke-miterlimit="10"/>
<path d="M51.3931 44.0042C62.8908 32.4922 76.5496 23.3651 91.5849 17.1469C106.62 10.9288 122.736 7.74224 139.006 7.7702" stroke="#007832" stroke-width="14" stroke-miterlimit="10"/>
<path d="M47.39 215.424C25.3725 191.892 13.5683 160.6 14.5585 128.389C15.5148 97.419 26.028 67.8821 50.4632 45.0958" stroke="#1CCB65" stroke-width="29" stroke-miterlimit="10"/>
</svg>
