<svg viewBox="0 0 34 32" fill="none" xmlns="http://www.w3.org/2000/svg">
<path opacity="0.2" d="M2.49854 31.2759C1.1486 31.2759 0.473633 30.7871 0.473633 29.8096C0.473633 29.1113 0.799479 28.1571 1.45117 26.9468C2.24251 25.3641 2.75456 24.0142 2.9873 22.897C3.2666 21.7798 3.40625 20.4299 3.40625 18.8472C3.40625 14.5646 2.63818 10.957 1.10205 8.02441C0.683105 7.23307 0.473633 6.53483 0.473633 5.92969C0.473633 5.41764 0.846029 4.76595 1.59082 3.97461C2.9873 2.57812 4.54671 1.67041 6.26904 1.25146C6.78109 1.15837 8.08447 1.11182 10.1792 1.11182C13.717 5.11507 15.4858 9.63037 15.4858 14.6577C15.4858 15.4956 15.3462 17.1016 15.0669 19.4756C14.7876 21.8031 13.4144 24.3167 10.9473 27.0166C9.55078 28.4131 7.99137 29.507 6.26904 30.2983C4.82601 30.95 3.56917 31.2759 2.49854 31.2759ZM20.3037 30.7173C18.9538 30.7173 18.2788 30.2285 18.2788 29.251C18.2788 28.5527 18.6047 27.5985 19.2563 26.3882C20.0477 24.8055 20.5597 23.4556 20.7925 22.3384C21.0718 21.2212 21.2114 19.8713 21.2114 18.2886C21.2114 14.006 20.4434 10.3984 18.9072 7.46582C18.4883 6.67448 18.2788 5.97624 18.2788 5.37109C18.2788 4.85905 18.6512 4.20736 19.396 3.41602C20.7925 2.01953 22.3519 1.11182 24.0742 0.692871C24.5863 0.599772 25.8896 0.553223 27.9844 0.553223C31.5221 4.55648 33.291 9.07178 33.291 14.0991C33.291 14.937 33.1514 16.543 32.8721 18.917C32.5928 21.2445 31.2196 23.7581 28.7524 26.458C27.356 27.8545 25.7965 28.9484 24.0742 29.7397C22.6312 30.3914 21.3743 30.7173 20.3037 30.7173Z" fill="#25D46A"/>
</svg>
