<svg width="31" height="31" viewBox="0 0 31 31" fill="none" xmlns="http://www.w3.org/2000/svg">
<g opacity="0.3">
<path d="M17.8075 15.5L30.5222 2.78528C31.1594 2.14808 31.1594 1.11503 30.5222 0.477897C29.885 -0.159299 28.8519 -0.159299 28.2148 0.477897L15.5 13.1926L2.78528 0.477897C2.14808 -0.159299 1.11503 -0.159299 0.477897 0.477897C-0.159238 1.11509 -0.159299 2.14814 0.477897 2.78528L13.1926 15.5L0.477897 28.2147C-0.159299 28.8519 -0.159299 29.885 0.477897 30.5221C1.11509 31.1593 2.14814 31.1593 2.78528 30.5221L15.5 17.8074L28.2147 30.5221C28.8519 31.1593 29.885 31.1593 30.5221 30.5221C31.1593 29.8849 31.1593 28.8519 30.5221 28.2147L17.8075 15.5Z" fill="white"/>
</g>
</svg>
