<svg width="141" height="141" viewBox="0 0 141 141" fill="none" xmlns="http://www.w3.org/2000/svg">
<path d="M125.892 56.7561C127.825 56.7561 129.391 55.1895 129.391 53.2571C129.391 51.3246 127.825 49.7581 125.892 49.7581C123.96 49.7581 122.393 51.3246 122.393 53.2571C122.393 55.1895 123.96 56.7561 125.892 56.7561Z" fill="#FBD725"/>
<path d="M125.892 56.2561C127.548 56.2561 128.891 54.9134 128.891 53.2571C128.891 51.6008 127.548 50.2581 125.892 50.2581C124.236 50.2581 122.893 51.6008 122.893 53.2571C122.893 54.9134 124.236 56.2561 125.892 56.2561Z" stroke="#FBD725"/>
<path d="M83.5511 127.012C114.763 119.807 134.223 88.6634 127.017 57.4519C119.812 26.2403 88.6683 6.7798 57.4568 13.9856C26.2453 21.1913 6.78477 52.3347 13.9905 83.5462C21.1963 114.758 52.3396 134.218 83.5511 127.012Z" stroke="#1CCB65" stroke-dasharray="79 483"/>
<path opacity="0.45" d="M70.5 121C97.8381 121 120 98.6142 120 71C120 43.3858 97.8381 21 70.5 21C43.1619 21 21 43.3858 21 71C21 98.6142 43.1619 121 70.5 121Z" fill="#092F22"/>
<path d="M58.8922 66.968H81.5172C81.7672 66.968 82.0069 66.8687 82.1837 66.6919C82.3604 66.5152 82.4597 66.2754 82.4597 66.0255C82.4597 65.7755 82.3604 65.5358 82.1837 65.359C82.0069 65.1823 81.7672 65.083 81.5172 65.083H81.4692C81.2601 62.583 80.225 60.2237 78.527 58.3769C76.8291 56.5302 74.5649 55.3009 72.0912 54.883V53.535H70.4412V50.236C70.4433 50.2038 70.4388 50.1715 70.4279 50.1411C70.417 50.1107 70.4 50.0828 70.3779 50.0593C70.3559 50.0357 70.3292 50.0169 70.2996 50.0041C70.2699 49.9912 70.238 49.9846 70.2057 49.9846C70.1734 49.9846 70.1415 49.9912 70.1119 50.0041C70.0822 50.0169 70.0556 50.0357 70.0335 50.0593C70.0114 50.0828 69.9944 50.1107 69.9835 50.1411C69.9727 50.1715 69.9681 50.2038 69.9702 50.236V53.536H68.3202V54.883C65.8462 55.3005 63.5815 56.5296 61.8832 58.3764C60.1849 60.2232 59.1495 62.5827 58.9402 65.083H58.8922C58.6421 65.083 58.4023 65.1823 58.2254 65.3592C58.0486 65.536 57.9492 65.7759 57.9492 66.026C57.9492 66.2761 58.0486 66.5159 58.2254 66.6928C58.4023 66.8696 58.6421 66.969 58.8922 66.969V66.968Z" fill="#1CCB65"/>
<path d="M86.23 90.627H85.052V79.785H86.23C86.5426 79.785 86.8423 79.6608 87.0633 79.4398C87.2843 79.2188 87.4085 78.919 87.4085 78.6065C87.4085 78.2939 87.2843 77.9942 87.0633 77.7732C86.8423 77.5521 86.5426 77.428 86.23 77.428H54.178C53.8655 77.428 53.5657 77.5521 53.3447 77.7732C53.1237 77.9942 52.9995 78.2939 52.9995 78.6065C52.9995 78.919 53.1237 79.2188 53.3447 79.4398C53.5657 79.6608 53.8655 79.785 54.178 79.785H55.357V90.627H54.178C53.8656 90.627 53.566 90.7511 53.345 90.972C53.1241 91.1929 53 91.4926 53 91.805C53 92.1174 53.1241 92.417 53.345 92.638C53.566 92.8589 53.8656 92.983 54.178 92.983H86.23C86.5424 92.983 86.8421 92.8589 87.063 92.638C87.2839 92.417 87.408 92.1174 87.408 91.805C87.408 91.4926 87.2839 91.1929 87.063 90.972C86.8421 90.7511 86.5424 90.627 86.23 90.627ZM81.752 90.627H79.773V79.785H81.752V90.627ZM69.214 79.785H71.189V90.627H69.214V79.785ZM65.914 90.627H63.934V79.785H65.914V90.627ZM74.489 79.785H76.468V90.627H74.489V79.785ZM58.651 79.785H60.63V90.627H58.656L58.651 79.785Z" fill="#1CCB65"/>
<path d="M57.4782 70.9749H58.6652C58.6652 70.9929 58.6552 71.0089 58.6552 71.0219V76.1089H61.0122V71.0219C61.0122 71.0049 61.0032 70.9879 61.0032 70.9749H62.1232C62.1232 70.9929 62.1142 71.0089 62.1142 71.0219V76.1089H64.4702V71.0219C64.4702 71.0049 64.4612 70.9879 64.4612 70.9749H65.5812C65.5812 70.9929 65.5722 71.0089 65.5722 71.0219V76.1089H67.9292V71.0219C67.9292 71.0049 67.9192 70.9879 67.9192 70.9749H69.0392C69.0392 70.9929 69.0292 71.0089 69.0292 71.0219V76.1089H71.3862V71.0219C71.3862 71.0049 71.3762 70.9879 71.3762 70.9749H72.4992C72.4992 70.9929 72.4892 71.0089 72.4892 71.0219V76.1089H74.8462V71.0219C74.8462 71.0049 74.8372 70.9879 74.8372 70.9749H75.9572C75.9572 70.9929 75.9472 71.0089 75.9472 71.0219V76.1089H78.2992V71.0219C78.2992 71.0049 78.2892 70.9879 78.2892 70.9749H79.4092C79.4092 70.9929 79.4002 71.0089 79.4002 71.0219V76.1089H81.7592V71.0219C81.7592 71.0049 81.7492 70.9879 81.7492 70.9749H82.9362C83.2488 70.9749 83.5485 70.8508 83.7696 70.6298C83.9906 70.4087 84.1147 70.109 84.1147 69.7964C84.1147 69.4839 83.9906 69.1841 83.7696 68.9631C83.5485 68.7421 83.2488 68.6179 82.9362 68.6179H57.4852C57.1727 68.617 56.8725 68.7403 56.6509 68.9606C56.4292 69.181 56.3042 69.4804 56.3032 69.7929C56.3023 70.1055 56.4256 70.4056 56.6459 70.6273C56.8663 70.8489 57.1657 70.974 57.4782 70.9749Z" fill="#1CCB65"/>
</svg>
