<svg width="141" height="141" viewBox="0 0 141 141" fill="none" xmlns="http://www.w3.org/2000/svg">
<path d="M125.892 56.7561C127.825 56.7561 129.391 55.1895 129.391 53.2571C129.391 51.3246 127.825 49.7581 125.892 49.7581C123.96 49.7581 122.393 51.3246 122.393 53.2571C122.393 55.1895 123.96 56.7561 125.892 56.7561Z" fill="#FBD725"/>
<path d="M125.892 56.2561C127.548 56.2561 128.891 54.9134 128.891 53.2571C128.891 51.6008 127.548 50.2581 125.892 50.2581C124.236 50.2581 122.893 51.6008 122.893 53.2571C122.893 54.9134 124.236 56.2561 125.892 56.2561Z" stroke="#FBD725"/>
<path d="M83.5511 127.012C114.763 119.807 134.223 88.6634 127.017 57.4519C119.812 26.2403 88.6683 6.7798 57.4568 13.9856C26.2453 21.1913 6.78477 52.3347 13.9905 83.5462C21.1963 114.758 52.3396 134.218 83.5511 127.012Z" stroke="#1CCB65" stroke-miterlimit="7.1853" stroke-dasharray="79 483"/>
<path opacity="0.45" d="M70.5 121C97.8381 121 120 98.6142 120 71C120 43.3858 97.8381 21 70.5 21C43.1619 21 21 43.3858 21 71C21 98.6142 43.1619 121 70.5 121Z" fill="#092F22"/>
<path d="M65.9829 57.4771H81.4209V60.05H65.9829V57.4771Z" fill="#1CCB65"/>
<path d="M54.7421 80.5581L49.0291 86.2721C48.7902 86.5111 48.6006 86.7947 48.4713 87.1069C48.342 87.4191 48.2754 87.7537 48.2754 88.0916C48.2754 88.4295 48.342 88.7641 48.4713 89.0763C48.6006 89.3885 48.7902 89.6722 49.0291 89.9111C49.268 90.1501 49.5517 90.3396 49.8639 90.469C50.1761 90.5983 50.5107 90.6648 50.8486 90.6648C51.1865 90.6648 51.5211 90.5983 51.8333 90.469C52.1455 90.3396 52.4292 90.1501 52.6681 89.9111L58.3161 84.2631C56.8318 83.3488 55.6024 82.0744 54.7421 80.5581Z" fill="#1CCB65"/>
<path d="M64.282 83.207C68.5451 83.207 72.001 79.7511 72.001 75.488C72.001 71.225 68.5451 67.769 64.282 67.769C60.0189 67.769 56.563 71.225 56.563 75.488C56.563 79.7511 60.0189 83.207 64.282 83.207Z" stroke="#1CCB65"/>
<path d="M57.0191 49.7581V67.6581C59.1441 65.9717 61.8021 65.1004 64.5131 65.2017C67.2241 65.3029 69.8097 66.3699 71.8031 68.2101C72.8083 69.1371 73.6105 70.2624 74.1593 71.5149C74.708 72.7675 74.9913 74.1201 74.9913 75.4876C74.9913 76.855 74.708 78.2076 74.1593 79.4602C73.6105 80.7127 72.8083 81.838 71.8031 82.7651C70.3842 84.0799 68.6528 85.0101 66.7732 85.4674C64.8937 85.9248 62.9284 85.894 61.0641 85.3781L57.0181 89.1971V93.4971H89.7241V49.7581H57.0191ZM84.2731 88.3531H73.3731V85.7801H84.2731V88.3531ZM84.2731 83.2071H78.8221V80.6341H84.2731V83.2071ZM84.2731 78.0611H78.8221V75.4881H84.2731V78.0611ZM84.2731 72.9151H78.8221V70.3421H84.2731V72.9151ZM84.2731 67.7691H75.5541V65.1961H84.2731V67.7691ZM84.2731 62.6231H62.4731V54.9041H84.2731V62.6231Z" fill="#1CCB65"/>
</svg>
