<svg width="16" height="17" viewBox="0 0 16 17" fill="none" xmlns="http://www.w3.org/2000/svg">
<path d="M7.9911 0.750893C4.7181 0.750893 1.6101 0.459893 0.422096 3.50689C-0.0679039 4.76489 0.00309597 6.39989 0.00309597 8.73989C0.00309597 10.7939 -0.0629039 12.7239 0.422096 13.9719C1.6071 17.0209 4.7401 16.7289 7.9891 16.7289C11.1231 16.7289 14.3551 17.0549 15.5571 13.9719C16.0481 12.7009 15.9761 11.0909 15.9761 8.73989C15.9761 5.61889 16.1481 3.60389 14.6351 2.09189C13.1031 0.559893 11.0351 0.751893 7.9881 0.751893L7.9911 0.750893ZM7.2751 2.19089C14.1031 2.17989 14.9751 1.42089 14.4921 11.9659C14.3221 15.6949 11.4821 15.2859 7.9921 15.2859C1.6281 15.2859 1.4451 15.1039 1.4451 8.73689C1.4451 2.29589 1.9451 2.19489 7.2761 2.18989L7.2751 2.19089ZM12.2551 3.51289C12.0656 3.51289 11.8804 3.56908 11.7229 3.67434C11.5653 3.77961 11.4425 3.92923 11.37 4.10428C11.2975 4.27933 11.2785 4.47196 11.3155 4.65779C11.3525 4.84362 11.4437 5.01432 11.5777 5.1483C11.7117 5.28228 11.8824 5.37352 12.0682 5.41048C12.254 5.44745 12.4467 5.42848 12.6217 5.35597C12.7968 5.28346 12.9464 5.16067 13.0516 5.00313C13.1569 4.84559 13.2131 4.66037 13.2131 4.47089C13.2131 4.34509 13.1883 4.22051 13.1402 4.10428C13.092 3.98805 13.0215 3.88244 12.9325 3.79348C12.8435 3.70453 12.7379 3.63396 12.6217 3.58582C12.5055 3.53767 12.3809 3.51289 12.2551 3.51289ZM7.9911 4.63689C7.18019 4.63689 6.3875 4.87735 5.71326 5.32787C5.03902 5.77838 4.51351 6.41871 4.20319 7.16789C3.89287 7.91707 3.81168 8.74144 3.96988 9.53676C4.12808 10.3321 4.51856 11.0626 5.09196 11.636C5.66535 12.2094 6.3959 12.5999 7.19123 12.7581C7.98655 12.9163 8.81092 12.8351 9.5601 12.5248C10.3093 12.2145 10.9496 11.689 11.4001 11.0147C11.8506 10.3405 12.0911 9.5478 12.0911 8.73689C12.0911 7.6495 11.6591 6.60665 10.8902 5.83775C10.1213 5.06886 9.07848 4.63689 7.9911 4.63689ZM7.9911 6.07689C11.5111 6.07689 11.5161 11.4029 7.9911 11.4029C4.4661 11.4029 4.4671 6.07689 7.9911 6.07689Z" fill="#1CD465"/>
</svg>
