<svg width="17" height="17" viewBox="0 0 17 17" fill="none" xmlns="http://www.w3.org/2000/svg">
<path d="M8.49158 0.52311C5.21858 0.52311 2.11058 0.23211 0.922584 3.27911C0.432584 4.53711 0.503584 6.17211 0.503584 8.51211C0.503584 10.5661 0.437584 12.4961 0.922584 13.7441C2.10758 16.7931 5.24058 16.5011 8.48958 16.5011C11.6236 16.5011 14.8556 16.8271 16.0576 13.7441C16.5486 12.4731 16.4766 10.8631 16.4766 8.51211C16.4766 5.39111 16.6486 3.37611 15.1356 1.86411C13.6036 0.33211 11.5356 0.524109 8.48858 0.524109L8.49158 0.52311ZM7.77558 1.96311C14.6036 1.95211 15.4756 1.19311 14.9926 11.7381C14.8226 15.4671 11.9826 15.0581 8.49258 15.0581C2.12858 15.0581 1.94558 14.8761 1.94558 8.50911C1.94558 2.06811 2.44558 1.96711 7.77658 1.96211L7.77558 1.96311ZM12.7556 3.28511C12.5661 3.28511 12.3809 3.3413 12.2233 3.44656C12.0658 3.55183 11.943 3.70145 11.8705 3.8765C11.798 4.05155 11.779 4.24417 11.816 4.43001C11.853 4.61584 11.9442 4.78654 12.0782 4.92052C12.2122 5.0545 12.3829 5.14574 12.5687 5.1827C12.7545 5.21967 12.9471 5.2007 13.1222 5.12819C13.2972 5.05568 13.4469 4.93289 13.5521 4.77535C13.6574 4.6178 13.7136 4.43258 13.7136 4.24311C13.7136 4.1173 13.6888 3.99273 13.6407 3.8765C13.5925 3.76027 13.522 3.65466 13.433 3.5657C13.344 3.47674 13.2384 3.40618 13.1222 3.35803C13.006 3.30989 12.8814 3.28511 12.7556 3.28511ZM8.49158 4.40911C7.68068 4.40911 6.88799 4.64957 6.21375 5.10008C5.5395 5.5506 5.014 6.19093 4.70368 6.94011C4.39336 7.68928 4.31217 8.51366 4.47036 9.30898C4.62856 10.1043 5.01905 10.8349 5.59245 11.4082C6.16584 11.9816 6.89639 12.3721 7.69171 12.5303C8.48704 12.6885 9.31141 12.6073 10.0606 12.297C10.8098 11.9867 11.4501 11.4612 11.9006 10.7869C12.3511 10.1127 12.5916 9.32001 12.5916 8.50911C12.5916 7.42172 12.1596 6.37887 11.3907 5.60997C10.6218 4.84107 9.57897 4.40911 8.49158 4.40911ZM8.49158 5.84911C12.0116 5.84911 12.0166 11.1751 8.49158 11.1751C4.96658 11.1751 4.96758 5.84911 8.49158 5.84911Z" fill="#1CD465"/>
</svg>
