<svg xmlns="http://www.w3.org/2000/svg" width="4783.837" height="470.317" viewBox="0 0 4783.837 470.317">
  <path id="Path_214" data-name="Path 214" d="M-3050.435,3659.309c46.518-59.369,121.135-115.9,214.329-147.08,233.661-78.178,439.317,49.1,582.542,152.842,138.719,100.479,328.128,167.318,535.12,191.021,239.1,27.379,454.47,12.313,659.551-71.322,213.185-86.942,471.753-120.335,722.8-108.765,134.546,6.2,267.53,24.446,395.074,52.134,75.628,16.417,149.587,43.449,230.744,46.776,88.9,3.646,169.737-25.756,255.7-35.087q157.205-17.065,316.6-24.11c269.832-11.821,544.166-1.715,806.657,41.28" transform="translate(3096.42 -3486.603)" fill="none" stroke="#1cd465" stroke-miterlimit="10" stroke-width="3" opacity="0.218"/>
  <path id="Path_215" data-name="Path 215" d="M-3050.435,3659.309c46.518-59.369,121.135-115.9,214.329-147.08,233.661-78.178,439.317,49.1,582.542,152.842,138.719,100.479,328.128,167.318,535.12,191.021,239.1,27.379,454.47,12.313,659.551-71.322,213.185-86.942,471.753-120.335,722.8-108.765,134.546,6.2,267.53,24.446,395.074,52.134,75.628,16.417,149.587,43.449,230.744,46.776,88.9,3.646,169.737-25.756,255.7-35.087q157.205-17.065,316.6-24.11c269.832-11.821,544.166-1.715,806.657,41.28" transform="translate(3083.42 -3431.603)" fill="none" stroke="#1cd465" stroke-miterlimit="10" stroke-width="4" opacity="0.218"/>
</svg>
