<svg width="17" height="16" viewBox="0 0 17 16" fill="none" xmlns="http://www.w3.org/2000/svg">
<path d="M3.61623 2.39208C3.61642 2.7219 3.51877 3.04438 3.33563 3.31869C3.15249 3.593 2.89209 3.80682 2.58739 3.93309C2.28269 4.05935 1.94738 4.09239 1.62389 4.02802C1.3004 3.96365 1.00328 3.80476 0.770126 3.57147C0.536972 3.33817 0.378264 3.04096 0.314088 2.71743C0.249911 2.39391 0.28315 2.05861 0.409599 1.75399C0.536048 1.44936 0.750022 1.18909 1.02444 1.00611C1.29886 0.823136 1.6214 0.72568 1.95123 0.726075C2.39282 0.726605 2.81617 0.902332 3.12833 1.21468C3.44049 1.52703 3.61596 1.95048 3.61623 2.39208ZM3.66623 5.29208H0.333227V15.7261H3.66623V5.29208ZM8.93323 5.29208H5.61623V15.7261H8.89923V10.2511C8.89923 7.20107 12.8742 6.91807 12.8742 10.2511V15.7261H16.1662V9.11707C16.1662 3.97507 10.2832 4.16708 8.89923 6.69208L8.93323 5.29208Z" fill="#1CD465"/>
</svg>
