<svg width="19" height="16" viewBox="0 0 19 16" fill="none" xmlns="http://www.w3.org/2000/svg">
<path d="M2.167 2.80907V1.55407C2.16831 1.33522 2.25569 1.12568 2.41025 0.970738C2.56482 0.815797 2.77415 0.727909 2.993 0.726074H18.007C18.1157 0.726074 18.2233 0.747498 18.3237 0.789121C18.4241 0.830745 18.5153 0.89175 18.5921 0.96865C18.6689 1.04555 18.7298 1.13684 18.7713 1.23729C18.8128 1.33774 18.8341 1.44539 18.834 1.55407V14.8991C18.8324 15.1179 18.7448 15.3274 18.59 15.4821C18.4353 15.6369 18.2258 15.7245 18.007 15.7261H2.993C2.77357 15.7258 2.56323 15.6385 2.40816 15.4832C2.2531 15.328 2.166 15.1175 2.166 14.8981V14.0591H17.166V4.30907L10.499 10.3091L2.167 2.80907ZM0.5 6.55907H4.667V8.22607H0.5V6.55907ZM0.5 10.7261H7.167V12.3931H0.5V10.7261Z" fill="#1CD465"/>
</svg>
