<svg viewBox="0 0 34 32" fill="none" xmlns="http://www.w3.org/2000/svg">
<path opacity="0.2" d="M31.5015 31.2759C32.8514 31.2759 33.5264 30.7871 33.5264 29.8096C33.5264 29.1113 33.2005 28.1571 32.5488 26.9468C31.7575 25.3641 31.2454 24.0142 31.0127 22.897C30.7334 21.7798 30.5938 20.4299 30.5938 18.8472C30.5938 14.5646 31.3618 10.957 32.8979 8.02441C33.3169 7.23307 33.5264 6.53483 33.5264 5.92969C33.5264 5.41764 33.154 4.76595 32.4092 3.97461C31.0127 2.57812 29.4533 1.67041 27.731 1.25146C27.2189 1.15837 25.9155 1.11182 23.8208 1.11182C20.283 5.11507 18.5142 9.63037 18.5142 14.6577C18.5142 15.4956 18.6538 17.1016 18.9331 19.4756C19.2124 21.8031 20.5856 24.3167 23.0527 27.0166C24.4492 28.4131 26.0086 29.507 27.731 30.2983C29.174 30.95 30.4308 31.2759 31.5015 31.2759ZM13.6963 30.7173C15.0462 30.7173 15.7212 30.2285 15.7212 29.251C15.7212 28.5527 15.3953 27.5985 14.7437 26.3882C13.9523 24.8055 13.4403 23.4556 13.2075 22.3384C12.9282 21.2212 12.7886 19.8713 12.7886 18.2886C12.7886 14.006 13.5566 10.3984 15.0928 7.46582C15.5117 6.67448 15.7212 5.97624 15.7212 5.37109C15.7212 4.85905 15.3488 4.20736 14.604 3.41602C13.2075 2.01953 11.6481 1.11182 9.92578 0.692871C9.41374 0.599772 8.11035 0.553223 6.01562 0.553223C2.47786 4.55648 0.708984 9.07178 0.708984 14.0991C0.708984 14.937 0.848633 16.543 1.12793 18.917C1.40723 21.2445 2.78044 23.7581 5.24756 26.458C6.64404 27.8545 8.20345 28.9484 9.92578 29.7397C11.3688 30.3914 12.6257 30.7173 13.6963 30.7173Z" fill="#25D46A"/>
</svg>
