<svg width="141" height="141" viewBox="0 0 141 141" fill="none" xmlns="http://www.w3.org/2000/svg">
<path d="M125.892 56.7561C127.825 56.7561 129.391 55.1895 129.391 53.2571C129.391 51.3246 127.825 49.7581 125.892 49.7581C123.96 49.7581 122.393 51.3246 122.393 53.2571C122.393 55.1895 123.96 56.7561 125.892 56.7561Z" fill="#FBD725"/>
<path d="M125.892 56.2561C127.548 56.2561 128.891 54.9134 128.891 53.2571C128.891 51.6008 127.548 50.2581 125.892 50.2581C124.236 50.2581 122.893 51.6008 122.893 53.2571C122.893 54.9134 124.236 56.2561 125.892 56.2561Z" stroke="#FBD725"/>
<path d="M83.5511 127.012C114.763 119.807 134.223 88.6634 127.017 57.4519C119.812 26.2403 88.6683 6.7798 57.4568 13.9856C26.2453 21.1913 6.78477 52.3347 13.9905 83.5462C21.1963 114.758 52.3396 134.218 83.5511 127.012Z" stroke="#1CCB65" stroke-dasharray="79 483"/>
<path opacity="0.45" d="M70.5 121C97.8381 121 120 98.6142 120 71C120 43.3858 97.8381 21 70.5 21C43.1619 21 21 43.3858 21 71C21 98.6142 43.1619 121 70.5 121Z" fill="#092F22"/>
<path d="M92.3782 56.2999L62.8462 50.0499C62.2439 49.9245 61.6165 50.0424 61.1009 50.378C60.5853 50.7135 60.2234 51.2395 60.0942 51.8409L59.5332 55.4469L93.6082 62.6579L94.1692 59.0519C94.2947 58.4497 94.1767 57.8222 93.8412 57.3066C93.5056 56.791 92.9797 56.4291 92.3782 56.2999Z" fill="#1CCB65"/>
<path d="M79.9592 63.42C79.7914 62.822 79.3938 62.3148 78.8532 62.009C78.3127 61.7033 77.6731 61.6238 77.0742 61.7879L71.4682 63.3439L58.2522 60.5439L56.8002 67.42L47.7182 69.9409C47.1213 70.1084 46.6147 70.5049 46.3089 71.0442C46.003 71.5834 45.9226 72.2217 46.0852 72.8199L51.2002 91.2659C51.368 91.8639 51.7656 92.3711 52.3062 92.6769C52.8467 92.9826 53.4863 93.0621 54.0852 92.8979L83.4432 84.7509C84.0411 84.5831 84.5483 84.1855 84.8541 83.645C85.1599 83.1045 85.2394 82.4649 85.0752 81.866L84.1962 78.7L87.4892 79.3999C88.0915 79.5257 88.7191 79.4079 89.2347 79.0723C89.7504 78.7366 90.1123 78.2106 90.2412 77.6089L92.3242 67.765L80.4642 65.255L79.9592 63.42ZM83.3492 72.7939L84.0752 69.3629C84.1285 69.1156 84.2774 68.8994 84.4894 68.7613C84.7015 68.6233 84.9595 68.5746 85.2072 68.6259L88.6382 69.353C88.8857 69.406 89.1021 69.5549 89.2402 69.767C89.3783 69.9791 89.4268 70.2372 89.3752 70.485L88.6502 73.92C88.5971 74.1674 88.4483 74.3838 88.2362 74.5219C88.0241 74.66 87.766 74.7085 87.5182 74.657L84.0872 73.931C83.8389 73.8781 83.6217 73.729 83.4834 73.5161C83.345 73.3033 83.2967 73.0443 83.3492 72.796V72.7939ZM48.2272 71.7789L56.3512 69.5249L75.5212 64.205L77.5842 63.632C77.6207 63.6221 77.6584 63.617 77.6962 63.617C77.7911 63.6178 77.8832 63.649 77.959 63.706C78.0348 63.7631 78.0902 63.843 78.1172 63.934L78.3592 64.806L79.1182 67.5399L48.9272 75.92L47.9272 72.3139C47.8975 72.2033 47.9122 72.0853 47.9683 71.9854C48.0243 71.8854 48.1173 71.8113 48.2272 71.7789ZM83.2362 82.379C83.2651 82.4895 83.25 82.6069 83.194 82.7065C83.1381 82.8061 83.0456 82.8801 82.9362 82.9129L53.5772 91.0569C53.5407 91.0669 53.503 91.0719 53.4652 91.0719C53.3703 91.0712 53.2782 91.0399 53.2024 90.9829C53.1266 90.9258 53.0712 90.8459 53.0442 90.755L50.0592 79.9969L80.2502 71.6199L82.0912 78.255L83.2362 82.379Z" fill="#1CCB65"/>
<path d="M58.3213 83.111C58.2529 82.8673 58.0908 82.6606 57.8705 82.536C57.6501 82.4114 57.3894 82.379 57.1453 82.4461L53.7163 83.398C53.4725 83.4664 53.2658 83.6285 53.1412 83.8489C53.0166 84.0692 52.9843 84.3299 53.0513 84.574L54.0023 88.0021C54.0707 88.2458 54.2327 88.4525 54.4531 88.5771C54.6734 88.7017 54.9342 88.734 55.1783 88.667L58.6073 87.716C58.851 87.6477 59.0578 87.4856 59.1824 87.2652C59.307 87.0449 59.3393 86.7842 59.2723 86.54L58.3213 83.111Z" fill="#1CCB65"/>
</svg>
