<svg width="19" height="16" viewBox="0 0 19 16" fill="none" xmlns="http://www.w3.org/2000/svg">
<path d="M18.1051 0.755955L15.2733 15.2143C15.2733 15.2143 15.1516 15.875 14.3321 15.875C13.8967 15.875 13.6722 15.6679 13.6722 15.6679L7.53836 10.578L4.53723 9.06538L0.685648 8.04107C0.685648 8.04107 0 7.84301 0 7.27604C0 6.80357 0.705303 6.5783 0.705303 6.5783L16.8192 0.176895C16.8192 0.176895 17.3113 -0.000753536 17.6704 2.41603e-06C17.8911 2.41603e-06 18.1429 0.0944965 18.1429 0.377979C18.1429 0.566967 18.1051 0.755955 18.1051 0.755955Z" fill="#1CD465"/>
<path d="M9.8276 12.4786L7.23771 15.0292C7.23771 15.0292 7.12507 15.1161 6.97464 15.1199C6.92247 15.1214 6.86653 15.1131 6.80908 15.0874L7.53782 10.5781L9.8276 12.4786Z" fill="#1FB35D"/>
<path d="M15.0411 3.17152C14.9134 3.00521 14.6775 2.97498 14.5112 3.10122L4.53564 9.07097C4.53564 9.07097 6.12768 13.525 6.37034 14.2961C6.61376 15.0679 6.80879 15.0861 6.80879 15.0861L7.53753 10.5768L14.9701 3.70069C15.1364 3.57445 15.1674 3.33783 15.0411 3.17152Z" fill="#02B549"/>
</svg>
