<svg width="1024" height="608" viewBox="0 0 1024 608" fill="none" xmlns="http://www.w3.org/2000/svg">
<path opacity="0.28" d="M566.226 117.086L619.968 73.2891H810.235" stroke="white" stroke-width="3"/>
<path opacity="0.28" d="M610.023 270.821L663.765 314.617H887.996" stroke="white" stroke-width="3"/>
<path opacity="0.28" d="M383.443 411.153L293.502 508.578H28.6027" stroke="white" stroke-width="3"/>
<path opacity="0.28" d="M501 412L440.13 606H158" stroke="white" stroke-width="3"/>
<path opacity="0.28" d="M575.164 356.625L628.906 400.422H779.399" stroke="white" stroke-width="3"/>
<path opacity="0.28" d="M536 393L604.405 509H1023" stroke="white" stroke-width="3"/>
<path opacity="0.28" d="M394.615 87.5933L340.873 43.7969H150.606" stroke="white" stroke-width="3"/>
<path opacity="0.28" d="M287.358 302.109L209.037 258.312H5.60284e-06" stroke="white" stroke-width="3"/>
<path d="M622.052 38.094C621.818 38.146 621.662 38.276 621.662 38.536V39.42C621.662 39.68 621.818 39.784 622.052 39.732L626.186 38.77V52.914H622.026C621.766 52.914 621.636 53.018 621.636 53.278V54.11C621.636 54.396 621.766 54.5 622.026 54.5H632.14C632.4 54.5 632.53 54.396 632.53 54.11V53.278C632.53 53.018 632.4 52.914 632.14 52.914H628.032V37.08C628.032 36.768 627.824 36.716 627.668 36.742L622.052 38.094ZM636.56 36.82C636.3 36.82 636.196 36.95 636.196 37.21V44.854C636.196 45.14 636.3 45.244 636.56 45.244H640.824C643.502 45.244 644.204 46.31 644.204 47.428V50.704C644.204 52.238 643.606 53.174 640.902 53.174C638.198 53.174 637.574 52.238 637.574 50.704V50.392C637.574 50.106 637.444 50.002 637.184 50.002H636.144C635.858 50.002 635.754 50.106 635.754 50.392V50.964C635.754 53.044 636.742 54.734 640.902 54.734C645.088 54.734 646.076 53.044 646.076 50.964V47.194C646.076 45.062 644.386 43.71 640.85 43.71H638.042V38.406H645.244C645.504 38.406 645.634 38.302 645.634 38.016V37.21C645.634 36.924 645.504 36.82 645.244 36.82H636.56ZM650.08 41.942C650.08 43.424 650.99 44.412 653.59 44.412C656.19 44.412 657.1 43.424 657.1 41.942V39.108C657.1 37.626 656.19 36.638 653.59 36.638C650.99 36.638 650.08 37.626 650.08 39.108V41.942ZM655.592 41.89C655.592 42.67 655.072 43.164 653.59 43.164C652.108 43.164 651.588 42.67 651.588 41.89V39.16C651.588 38.406 652.108 37.886 653.59 37.886C655.072 37.886 655.592 38.406 655.592 39.16V41.89ZM664.432 52.186C664.432 52.992 663.912 53.486 662.456 53.486C660.974 53.486 660.454 52.992 660.454 52.186V49.482C660.454 48.702 660.974 48.208 662.456 48.208C663.912 48.208 664.432 48.702 664.432 49.482V52.186ZM658.92 52.264C658.92 53.746 659.83 54.734 662.456 54.734C665.056 54.734 665.966 53.746 665.966 52.264V49.43C665.966 47.948 665.056 46.96 662.456 46.96C659.83 46.96 658.92 47.948 658.92 49.43V52.264ZM662.768 37.21C662.872 37.002 662.82 36.82 662.56 36.82H661.676C661.39 36.82 661.234 37.002 661.13 37.21L653.226 54.11C653.148 54.266 653.174 54.5 653.408 54.5H654.344C654.604 54.5 654.76 54.396 654.89 54.11L662.768 37.21ZM676.418 41.708L675.014 41.786C674.754 41.812 674.65 41.916 674.65 42.176V42.8C674.65 43.06 674.754 43.19 675.014 43.19H676.626V54.11C676.626 54.37 676.756 54.5 677.016 54.5H678.056C678.342 54.5 678.446 54.37 678.446 54.11V43.19H681.28C681.54 43.19 681.67 43.06 681.67 42.8V42.072C681.67 41.812 681.54 41.708 681.28 41.708H678.446V39.654C678.446 38.458 679.174 37.678 681.488 37.678H681.644C681.904 37.678 682.034 37.548 682.034 37.288V36.508C682.034 36.248 681.904 36.144 681.644 36.144H681.488C677.926 36.144 676.626 37.496 676.626 39.472V41.708H676.418ZM683.866 51.354C683.866 53.356 685.192 54.708 688.754 54.708C692.316 54.708 693.668 53.356 693.668 51.354V44.802C693.668 42.8 692.316 41.448 688.754 41.448C685.192 41.448 683.866 42.8 683.866 44.802V51.354ZM691.874 51.224C691.874 52.446 691.068 53.226 688.754 53.226C686.466 53.226 685.66 52.446 685.66 51.224V44.932C685.66 43.71 686.466 42.93 688.754 42.93C691.068 42.93 691.874 43.71 691.874 44.932V51.224ZM705.256 54.11C705.282 54.396 705.36 54.5 705.646 54.5H706.608C706.868 54.5 706.972 54.396 706.972 54.11V42.046C706.972 41.786 706.868 41.656 706.608 41.656H705.542C705.282 41.656 705.178 41.786 705.178 42.046V51.666C704.606 52.134 703.332 53.096 701.434 53.096C699.77 53.096 699.12 52.316 699.12 51.12V42.046C699.12 41.786 699.016 41.656 698.756 41.656H697.69C697.43 41.656 697.326 41.786 697.326 42.046V51.536C697.326 53.382 698.522 54.708 700.94 54.708C703.124 54.708 704.502 53.772 705.204 53.174L705.256 54.11ZM712.417 41.656H711.481C711.195 41.656 711.091 41.786 711.091 42.046V54.11C711.091 54.37 711.195 54.5 711.481 54.5H712.521C712.781 54.5 712.885 54.37 712.885 54.11V44.516C713.483 44.048 714.887 43.06 716.811 43.06C718.475 43.06 719.099 43.866 719.099 45.036V54.11C719.099 54.37 719.229 54.5 719.489 54.5H720.529C720.789 54.5 720.893 54.37 720.893 54.11V44.646C720.893 42.8 719.723 41.448 717.305 41.448C715.095 41.448 713.587 42.41 712.859 43.034L712.807 42.046C712.781 41.786 712.703 41.656 712.417 41.656ZM732.653 54.11C732.679 54.37 732.757 54.5 733.043 54.5H733.979C734.265 54.5 734.369 54.37 734.369 54.11V36.716C734.369 36.456 734.265 36.326 733.979 36.326H732.939C732.653 36.326 732.575 36.456 732.575 36.716V42.982C731.795 42.41 730.339 41.448 728.181 41.448C725.685 41.448 724.567 42.8 724.567 44.776V51.38C724.567 53.356 725.685 54.708 728.181 54.708C730.365 54.708 731.847 53.746 732.601 53.148L732.653 54.11ZM726.361 45.036C726.361 43.97 726.985 43.086 728.649 43.086C730.573 43.086 731.977 44.1 732.575 44.568V51.614C731.977 52.056 730.573 53.07 728.649 53.07C726.985 53.07 726.361 52.186 726.361 51.12V45.036ZM747.692 44.802C747.692 42.8 746.548 41.448 742.986 41.448C739.398 41.448 738.202 42.8 738.202 44.802V51.354C738.202 53.356 739.372 54.708 742.934 54.708C746.522 54.708 747.692 53.356 747.692 51.354V50.808C747.692 50.548 747.562 50.444 747.302 50.444H746.366C746.106 50.444 746.002 50.548 746.002 50.808V51.25C746.002 52.446 745.378 53.252 742.986 53.252C740.594 53.252 739.97 52.446 739.97 51.25V48.364H747.328C747.588 48.364 747.692 48.234 747.692 48V44.802ZM739.97 44.906C739.97 43.736 740.646 42.904 742.986 42.904C745.274 42.904 746.002 43.736 746.002 44.906V46.986H739.97V44.906ZM757.316 41.448C755.392 41.448 753.806 42.644 753.078 43.32L753 42.046C752.974 41.786 752.896 41.656 752.61 41.656H751.674C751.388 41.656 751.284 41.786 751.284 42.046V54.11C751.284 54.37 751.388 54.5 751.674 54.5H752.714C752.974 54.5 753.078 54.37 753.078 54.11V44.828C753.702 44.308 755.366 43.164 757.316 43.086C757.576 43.086 757.732 42.956 757.732 42.696V41.838C757.732 41.578 757.576 41.448 757.316 41.448ZM771.652 44.386C768.896 44.386 768.246 43.502 768.246 41.968V40.616C768.246 39.108 768.948 38.146 771.574 38.146C774.2 38.146 774.928 39.108 774.928 40.616V40.954C774.928 41.214 775.032 41.318 775.292 41.318H776.358C776.644 41.318 776.748 41.214 776.748 40.954V40.382C776.748 38.302 775.708 36.612 771.574 36.612C767.466 36.612 766.426 38.25 766.426 40.33V42.228C766.426 43.684 766.894 44.672 768.662 45.114C766.712 45.582 766.244 46.648 766.244 48.13V50.99C766.244 53.07 767.7 54.708 772.146 54.708C776.592 54.708 778.074 53.018 778.074 50.938V45.92H780.024C780.284 45.92 780.414 45.816 780.414 45.556V44.776C780.414 44.49 780.284 44.386 780.024 44.386H771.652ZM772.172 53.174C769.26 53.174 768.064 52.212 768.064 50.704V48.338C768.064 46.804 768.714 45.92 771.47 45.92H776.28V50.704C776.28 52.212 775.058 53.174 772.172 53.174ZM793.791 41.448C790.229 41.448 789.059 42.8 789.059 44.802V51.354C789.059 53.356 790.203 54.708 793.765 54.708C797.327 54.708 798.523 53.356 798.523 51.354V50.652C798.523 50.366 798.419 50.262 798.133 50.262H797.171C796.885 50.262 796.781 50.366 796.781 50.652V51.224C796.781 52.446 796.131 53.226 793.817 53.226C791.503 53.226 790.853 52.446 790.853 51.224V44.906C790.853 43.71 791.503 42.93 793.817 42.93C796.131 42.93 796.781 43.71 796.781 44.906V45.296C796.781 45.556 796.885 45.686 797.171 45.686H798.133C798.419 45.686 798.523 45.556 798.523 45.296V44.802C798.523 42.8 797.353 41.448 793.791 41.448ZM801.5 51.354C801.5 53.356 802.826 54.708 806.388 54.708C809.95 54.708 811.302 53.356 811.302 51.354V44.802C811.302 42.8 809.95 41.448 806.388 41.448C802.826 41.448 801.5 42.8 801.5 44.802V51.354ZM809.508 51.224C809.508 52.446 808.702 53.226 806.388 53.226C804.1 53.226 803.294 52.446 803.294 51.224V44.932C803.294 43.71 804.1 42.93 806.388 42.93C808.702 42.93 809.508 43.71 809.508 44.932V51.224Z" fill="white"/>
<path d="M668.25 278.148C667.964 278.148 667.834 278.252 667.834 278.538V279.344C667.834 279.63 667.964 279.734 668.25 279.734H677.168L670.512 295.438C670.408 295.698 670.486 295.828 670.798 295.828H672.072C672.332 295.828 672.462 295.646 672.54 295.438L679.196 279.656C679.222 279.578 679.274 279.448 679.274 279.318V278.538C679.274 278.252 679.17 278.148 678.91 278.148H668.25ZM682.732 283.27C682.732 284.752 683.642 285.74 686.242 285.74C688.842 285.74 689.752 284.752 689.752 283.27V280.436C689.752 278.954 688.842 277.966 686.242 277.966C683.642 277.966 682.732 278.954 682.732 280.436V283.27ZM688.244 283.218C688.244 283.998 687.724 284.492 686.242 284.492C684.76 284.492 684.24 283.998 684.24 283.218V280.488C684.24 279.734 684.76 279.214 686.242 279.214C687.724 279.214 688.244 279.734 688.244 280.488V283.218ZM697.084 293.514C697.084 294.32 696.564 294.814 695.108 294.814C693.626 294.814 693.106 294.32 693.106 293.514V290.81C693.106 290.03 693.626 289.536 695.108 289.536C696.564 289.536 697.084 290.03 697.084 290.81V293.514ZM691.572 293.592C691.572 295.074 692.482 296.062 695.108 296.062C697.708 296.062 698.618 295.074 698.618 293.592V290.758C698.618 289.276 697.708 288.288 695.108 288.288C692.482 288.288 691.572 289.276 691.572 290.758V293.592ZM695.42 278.538C695.524 278.33 695.472 278.148 695.212 278.148H694.328C694.042 278.148 693.886 278.33 693.782 278.538L685.878 295.438C685.8 295.594 685.826 295.828 686.06 295.828H686.996C687.256 295.828 687.412 295.724 687.542 295.438L695.42 278.538ZM709.954 295.828C710.24 295.828 710.318 295.698 710.344 295.438L710.396 294.476C711.124 295.074 712.606 296.036 714.842 296.036C717.312 296.036 718.43 294.684 718.43 292.708V286.104C718.43 284.128 717.312 282.776 714.842 282.776C712.632 282.776 711.176 283.738 710.422 284.31V278.044C710.422 277.784 710.318 277.654 710.058 277.654H709.018C708.732 277.654 708.628 277.784 708.628 278.044V295.438C708.628 295.698 708.732 295.828 709.018 295.828H709.954ZM716.636 292.448C716.636 293.514 716.038 294.398 714.348 294.398C712.398 294.398 711.02 293.384 710.422 292.942V285.896C711.02 285.428 712.398 284.414 714.348 284.414C716.038 284.414 716.636 285.298 716.636 286.364V292.448ZM721.977 292.682C721.977 294.684 723.303 296.036 726.865 296.036C730.427 296.036 731.779 294.684 731.779 292.682V286.13C731.779 284.128 730.427 282.776 726.865 282.776C723.303 282.776 721.977 284.128 721.977 286.13V292.682ZM729.985 292.552C729.985 293.774 729.179 294.554 726.865 294.554C724.577 294.554 723.771 293.774 723.771 292.552V286.26C723.771 285.038 724.577 284.258 726.865 284.258C729.179 284.258 729.985 285.038 729.985 286.26V292.552ZM743.367 295.438C743.393 295.724 743.471 295.828 743.757 295.828H744.719C744.979 295.828 745.083 295.724 745.083 295.438V283.374C745.083 283.114 744.979 282.984 744.719 282.984H743.653C743.393 282.984 743.289 283.114 743.289 283.374V292.994C742.717 293.462 741.443 294.424 739.545 294.424C737.881 294.424 737.231 293.644 737.231 292.448V283.374C737.231 283.114 737.127 282.984 736.867 282.984H735.801C735.541 282.984 735.437 283.114 735.437 283.374V292.864C735.437 294.71 736.633 296.036 739.051 296.036C741.235 296.036 742.613 295.1 743.315 294.502L743.367 295.438ZM750.528 282.984H749.592C749.306 282.984 749.202 283.114 749.202 283.374V295.438C749.202 295.698 749.306 295.828 749.592 295.828H750.632C750.892 295.828 750.996 295.698 750.996 295.438V285.844C751.594 285.376 752.998 284.388 754.922 284.388C756.586 284.388 757.21 285.194 757.21 286.364V295.438C757.21 295.698 757.34 295.828 757.6 295.828H758.64C758.9 295.828 759.004 295.698 759.004 295.438V285.974C759.004 284.128 757.834 282.776 755.416 282.776C753.206 282.776 751.698 283.738 750.97 284.362L750.918 283.374C750.892 283.114 750.814 282.984 750.528 282.984ZM765.33 283.036V280.28C765.33 280.02 765.226 279.89 764.966 279.89H763.9C763.64 279.89 763.51 280.02 763.51 280.28V283.036H763.302L761.95 283.114C761.69 283.14 761.586 283.244 761.586 283.504V284.128C761.586 284.388 761.69 284.518 761.95 284.518H763.51V292.474C763.51 294.58 764.55 295.828 768.112 295.828H768.788C769.048 295.828 769.178 295.724 769.178 295.438V294.684C769.178 294.398 769.048 294.294 768.788 294.294H768.346C766.032 294.294 765.33 293.514 765.33 292.292V284.518H768.242C768.502 284.518 768.632 284.388 768.632 284.128V283.4C768.632 283.14 768.502 283.036 768.242 283.036H765.33ZM772.238 283.374C772.16 283.14 772.056 282.984 771.796 282.984H770.73C770.47 282.984 770.314 283.14 770.392 283.374L774.734 295.932L773.174 300.82C773.096 301.054 773.226 301.21 773.486 301.21H774.292C774.552 301.21 774.656 301.028 774.734 300.82L780.688 283.374C780.766 283.14 780.636 282.984 780.35 282.984H779.362C779.102 282.984 778.998 283.14 778.92 283.374L775.956 292.058C775.774 292.604 775.566 293.462 775.54 293.566C775.514 293.488 775.41 292.734 775.176 292.006L772.238 283.374ZM794.605 285.714C791.849 285.714 791.199 284.83 791.199 283.296V281.944C791.199 280.436 791.901 279.474 794.527 279.474C797.153 279.474 797.881 280.436 797.881 281.944V282.282C797.881 282.542 797.985 282.646 798.245 282.646H799.311C799.597 282.646 799.701 282.542 799.701 282.282V281.71C799.701 279.63 798.661 277.94 794.527 277.94C790.419 277.94 789.379 279.578 789.379 281.658V283.556C789.379 285.012 789.847 286 791.615 286.442C789.665 286.91 789.197 287.976 789.197 289.458V292.318C789.197 294.398 790.653 296.036 795.099 296.036C799.545 296.036 801.027 294.346 801.027 292.266V287.248H802.977C803.237 287.248 803.367 287.144 803.367 286.884V286.104C803.367 285.818 803.237 285.714 802.977 285.714H794.605ZM795.125 294.502C792.213 294.502 791.017 293.54 791.017 292.032V289.666C791.017 288.132 791.667 287.248 794.423 287.248H799.233V292.032C799.233 293.54 798.011 294.502 795.125 294.502ZM818.33 282.776C816.406 282.776 814.82 283.972 814.092 284.648L814.014 283.374C813.988 283.114 813.91 282.984 813.624 282.984H812.688C812.402 282.984 812.298 283.114 812.298 283.374V295.438C812.298 295.698 812.402 295.828 812.688 295.828H813.728C813.988 295.828 814.092 295.698 814.092 295.438V286.156C814.716 285.636 816.38 284.492 818.33 284.414C818.59 284.414 818.746 284.284 818.746 284.024V283.166C818.746 282.906 818.59 282.776 818.33 282.776ZM830.465 286.13C830.465 284.128 829.321 282.776 825.759 282.776C822.171 282.776 820.975 284.128 820.975 286.13V292.682C820.975 294.684 822.145 296.036 825.707 296.036C829.295 296.036 830.465 294.684 830.465 292.682V292.136C830.465 291.876 830.335 291.772 830.075 291.772H829.139C828.879 291.772 828.775 291.876 828.775 292.136V292.578C828.775 293.774 828.151 294.58 825.759 294.58C823.367 294.58 822.743 293.774 822.743 292.578V289.692H830.101C830.361 289.692 830.465 289.562 830.465 289.328V286.13ZM822.743 286.234C822.743 285.064 823.419 284.232 825.759 284.232C828.047 284.232 828.775 285.064 828.775 286.234V288.314H822.743V286.234ZM848.566 283.374C848.644 283.14 848.514 282.984 848.254 282.984H847.37C847.11 282.984 847.006 283.14 846.928 283.374L844.51 292.422C844.354 292.942 844.25 293.384 844.25 293.436L844.016 292.422L841.676 283.374C841.624 283.14 841.494 282.984 841.26 282.984H840.142C839.882 282.984 839.778 283.14 839.7 283.374L837.204 292.422C837.074 292.89 836.944 293.384 836.944 293.462C836.918 293.384 836.84 292.864 836.736 292.422L834.292 283.374C834.24 283.14 834.11 282.984 833.876 282.984H832.836C832.55 282.984 832.394 283.14 832.472 283.374L835.748 295.464C835.826 295.724 835.904 295.828 836.164 295.828H837.36C837.62 295.828 837.698 295.698 837.776 295.464L840.272 286.702L840.584 285.454C840.61 285.584 840.714 286.208 840.844 286.676L843.132 295.464C843.184 295.698 843.288 295.828 843.548 295.828H844.796C845.03 295.828 845.108 295.724 845.186 295.464L848.566 283.374ZM850.938 286.52C850.938 286.806 851.042 286.936 851.302 286.936H852.238C852.524 286.936 852.628 286.806 852.628 286.52V286.208C852.628 285.038 853.278 284.258 855.592 284.258C857.906 284.258 858.53 285.09 858.53 286.26V288.6H854.058C851.796 288.6 850.678 289.978 850.678 291.668V292.968C850.678 294.658 851.848 296.036 854.266 296.036C856.346 296.036 857.802 295.1 858.556 294.502L858.608 295.438C858.634 295.698 858.712 295.828 858.998 295.828H859.934C860.194 295.828 860.298 295.698 860.298 295.438V286.078C860.298 284.128 859.18 282.776 855.618 282.776C852.108 282.776 850.938 284.128 850.938 286.078V286.52ZM854.682 294.528C853.122 294.528 852.42 293.878 852.42 292.734V291.902C852.42 290.758 852.992 290.03 854.396 290.03H858.53V293.072C857.932 293.54 856.554 294.528 854.682 294.528ZM870.279 282.776C868.355 282.776 866.769 283.972 866.041 284.648L865.963 283.374C865.937 283.114 865.859 282.984 865.573 282.984H864.637C864.351 282.984 864.247 283.114 864.247 283.374V295.438C864.247 295.698 864.351 295.828 864.637 295.828H865.677C865.937 295.828 866.041 295.698 866.041 295.438V286.156C866.665 285.636 868.329 284.492 870.279 284.414C870.539 284.414 870.695 284.284 870.695 284.024V283.166C870.695 282.906 870.539 282.776 870.279 282.776ZM881.01 295.438C881.036 295.698 881.114 295.828 881.4 295.828H882.336C882.622 295.828 882.726 295.698 882.726 295.438V278.044C882.726 277.784 882.622 277.654 882.336 277.654H881.296C881.01 277.654 880.932 277.784 880.932 278.044V284.31C880.152 283.738 878.696 282.776 876.538 282.776C874.042 282.776 872.924 284.128 872.924 286.104V292.708C872.924 294.684 874.042 296.036 876.538 296.036C878.722 296.036 880.204 295.074 880.958 294.476L881.01 295.438ZM874.718 286.364C874.718 285.298 875.342 284.414 877.006 284.414C878.93 284.414 880.334 285.428 880.932 285.896V292.942C880.334 293.384 878.93 294.398 877.006 294.398C875.342 294.398 874.718 293.514 874.718 292.448V286.364ZM893.813 286.494C893.813 286.728 893.917 286.832 894.151 286.832H895.113C895.373 286.832 895.477 286.728 895.477 286.494V285.74C895.477 284.18 894.255 282.776 890.953 282.776C887.625 282.776 886.455 284.18 886.455 285.74V286.754C886.455 288.054 887.547 288.964 888.457 289.276L892.461 290.602C893.345 290.888 893.995 291.278 893.995 292.058V293.02C893.995 294.06 892.903 294.658 890.927 294.658C888.925 294.658 887.885 294.06 887.885 293.02V292.396C887.885 292.162 887.807 292.032 887.547 292.032H886.585C886.325 292.032 886.221 292.162 886.221 292.396V293.098C886.221 294.658 887.573 296.036 890.927 296.036C894.255 296.036 895.659 294.658 895.659 293.098V291.616C895.659 290.394 894.723 289.562 893.423 289.146L889.419 287.846C888.847 287.664 888.093 287.222 888.093 286.416V285.74C888.093 284.726 889.003 284.128 890.927 284.128C892.877 284.128 893.813 284.726 893.813 285.74V286.494Z" fill="#1DA854"/>
<path d="M41.746 475.689C41.746 473.609 40.706 471.893 36.494 471.893C32.256 471.893 31.216 473.609 31.216 475.689V478.835C31.216 480.915 32.308 482.631 36.26 482.631C38.236 482.631 39.354 482.137 39.9 481.357V486.089C39.9 487.389 39.276 488.455 36.546 488.455C33.816 488.455 33.218 487.337 33.218 486.089V485.855C33.218 485.595 33.114 485.465 32.854 485.465H31.788C31.528 485.465 31.424 485.595 31.424 485.855V486.323C31.424 488.117 32.36 489.989 36.546 489.989C40.784 489.989 41.746 488.143 41.746 486.323V475.689ZM39.9 475.923V478.731C39.9 480.187 39.094 481.097 36.494 481.097C33.738 481.097 33.036 480.109 33.036 478.601V475.923C33.036 474.415 33.738 473.427 36.494 473.427C39.224 473.427 39.9 474.415 39.9 475.923ZM45.7498 477.223C45.7498 478.705 46.6598 479.693 49.2598 479.693C51.8598 479.693 52.7698 478.705 52.7698 477.223V474.389C52.7698 472.907 51.8598 471.919 49.2598 471.919C46.6598 471.919 45.7498 472.907 45.7498 474.389V477.223ZM51.2618 477.171C51.2618 477.951 50.7418 478.445 49.2598 478.445C47.7778 478.445 47.2578 477.951 47.2578 477.171V474.441C47.2578 473.687 47.7778 473.167 49.2598 473.167C50.7418 473.167 51.2618 473.687 51.2618 474.441V477.171ZM60.1018 487.467C60.1018 488.273 59.5818 488.767 58.1258 488.767C56.6438 488.767 56.1238 488.273 56.1238 487.467V484.763C56.1238 483.983 56.6438 483.489 58.1258 483.489C59.5818 483.489 60.1018 483.983 60.1018 484.763V487.467ZM54.5898 487.545C54.5898 489.027 55.4998 490.015 58.1258 490.015C60.7258 490.015 61.6358 489.027 61.6358 487.545V484.711C61.6358 483.229 60.7258 482.241 58.1258 482.241C55.4998 482.241 54.5898 483.229 54.5898 484.711V487.545ZM58.4378 472.491C58.5418 472.283 58.4898 472.101 58.2298 472.101H57.3458C57.0598 472.101 56.9038 472.283 56.7998 472.491L48.8958 489.391C48.8178 489.547 48.8438 489.781 49.0778 489.781H50.0138C50.2738 489.781 50.4298 489.677 50.5598 489.391L58.4378 472.491ZM76.0918 476.729C72.5298 476.729 71.3598 478.081 71.3598 480.083V486.635C71.3598 488.637 72.5038 489.989 76.0658 489.989C79.6278 489.989 80.8238 488.637 80.8238 486.635V485.933C80.8238 485.647 80.7198 485.543 80.4338 485.543H79.4718C79.1858 485.543 79.0818 485.647 79.0818 485.933V486.505C79.0818 487.727 78.4318 488.507 76.1178 488.507C73.8038 488.507 73.1538 487.727 73.1538 486.505V480.187C73.1538 478.991 73.8038 478.211 76.1178 478.211C78.4318 478.211 79.0818 478.991 79.0818 480.187V480.577C79.0818 480.837 79.1858 480.967 79.4718 480.967H80.4338C80.7198 480.967 80.8238 480.837 80.8238 480.577V480.083C80.8238 478.081 79.6538 476.729 76.0918 476.729ZM83.8012 486.635C83.8012 488.637 85.1272 489.989 88.6892 489.989C92.2512 489.989 93.6032 488.637 93.6032 486.635V480.083C93.6032 478.081 92.2512 476.729 88.6892 476.729C85.1272 476.729 83.8012 478.081 83.8012 480.083V486.635ZM91.8092 486.505C91.8092 487.727 91.0032 488.507 88.6892 488.507C86.4012 488.507 85.5952 487.727 85.5952 486.505V480.213C85.5952 478.991 86.4012 478.211 88.6892 478.211C91.0032 478.211 91.8092 478.991 91.8092 480.213V486.505ZM97.8073 476.937C97.5213 476.937 97.4173 477.067 97.4173 477.327V489.391C97.4173 489.651 97.5213 489.781 97.8073 489.781H98.8473C99.1073 489.781 99.2113 489.651 99.2113 489.391V479.797C99.7573 479.329 101.057 478.341 102.981 478.341C104.645 478.341 105.269 479.147 105.269 480.317V489.391C105.269 489.651 105.399 489.781 105.659 489.781H106.699C106.959 489.781 107.063 489.651 107.063 489.391V480.317C107.063 480.161 107.063 479.979 107.037 479.849C107.531 479.381 108.831 478.341 110.833 478.341C112.497 478.341 113.121 479.147 113.121 480.317V489.391C113.121 489.651 113.251 489.781 113.511 489.781H114.551C114.811 489.781 114.941 489.651 114.941 489.391V479.927C114.941 478.081 113.745 476.729 111.327 476.729C108.831 476.729 107.427 477.951 106.777 478.497C106.309 477.431 105.217 476.729 103.475 476.729C101.265 476.729 99.8613 477.691 99.1593 478.289L99.1333 477.327C99.1333 477.067 99.0293 476.937 98.7433 476.937H97.8073ZM120.224 476.937H119.288C119.002 476.937 118.898 477.067 118.898 477.327V494.773C118.898 495.033 119.002 495.137 119.288 495.137H120.328C120.588 495.137 120.692 495.033 120.692 494.773V488.481C121.446 489.053 122.928 489.989 125.112 489.989C127.582 489.989 128.7 488.637 128.7 486.661V480.057C128.7 478.081 127.582 476.729 125.112 476.729C122.876 476.729 121.394 477.717 120.666 478.315L120.614 477.327C120.588 477.067 120.51 476.937 120.224 476.937ZM126.906 486.401C126.906 487.467 126.308 488.351 124.618 488.351C122.668 488.351 121.29 487.337 120.692 486.895V479.849C121.29 479.381 122.668 478.367 124.618 478.367C126.308 478.367 126.906 479.251 126.906 480.317V486.401ZM132.351 480.473C132.351 480.759 132.455 480.889 132.715 480.889H133.651C133.937 480.889 134.041 480.759 134.041 480.473V480.161C134.041 478.991 134.691 478.211 137.005 478.211C139.319 478.211 139.943 479.043 139.943 480.213V482.553H135.471C133.209 482.553 132.091 483.931 132.091 485.621V486.921C132.091 488.611 133.261 489.989 135.679 489.989C137.759 489.989 139.215 489.053 139.969 488.455L140.021 489.391C140.047 489.651 140.125 489.781 140.411 489.781H141.347C141.607 489.781 141.711 489.651 141.711 489.391V480.031C141.711 478.081 140.593 476.729 137.031 476.729C133.521 476.729 132.351 478.081 132.351 480.031V480.473ZM136.095 488.481C134.535 488.481 133.833 487.831 133.833 486.687V485.855C133.833 484.711 134.405 483.983 135.809 483.983H139.943V487.025C139.345 487.493 137.967 488.481 136.095 488.481ZM146.985 476.937H146.049C145.763 476.937 145.659 477.067 145.659 477.327V489.391C145.659 489.651 145.763 489.781 146.049 489.781H147.089C147.349 489.781 147.453 489.651 147.453 489.391V479.797C148.051 479.329 149.455 478.341 151.379 478.341C153.043 478.341 153.667 479.147 153.667 480.317V489.391C153.667 489.651 153.797 489.781 154.057 489.781H155.097C155.357 489.781 155.461 489.651 155.461 489.391V479.927C155.461 478.081 154.291 476.729 151.873 476.729C149.663 476.729 148.155 477.691 147.427 478.315L147.375 477.327C147.349 477.067 147.271 476.937 146.985 476.937ZM159.681 477.327C159.603 477.093 159.499 476.937 159.239 476.937H158.173C157.913 476.937 157.757 477.093 157.835 477.327L162.177 489.885L160.617 494.773C160.539 495.007 160.669 495.163 160.929 495.163H161.735C161.995 495.163 162.099 494.981 162.177 494.773L168.131 477.327C168.209 477.093 168.079 476.937 167.793 476.937H166.805C166.545 476.937 166.441 477.093 166.363 477.327L163.399 486.011C163.217 486.557 163.009 487.415 162.983 487.519C162.957 487.441 162.853 486.687 162.619 485.959L159.681 477.327ZM185.662 480.083C185.662 478.081 184.518 476.729 180.956 476.729C177.368 476.729 176.172 478.081 176.172 480.083V486.635C176.172 488.637 177.342 489.989 180.904 489.989C184.492 489.989 185.662 488.637 185.662 486.635V486.089C185.662 485.829 185.532 485.725 185.272 485.725H184.336C184.076 485.725 183.972 485.829 183.972 486.089V486.531C183.972 487.727 183.348 488.533 180.956 488.533C178.564 488.533 177.94 487.727 177.94 486.531V483.645H185.298C185.558 483.645 185.662 483.515 185.662 483.281V480.083ZM177.94 480.187C177.94 479.017 178.616 478.185 180.956 478.185C183.244 478.185 183.972 479.017 183.972 480.187V482.267H177.94V480.187ZM194.118 483.307L198.148 477.327C198.304 477.119 198.226 476.937 197.966 476.937H196.926C196.64 476.937 196.484 477.119 196.354 477.327L193.26 482.007L190.036 477.327C189.88 477.119 189.724 476.937 189.464 476.937H188.268C188.008 476.937 187.93 477.119 188.086 477.327L192.116 483.255L187.956 489.391C187.826 489.599 187.904 489.781 188.164 489.781H189.204C189.49 489.781 189.646 489.599 189.776 489.391L193 484.555L196.354 489.391C196.484 489.599 196.64 489.781 196.926 489.781H198.096C198.356 489.781 198.434 489.599 198.304 489.391L194.118 483.307ZM202.591 476.937H201.655C201.369 476.937 201.265 477.067 201.265 477.327V494.773C201.265 495.033 201.369 495.137 201.655 495.137H202.695C202.955 495.137 203.059 495.033 203.059 494.773V488.481C203.813 489.053 205.295 489.989 207.479 489.989C209.949 489.989 211.067 488.637 211.067 486.661V480.057C211.067 478.081 209.949 476.729 207.479 476.729C205.243 476.729 203.761 477.717 203.033 478.315L202.981 477.327C202.955 477.067 202.877 476.937 202.591 476.937ZM209.273 486.401C209.273 487.467 208.675 488.351 206.985 488.351C205.035 488.351 203.657 487.337 203.059 486.895V479.849C203.657 479.381 205.035 478.367 206.985 478.367C208.675 478.367 209.273 479.251 209.273 480.317V486.401ZM214.718 480.473C214.718 480.759 214.822 480.889 215.082 480.889H216.018C216.304 480.889 216.408 480.759 216.408 480.473V480.161C216.408 478.991 217.058 478.211 219.372 478.211C221.686 478.211 222.31 479.043 222.31 480.213V482.553H217.838C215.576 482.553 214.458 483.931 214.458 485.621V486.921C214.458 488.611 215.628 489.989 218.046 489.989C220.126 489.989 221.582 489.053 222.336 488.455L222.388 489.391C222.414 489.651 222.492 489.781 222.778 489.781H223.714C223.974 489.781 224.078 489.651 224.078 489.391V480.031C224.078 478.081 222.96 476.729 219.398 476.729C215.888 476.729 214.718 478.081 214.718 480.031V480.473ZM218.462 488.481C216.902 488.481 216.2 487.831 216.2 486.687V485.855C216.2 484.711 216.772 483.983 218.176 483.983H222.31V487.025C221.712 487.493 220.334 488.481 218.462 488.481ZM229.353 476.937H228.417C228.131 476.937 228.027 477.067 228.027 477.327V489.391C228.027 489.651 228.131 489.781 228.417 489.781H229.457C229.717 489.781 229.821 489.651 229.821 489.391V479.797C230.419 479.329 231.823 478.341 233.747 478.341C235.411 478.341 236.035 479.147 236.035 480.317V489.391C236.035 489.651 236.165 489.781 236.425 489.781H237.465C237.725 489.781 237.829 489.651 237.829 489.391V479.927C237.829 478.081 236.659 476.729 234.241 476.729C232.031 476.729 230.523 477.691 229.795 478.315L229.743 477.327C229.717 477.067 229.639 476.937 229.353 476.937ZM249.588 489.391C249.614 489.651 249.692 489.781 249.978 489.781H250.914C251.2 489.781 251.304 489.651 251.304 489.391V471.997C251.304 471.737 251.2 471.607 250.914 471.607H249.874C249.588 471.607 249.51 471.737 249.51 471.997V478.263C248.73 477.691 247.274 476.729 245.116 476.729C242.62 476.729 241.502 478.081 241.502 480.057V486.661C241.502 488.637 242.62 489.989 245.116 489.989C247.3 489.989 248.782 489.027 249.536 488.429L249.588 489.391ZM243.296 480.317C243.296 479.251 243.92 478.367 245.584 478.367C247.508 478.367 248.912 479.381 249.51 479.849V486.895C248.912 487.337 247.508 488.351 245.584 488.351C243.92 488.351 243.296 487.467 243.296 486.401V480.317ZM257.217 477.327C257.217 477.067 257.113 476.937 256.853 476.937H255.813C255.527 476.937 255.423 477.067 255.423 477.327V489.391C255.423 489.651 255.527 489.781 255.813 489.781H256.853C257.113 489.781 257.217 489.651 257.217 489.391V477.327ZM257.217 471.997C257.217 471.737 257.113 471.607 256.853 471.607H255.813C255.527 471.607 255.423 471.737 255.423 471.997V474.415C255.423 474.675 255.527 474.805 255.813 474.805H256.853C257.113 474.805 257.217 474.675 257.217 474.415V471.997ZM262.665 476.937H261.729C261.443 476.937 261.339 477.067 261.339 477.327V489.391C261.339 489.651 261.443 489.781 261.729 489.781H262.769C263.029 489.781 263.133 489.651 263.133 489.391V479.797C263.731 479.329 265.135 478.341 267.059 478.341C268.723 478.341 269.347 479.147 269.347 480.317V489.391C269.347 489.651 269.477 489.781 269.737 489.781H270.777C271.037 489.781 271.141 489.651 271.141 489.391V479.927C271.141 478.081 269.971 476.729 267.553 476.729C265.343 476.729 263.835 477.691 263.107 478.315L263.055 477.327C263.029 477.067 262.951 476.937 262.665 476.937ZM278.429 489.989C280.587 489.989 282.043 489.053 282.823 488.481V491.627C282.823 492.823 282.069 493.629 279.755 493.629H276.219C275.959 493.629 275.829 493.733 275.829 493.993V494.773C275.829 495.033 275.959 495.137 276.219 495.137H279.755C283.317 495.137 284.617 493.785 284.617 491.783V477.327C284.617 477.067 284.513 476.937 284.227 476.937H283.291C283.005 476.937 282.927 477.067 282.901 477.327L282.849 478.315C282.121 477.717 280.613 476.729 278.429 476.729C275.933 476.729 274.815 478.081 274.815 480.057V486.661C274.815 488.637 275.933 489.989 278.429 489.989ZM276.609 480.317C276.609 479.251 277.233 478.367 278.897 478.367C280.821 478.367 282.225 479.381 282.823 479.849V486.895C282.225 487.337 280.821 488.351 278.897 488.351C277.233 488.351 276.609 487.467 276.609 486.401V480.317Z" fill="white"/>
<path d="M170.043 585.617V582.315C170.043 581.171 171.135 580.781 171.759 580.599L176.179 579.195C177.011 578.935 178.519 578.077 178.519 575.997V573.111C178.519 571.031 177.401 569.315 173.189 569.315C169.003 569.315 167.937 571.031 167.937 573.111V574.593C167.937 574.879 168.041 575.009 168.327 575.009H169.367C169.627 575.009 169.731 574.879 169.731 574.593V573.397C169.731 571.863 170.485 570.875 173.189 570.875C175.945 570.875 176.673 571.863 176.673 573.397V576.023C176.673 577.219 175.659 577.687 175.165 577.843L170.329 579.455C169.627 579.689 168.197 580.209 168.197 581.795V586.813C168.197 587.099 168.301 587.203 168.561 587.203H178.207C178.467 587.203 178.597 587.099 178.597 586.813V585.981C178.597 585.721 178.467 585.617 178.207 585.617H170.043ZM182.289 574.645C182.289 576.127 183.199 577.115 185.799 577.115C188.399 577.115 189.309 576.127 189.309 574.645V571.811C189.309 570.329 188.399 569.341 185.799 569.341C183.199 569.341 182.289 570.329 182.289 571.811V574.645ZM187.801 574.593C187.801 575.373 187.281 575.867 185.799 575.867C184.317 575.867 183.797 575.373 183.797 574.593V571.863C183.797 571.109 184.317 570.589 185.799 570.589C187.281 570.589 187.801 571.109 187.801 571.863V574.593ZM196.641 584.889C196.641 585.695 196.121 586.189 194.665 586.189C193.183 586.189 192.663 585.695 192.663 584.889V582.185C192.663 581.405 193.183 580.911 194.665 580.911C196.121 580.911 196.641 581.405 196.641 582.185V584.889ZM191.129 584.967C191.129 586.449 192.039 587.437 194.665 587.437C197.265 587.437 198.175 586.449 198.175 584.967V582.133C198.175 580.651 197.265 579.663 194.665 579.663C192.039 579.663 191.129 580.651 191.129 582.133V584.967ZM194.977 569.913C195.081 569.705 195.029 569.523 194.769 569.523H193.885C193.599 569.523 193.443 569.705 193.339 569.913L185.435 586.813C185.357 586.969 185.383 587.203 185.617 587.203H186.553C186.813 587.203 186.969 587.099 187.099 586.813L194.977 569.913ZM209.979 569.419C209.979 569.159 209.875 569.029 209.615 569.029H208.575C208.289 569.029 208.185 569.159 208.185 569.419V586.813C208.185 587.073 208.289 587.203 208.575 587.203H209.615C209.875 587.203 209.979 587.073 209.979 586.813V569.419ZM223.305 577.505C223.305 575.503 222.161 574.151 218.599 574.151C215.011 574.151 213.815 575.503 213.815 577.505V584.057C213.815 586.059 214.985 587.411 218.547 587.411C222.135 587.411 223.305 586.059 223.305 584.057V583.511C223.305 583.251 223.175 583.147 222.915 583.147H221.979C221.719 583.147 221.615 583.251 221.615 583.511V583.953C221.615 585.149 220.991 585.955 218.599 585.955C216.207 585.955 215.583 585.149 215.583 583.953V581.067H222.941C223.201 581.067 223.305 580.937 223.305 580.703V577.505ZM215.583 577.609C215.583 576.439 216.259 575.607 218.599 575.607C220.887 575.607 221.615 576.439 221.615 577.609V579.689H215.583V577.609ZM230.226 587.411C232.384 587.411 233.84 586.475 234.62 585.903V589.049C234.62 590.245 233.866 591.051 231.552 591.051H228.016C227.756 591.051 227.626 591.155 227.626 591.415V592.195C227.626 592.455 227.756 592.559 228.016 592.559H231.552C235.114 592.559 236.414 591.207 236.414 589.205V574.749C236.414 574.489 236.31 574.359 236.024 574.359H235.088C234.802 574.359 234.724 574.489 234.698 574.749L234.646 575.737C233.918 575.139 232.41 574.151 230.226 574.151C227.73 574.151 226.612 575.503 226.612 577.479V584.083C226.612 586.059 227.73 587.411 230.226 587.411ZM228.406 577.739C228.406 576.673 229.03 575.789 230.694 575.789C232.618 575.789 234.022 576.803 234.62 577.271V584.317C234.022 584.759 232.618 585.773 230.694 585.773C229.03 585.773 228.406 584.889 228.406 583.823V577.739ZM240.351 577.895C240.351 578.181 240.455 578.311 240.715 578.311H241.651C241.937 578.311 242.041 578.181 242.041 577.895V577.583C242.041 576.413 242.691 575.633 245.005 575.633C247.319 575.633 247.943 576.465 247.943 577.635V579.975H243.471C241.209 579.975 240.091 581.353 240.091 583.043V584.343C240.091 586.033 241.261 587.411 243.679 587.411C245.759 587.411 247.215 586.475 247.969 585.877L248.021 586.813C248.047 587.073 248.125 587.203 248.411 587.203H249.347C249.607 587.203 249.711 587.073 249.711 586.813V577.453C249.711 575.503 248.593 574.151 245.031 574.151C241.521 574.151 240.351 575.503 240.351 577.453V577.895ZM244.095 585.903C242.535 585.903 241.833 585.253 241.833 584.109V583.277C241.833 582.133 242.405 581.405 243.809 581.405H247.943V584.447C247.345 584.915 245.967 585.903 244.095 585.903ZM255.453 569.419C255.453 569.159 255.349 569.029 255.089 569.029H254.049C253.763 569.029 253.659 569.159 253.659 569.419V586.813C253.659 587.073 253.763 587.203 254.049 587.203H255.089C255.349 587.203 255.453 587.073 255.453 586.813V569.419ZM265.208 577.895C265.208 578.181 265.312 578.311 265.572 578.311H266.508C266.794 578.311 266.898 578.181 266.898 577.895V577.583C266.898 576.413 267.548 575.633 269.862 575.633C272.176 575.633 272.8 576.465 272.8 577.635V579.975H268.328C266.066 579.975 264.948 581.353 264.948 583.043V584.343C264.948 586.033 266.118 587.411 268.536 587.411C270.616 587.411 272.072 586.475 272.826 585.877L272.878 586.813C272.904 587.073 272.982 587.203 273.268 587.203H274.204C274.464 587.203 274.568 587.073 274.568 586.813V577.453C274.568 575.503 273.45 574.151 269.888 574.151C266.378 574.151 265.208 575.503 265.208 577.453V577.895ZM268.952 585.903C267.392 585.903 266.69 585.253 266.69 584.109V583.277C266.69 582.133 267.262 581.405 268.666 581.405H272.8V584.447C272.202 584.915 270.824 585.903 268.952 585.903ZM279.843 574.359H278.907C278.621 574.359 278.517 574.489 278.517 574.749V586.813C278.517 587.073 278.621 587.203 278.907 587.203H279.947C280.207 587.203 280.311 587.073 280.311 586.813V577.219C280.909 576.751 282.313 575.763 284.237 575.763C285.901 575.763 286.525 576.569 286.525 577.739V586.813C286.525 587.073 286.655 587.203 286.915 587.203H287.955C288.215 587.203 288.319 587.073 288.319 586.813V577.349C288.319 575.503 287.149 574.151 284.731 574.151C282.521 574.151 281.013 575.113 280.285 575.737L280.233 574.749C280.207 574.489 280.129 574.359 279.843 574.359ZM300.079 586.813C300.105 587.073 300.183 587.203 300.469 587.203H301.405C301.691 587.203 301.795 587.073 301.795 586.813V569.419C301.795 569.159 301.691 569.029 301.405 569.029H300.365C300.079 569.029 300.001 569.159 300.001 569.419V575.685C299.221 575.113 297.765 574.151 295.607 574.151C293.111 574.151 291.993 575.503 291.993 577.479V584.083C291.993 586.059 293.111 587.411 295.607 587.411C297.791 587.411 299.273 586.449 300.027 585.851L300.079 586.813ZM293.787 577.739C293.787 576.673 294.411 575.789 296.075 575.789C297.999 575.789 299.403 576.803 300.001 577.271V584.317C299.403 584.759 297.999 585.773 296.075 585.773C294.411 585.773 293.787 584.889 293.787 583.823V577.739ZM316.174 574.151C312.612 574.151 311.442 575.503 311.442 577.505V584.057C311.442 586.059 312.586 587.411 316.148 587.411C319.71 587.411 320.906 586.059 320.906 584.057V583.355C320.906 583.069 320.802 582.965 320.516 582.965H319.554C319.268 582.965 319.164 583.069 319.164 583.355V583.927C319.164 585.149 318.514 585.929 316.2 585.929C313.886 585.929 313.236 585.149 313.236 583.927V577.609C313.236 576.413 313.886 575.633 316.2 575.633C318.514 575.633 319.164 576.413 319.164 577.609V577.999C319.164 578.259 319.268 578.389 319.554 578.389H320.516C320.802 578.389 320.906 578.259 320.906 577.999V577.505C320.906 575.503 319.736 574.151 316.174 574.151ZM323.883 584.057C323.883 586.059 325.209 587.411 328.771 587.411C332.333 587.411 333.685 586.059 333.685 584.057V577.505C333.685 575.503 332.333 574.151 328.771 574.151C325.209 574.151 323.883 575.503 323.883 577.505V584.057ZM331.891 583.927C331.891 585.149 331.085 585.929 328.771 585.929C326.483 585.929 325.677 585.149 325.677 583.927V577.635C325.677 576.413 326.483 575.633 328.771 575.633C331.085 575.633 331.891 576.413 331.891 577.635V583.927ZM337.889 574.359C337.603 574.359 337.499 574.489 337.499 574.749V586.813C337.499 587.073 337.603 587.203 337.889 587.203H338.929C339.189 587.203 339.293 587.073 339.293 586.813V577.219C339.839 576.751 341.139 575.763 343.063 575.763C344.727 575.763 345.351 576.569 345.351 577.739V586.813C345.351 587.073 345.481 587.203 345.741 587.203H346.781C347.041 587.203 347.145 587.073 347.145 586.813V577.739C347.145 577.583 347.145 577.401 347.119 577.271C347.613 576.803 348.913 575.763 350.915 575.763C352.579 575.763 353.203 576.569 353.203 577.739V586.813C353.203 587.073 353.333 587.203 353.593 587.203H354.633C354.893 587.203 355.023 587.073 355.023 586.813V577.349C355.023 575.503 353.827 574.151 351.409 574.151C348.913 574.151 347.509 575.373 346.859 575.919C346.391 574.853 345.299 574.151 343.557 574.151C341.347 574.151 339.943 575.113 339.241 575.711L339.215 574.749C339.215 574.489 339.111 574.359 338.825 574.359H337.889ZM360.306 574.359H359.37C359.084 574.359 358.98 574.489 358.98 574.749V592.195C358.98 592.455 359.084 592.559 359.37 592.559H360.41C360.67 592.559 360.774 592.455 360.774 592.195V585.903C361.528 586.475 363.01 587.411 365.194 587.411C367.664 587.411 368.782 586.059 368.782 584.083V577.479C368.782 575.503 367.664 574.151 365.194 574.151C362.958 574.151 361.476 575.139 360.748 575.737L360.696 574.749C360.67 574.489 360.592 574.359 360.306 574.359ZM366.988 583.823C366.988 584.889 366.39 585.773 364.7 585.773C362.75 585.773 361.372 584.759 360.774 584.317V577.271C361.372 576.803 362.75 575.789 364.7 575.789C366.39 575.789 366.988 576.673 366.988 577.739V583.823ZM374.409 569.419C374.409 569.159 374.305 569.029 374.045 569.029H373.005C372.719 569.029 372.615 569.159 372.615 569.419V586.813C372.615 587.073 372.719 587.203 373.005 587.203H374.045C374.305 587.203 374.409 587.073 374.409 586.813V569.419ZM380.325 574.749C380.325 574.489 380.221 574.359 379.961 574.359H378.921C378.635 574.359 378.531 574.489 378.531 574.749V586.813C378.531 587.073 378.635 587.203 378.921 587.203H379.961C380.221 587.203 380.325 587.073 380.325 586.813V574.749ZM380.325 569.419C380.325 569.159 380.221 569.029 379.961 569.029H378.921C378.635 569.029 378.531 569.159 378.531 569.419V571.837C378.531 572.097 378.635 572.227 378.921 572.227H379.961C380.221 572.227 380.325 572.097 380.325 571.837V569.419ZM384.265 577.895C384.265 578.181 384.369 578.311 384.629 578.311H385.565C385.851 578.311 385.955 578.181 385.955 577.895V577.583C385.955 576.413 386.605 575.633 388.919 575.633C391.233 575.633 391.857 576.465 391.857 577.635V579.975H387.385C385.123 579.975 384.005 581.353 384.005 583.043V584.343C384.005 586.033 385.175 587.411 387.593 587.411C389.673 587.411 391.129 586.475 391.883 585.877L391.935 586.813C391.961 587.073 392.039 587.203 392.325 587.203H393.261C393.521 587.203 393.625 587.073 393.625 586.813V577.453C393.625 575.503 392.507 574.151 388.945 574.151C385.435 574.151 384.265 575.503 384.265 577.453V577.895ZM388.009 585.903C386.449 585.903 385.747 585.253 385.747 584.109V583.277C385.747 582.133 386.319 581.405 387.723 581.405H391.857V584.447C391.259 584.915 389.881 585.903 388.009 585.903ZM398.9 574.359H397.964C397.678 574.359 397.574 574.489 397.574 574.749V586.813C397.574 587.073 397.678 587.203 397.964 587.203H399.004C399.264 587.203 399.368 587.073 399.368 586.813V577.219C399.966 576.751 401.37 575.763 403.294 575.763C404.958 575.763 405.582 576.569 405.582 577.739V586.813C405.582 587.073 405.712 587.203 405.972 587.203H407.012C407.272 587.203 407.376 587.073 407.376 586.813V577.349C407.376 575.503 406.206 574.151 403.788 574.151C401.578 574.151 400.07 575.113 399.342 575.737L399.29 574.749C399.264 574.489 399.186 574.359 398.9 574.359ZM415.781 574.151C412.219 574.151 411.049 575.503 411.049 577.505V584.057C411.049 586.059 412.193 587.411 415.755 587.411C419.317 587.411 420.513 586.059 420.513 584.057V583.355C420.513 583.069 420.409 582.965 420.123 582.965H419.161C418.875 582.965 418.771 583.069 418.771 583.355V583.927C418.771 585.149 418.121 585.929 415.807 585.929C413.493 585.929 412.843 585.149 412.843 583.927V577.609C412.843 576.413 413.493 575.633 415.807 575.633C418.121 575.633 418.771 576.413 418.771 577.609V577.999C418.771 578.259 418.875 578.389 419.161 578.389H420.123C420.409 578.389 420.513 578.259 420.513 577.999V577.505C420.513 575.503 419.343 574.151 415.781 574.151ZM432.981 577.505C432.981 575.503 431.837 574.151 428.275 574.151C424.687 574.151 423.491 575.503 423.491 577.505V584.057C423.491 586.059 424.661 587.411 428.223 587.411C431.811 587.411 432.981 586.059 432.981 584.057V583.511C432.981 583.251 432.851 583.147 432.591 583.147H431.655C431.395 583.147 431.291 583.251 431.291 583.511V583.953C431.291 585.149 430.667 585.955 428.275 585.955C425.883 585.955 425.259 585.149 425.259 583.953V581.067H432.617C432.877 581.067 432.981 580.937 432.981 580.703V577.505ZM425.259 577.609C425.259 576.439 425.935 575.607 428.275 575.607C430.563 575.607 431.291 576.439 431.291 577.609V579.689H425.259V577.609Z" fill="white"/>
<path d="M636.305 371.511C636.019 371.511 635.915 371.615 635.915 371.901V372.681C635.915 372.941 636.019 373.045 636.305 373.045H638.619C641.375 373.045 642.025 373.929 642.025 375.463V377.829C642.025 379.337 641.193 380.299 638.541 380.299C635.889 380.299 635.031 379.337 635.031 377.829V377.491C635.031 377.231 634.927 377.127 634.667 377.127H633.601C633.341 377.127 633.237 377.231 633.237 377.491V378.063C633.237 380.143 634.407 381.833 638.567 381.833C642.701 381.833 643.845 380.195 643.845 378.115V375.255C643.845 373.773 643.377 372.707 641.427 372.239C643.221 371.797 643.663 370.809 643.663 369.353V367.455C643.663 365.375 642.649 363.737 638.541 363.737C634.407 363.737 633.367 365.427 633.367 367.507V368.079C633.367 368.339 633.471 368.443 633.731 368.443H634.797C635.057 368.443 635.161 368.339 635.161 368.079V367.741C635.161 366.233 635.889 365.271 638.515 365.271C641.141 365.271 641.843 366.233 641.843 367.741V369.093C641.843 370.627 641.193 371.511 638.463 371.511H636.305ZM647.875 369.067C647.875 370.549 648.785 371.537 651.385 371.537C653.985 371.537 654.895 370.549 654.895 369.067V366.233C654.895 364.751 653.985 363.763 651.385 363.763C648.785 363.763 647.875 364.751 647.875 366.233V369.067ZM653.387 369.015C653.387 369.795 652.867 370.289 651.385 370.289C649.903 370.289 649.383 369.795 649.383 369.015V366.285C649.383 365.531 649.903 365.011 651.385 365.011C652.867 365.011 653.387 365.531 653.387 366.285V369.015ZM662.227 379.311C662.227 380.117 661.707 380.611 660.251 380.611C658.769 380.611 658.249 380.117 658.249 379.311V376.607C658.249 375.827 658.769 375.333 660.251 375.333C661.707 375.333 662.227 375.827 662.227 376.607V379.311ZM656.715 379.389C656.715 380.871 657.625 381.859 660.251 381.859C662.851 381.859 663.761 380.871 663.761 379.389V376.555C663.761 375.073 662.851 374.085 660.251 374.085C657.625 374.085 656.715 375.073 656.715 376.555V379.389ZM660.563 364.335C660.667 364.127 660.615 363.945 660.355 363.945H659.471C659.185 363.945 659.029 364.127 658.925 364.335L651.021 381.235C650.943 381.391 650.969 381.625 651.203 381.625H652.139C652.399 381.625 652.555 381.521 652.685 381.235L660.563 364.335ZM674.161 368.781C673.875 368.781 673.771 368.911 673.771 369.171V381.235C673.771 381.495 673.875 381.625 674.161 381.625H675.201C675.461 381.625 675.565 381.495 675.565 381.235V371.641C676.111 371.173 677.411 370.185 679.335 370.185C680.999 370.185 681.623 370.991 681.623 372.161V381.235C681.623 381.495 681.753 381.625 682.013 381.625H683.053C683.313 381.625 683.417 381.495 683.417 381.235V372.161C683.417 372.005 683.417 371.823 683.391 371.693C683.885 371.225 685.185 370.185 687.187 370.185C688.851 370.185 689.475 370.991 689.475 372.161V381.235C689.475 381.495 689.605 381.625 689.865 381.625H690.905C691.165 381.625 691.295 381.495 691.295 381.235V371.771C691.295 369.925 690.099 368.573 687.681 368.573C685.185 368.573 683.781 369.795 683.131 370.341C682.663 369.275 681.571 368.573 679.829 368.573C677.619 368.573 676.215 369.535 675.513 370.133L675.487 369.171C675.487 368.911 675.383 368.781 675.097 368.781H674.161ZM695.069 372.317C695.069 372.603 695.173 372.733 695.433 372.733H696.369C696.655 372.733 696.759 372.603 696.759 372.317V372.005C696.759 370.835 697.409 370.055 699.723 370.055C702.037 370.055 702.661 370.887 702.661 372.057V374.397H698.189C695.927 374.397 694.809 375.775 694.809 377.465V378.765C694.809 380.455 695.979 381.833 698.397 381.833C700.477 381.833 701.933 380.897 702.687 380.299L702.739 381.235C702.765 381.495 702.843 381.625 703.129 381.625H704.065C704.325 381.625 704.429 381.495 704.429 381.235V371.875C704.429 369.925 703.311 368.573 699.749 368.573C696.239 368.573 695.069 369.925 695.069 371.875V372.317ZM698.813 380.325C697.253 380.325 696.551 379.675 696.551 378.531V377.699C696.551 376.555 697.123 375.827 698.527 375.827H702.661V378.869C702.063 379.337 700.685 380.325 698.813 380.325ZM714.41 368.573C712.486 368.573 710.9 369.769 710.172 370.445L710.094 369.171C710.068 368.911 709.99 368.781 709.704 368.781H708.768C708.482 368.781 708.378 368.911 708.378 369.171V381.235C708.378 381.495 708.482 381.625 708.768 381.625H709.808C710.068 381.625 710.172 381.495 710.172 381.235V371.953C710.796 371.433 712.46 370.289 714.41 370.211C714.67 370.211 714.826 370.081 714.826 369.821V368.963C714.826 368.703 714.67 368.573 714.41 368.573ZM721.475 374.345L726.389 369.171C726.571 368.963 726.493 368.781 726.207 368.781H725.037C724.803 368.781 724.595 368.963 724.413 369.171L719.993 373.721H719.135V363.841C719.135 363.581 719.031 363.451 718.771 363.451H717.705C717.445 363.451 717.341 363.581 717.341 363.841V381.235C717.341 381.495 717.445 381.625 717.705 381.625H718.771C719.031 381.625 719.135 381.495 719.135 381.235V375.099H720.019L725.011 381.235C725.193 381.469 725.349 381.625 725.635 381.625H726.805C727.065 381.625 727.143 381.417 726.987 381.235L721.475 374.345ZM738.352 371.927C738.352 369.925 737.208 368.573 733.646 368.573C730.058 368.573 728.862 369.925 728.862 371.927V378.479C728.862 380.481 730.032 381.833 733.594 381.833C737.182 381.833 738.352 380.481 738.352 378.479V377.933C738.352 377.673 738.222 377.569 737.962 377.569H737.026C736.766 377.569 736.662 377.673 736.662 377.933V378.375C736.662 379.571 736.038 380.377 733.646 380.377C731.254 380.377 730.63 379.571 730.63 378.375V375.489H737.988C738.248 375.489 738.352 375.359 738.352 375.125V371.927ZM730.63 372.031C730.63 370.861 731.306 370.029 733.646 370.029C735.934 370.029 736.662 370.861 736.662 372.031V374.111H730.63V372.031ZM744.311 368.833V366.077C744.311 365.817 744.207 365.687 743.947 365.687H742.881C742.621 365.687 742.491 365.817 742.491 366.077V368.833H742.283L740.931 368.911C740.671 368.937 740.567 369.041 740.567 369.301V369.925C740.567 370.185 740.671 370.315 740.931 370.315H742.491V378.271C742.491 380.377 743.531 381.625 747.093 381.625H747.769C748.029 381.625 748.159 381.521 748.159 381.235V380.481C748.159 380.195 748.029 380.091 747.769 380.091H747.327C745.013 380.091 744.311 379.311 744.311 378.089V370.315H747.223C747.483 370.315 747.613 370.185 747.613 369.925V369.197C747.613 368.937 747.483 368.833 747.223 368.833H744.311ZM752.752 369.171C752.752 368.911 752.648 368.781 752.388 368.781H751.348C751.062 368.781 750.958 368.911 750.958 369.171V381.235C750.958 381.495 751.062 381.625 751.348 381.625H752.388C752.648 381.625 752.752 381.495 752.752 381.235V369.171ZM752.752 363.841C752.752 363.581 752.648 363.451 752.388 363.451H751.348C751.062 363.451 750.958 363.581 750.958 363.841V366.259C750.958 366.519 751.062 366.649 751.348 366.649H752.388C752.648 366.649 752.752 366.519 752.752 366.259V363.841ZM758.2 368.781H757.264C756.978 368.781 756.874 368.911 756.874 369.171V381.235C756.874 381.495 756.978 381.625 757.264 381.625H758.304C758.564 381.625 758.668 381.495 758.668 381.235V371.641C759.266 371.173 760.67 370.185 762.594 370.185C764.258 370.185 764.882 370.991 764.882 372.161V381.235C764.882 381.495 765.012 381.625 765.272 381.625H766.312C766.572 381.625 766.676 381.495 766.676 381.235V371.771C766.676 369.925 765.506 368.573 763.088 368.573C760.878 368.573 759.37 369.535 758.642 370.159L758.59 369.171C758.564 368.911 758.486 368.781 758.2 368.781ZM773.964 381.833C776.122 381.833 777.578 380.897 778.358 380.325V383.471C778.358 384.667 777.604 385.473 775.29 385.473H771.754C771.494 385.473 771.364 385.577 771.364 385.837V386.617C771.364 386.877 771.494 386.981 771.754 386.981H775.29C778.852 386.981 780.152 385.629 780.152 383.627V369.171C780.152 368.911 780.048 368.781 779.762 368.781H778.826C778.54 368.781 778.462 368.911 778.436 369.171L778.384 370.159C777.656 369.561 776.148 368.573 773.964 368.573C771.468 368.573 770.35 369.925 770.35 371.901V378.505C770.35 380.481 771.468 381.833 773.964 381.833ZM772.144 372.161C772.144 371.095 772.768 370.211 774.432 370.211C776.356 370.211 777.76 371.225 778.358 371.693V378.739C777.76 379.181 776.356 380.195 774.432 380.195C772.768 380.195 772.144 379.311 772.144 378.245V372.161Z" fill="white"/>
<path d="M609.809 472.491C609.887 472.257 609.809 472.101 609.523 472.101H608.431C608.171 472.101 608.067 472.231 607.963 472.491L604.323 482.631C604.271 482.787 604.245 482.865 604.245 483.047V483.801C604.245 484.087 604.375 484.191 604.635 484.191H613.085V489.391C613.085 489.651 613.189 489.781 613.475 489.781H614.593C614.853 489.781 614.957 489.651 614.957 489.391V472.491C614.957 472.231 614.853 472.101 614.593 472.101H613.475C613.189 472.101 613.085 472.231 613.085 472.491V482.605H606.169L609.809 472.491ZM619.273 477.223C619.273 478.705 620.183 479.693 622.783 479.693C625.383 479.693 626.293 478.705 626.293 477.223V474.389C626.293 472.907 625.383 471.919 622.783 471.919C620.183 471.919 619.273 472.907 619.273 474.389V477.223ZM624.785 477.171C624.785 477.951 624.265 478.445 622.783 478.445C621.301 478.445 620.781 477.951 620.781 477.171V474.441C620.781 473.687 621.301 473.167 622.783 473.167C624.265 473.167 624.785 473.687 624.785 474.441V477.171ZM633.625 487.467C633.625 488.273 633.105 488.767 631.649 488.767C630.167 488.767 629.647 488.273 629.647 487.467V484.763C629.647 483.983 630.167 483.489 631.649 483.489C633.105 483.489 633.625 483.983 633.625 484.763V487.467ZM628.113 487.545C628.113 489.027 629.023 490.015 631.649 490.015C634.249 490.015 635.159 489.027 635.159 487.545V484.711C635.159 483.229 634.249 482.241 631.649 482.241C629.023 482.241 628.113 483.229 628.113 484.711V487.545ZM631.961 472.491C632.065 472.283 632.013 472.101 631.753 472.101H630.869C630.583 472.101 630.427 472.283 630.323 472.491L622.419 489.391C622.341 489.547 622.367 489.781 622.601 489.781H623.537C623.797 489.781 623.953 489.677 624.083 489.391L631.961 472.491ZM652.969 489.391C652.995 489.651 653.073 489.781 653.359 489.781H654.295C654.581 489.781 654.685 489.651 654.685 489.391V471.997C654.685 471.737 654.581 471.607 654.295 471.607H653.255C652.969 471.607 652.891 471.737 652.891 471.997V478.263C652.111 477.691 650.655 476.729 648.497 476.729C646.001 476.729 644.883 478.081 644.883 480.057V486.661C644.883 488.637 646.001 489.989 648.497 489.989C650.681 489.989 652.163 489.027 652.917 488.429L652.969 489.391ZM646.677 480.317C646.677 479.251 647.301 478.367 648.965 478.367C650.889 478.367 652.293 479.381 652.891 479.849V486.895C652.293 487.337 650.889 488.351 648.965 488.351C647.301 488.351 646.677 487.467 646.677 486.401V480.317ZM668.008 480.083C668.008 478.081 666.864 476.729 663.302 476.729C659.714 476.729 658.518 478.081 658.518 480.083V486.635C658.518 488.637 659.688 489.989 663.25 489.989C666.838 489.989 668.008 488.637 668.008 486.635V486.089C668.008 485.829 667.878 485.725 667.618 485.725H666.682C666.422 485.725 666.318 485.829 666.318 486.089V486.531C666.318 487.727 665.694 488.533 663.302 488.533C660.91 488.533 660.286 487.727 660.286 486.531V483.645H667.644C667.904 483.645 668.008 483.515 668.008 483.281V480.083ZM660.286 480.187C660.286 479.017 660.962 478.185 663.302 478.185C665.59 478.185 666.318 479.017 666.318 480.187V482.267H660.286V480.187ZM675.709 489.781C675.969 489.781 676.047 489.677 676.125 489.417L680.311 477.327C680.389 477.093 680.259 476.937 679.973 476.937H678.985C678.725 476.937 678.621 477.093 678.543 477.327L675.579 485.959C675.345 486.583 675.215 487.415 675.189 487.545C675.163 487.363 674.981 486.453 674.825 485.933L671.913 477.327C671.835 477.093 671.731 476.937 671.471 476.937H670.353C670.093 476.937 669.937 477.093 670.015 477.327L674.123 489.417C674.201 489.677 674.279 489.781 674.513 489.781H675.709ZM691.901 480.083C691.901 478.081 690.757 476.729 687.195 476.729C683.607 476.729 682.411 478.081 682.411 480.083V486.635C682.411 488.637 683.581 489.989 687.143 489.989C690.731 489.989 691.901 488.637 691.901 486.635V486.089C691.901 485.829 691.771 485.725 691.511 485.725H690.575C690.315 485.725 690.211 485.829 690.211 486.089V486.531C690.211 487.727 689.587 488.533 687.195 488.533C684.803 488.533 684.179 487.727 684.179 486.531V483.645H691.537C691.797 483.645 691.901 483.515 691.901 483.281V480.083ZM684.179 480.187C684.179 479.017 684.855 478.185 687.195 478.185C689.483 478.185 690.211 479.017 690.211 480.187V482.267H684.179V480.187ZM697.287 471.997C697.287 471.737 697.183 471.607 696.923 471.607H695.883C695.597 471.607 695.493 471.737 695.493 471.997V489.391C695.493 489.651 695.597 489.781 695.883 489.781H696.923C697.183 489.781 697.287 489.651 697.287 489.391V471.997ZM701.123 486.635C701.123 488.637 702.449 489.989 706.011 489.989C709.573 489.989 710.925 488.637 710.925 486.635V480.083C710.925 478.081 709.573 476.729 706.011 476.729C702.449 476.729 701.123 478.081 701.123 480.083V486.635ZM709.131 486.505C709.131 487.727 708.325 488.507 706.011 488.507C703.723 488.507 702.917 487.727 702.917 486.505V480.213C702.917 478.991 703.723 478.211 706.011 478.211C708.325 478.211 709.131 478.991 709.131 480.213V486.505ZM716.066 476.937H715.13C714.844 476.937 714.74 477.067 714.74 477.327V494.773C714.74 495.033 714.844 495.137 715.13 495.137H716.17C716.43 495.137 716.534 495.033 716.534 494.773V488.481C717.288 489.053 718.77 489.989 720.954 489.989C723.424 489.989 724.542 488.637 724.542 486.661V480.057C724.542 478.081 723.424 476.729 720.954 476.729C718.718 476.729 717.236 477.717 716.508 478.315L716.456 477.327C716.43 477.067 716.352 476.937 716.066 476.937ZM722.748 486.401C722.748 487.467 722.15 488.351 720.46 488.351C718.51 488.351 717.132 487.337 716.534 486.895V479.849C717.132 479.381 718.51 478.367 720.46 478.367C722.15 478.367 722.748 479.251 722.748 480.317V486.401ZM728.764 476.937C728.478 476.937 728.374 477.067 728.374 477.327V489.391C728.374 489.651 728.478 489.781 728.764 489.781H729.804C730.064 489.781 730.168 489.651 730.168 489.391V479.797C730.714 479.329 732.014 478.341 733.938 478.341C735.602 478.341 736.226 479.147 736.226 480.317V489.391C736.226 489.651 736.356 489.781 736.616 489.781H737.656C737.916 489.781 738.02 489.651 738.02 489.391V480.317C738.02 480.161 738.02 479.979 737.994 479.849C738.488 479.381 739.788 478.341 741.79 478.341C743.454 478.341 744.078 479.147 744.078 480.317V489.391C744.078 489.651 744.208 489.781 744.468 489.781H745.508C745.768 489.781 745.898 489.651 745.898 489.391V479.927C745.898 478.081 744.702 476.729 742.284 476.729C739.788 476.729 738.384 477.951 737.734 478.497C737.266 477.431 736.174 476.729 734.432 476.729C732.222 476.729 730.818 477.691 730.116 478.289L730.09 477.327C730.09 477.067 729.986 476.937 729.7 476.937H728.764ZM759.059 480.083C759.059 478.081 757.915 476.729 754.353 476.729C750.765 476.729 749.569 478.081 749.569 480.083V486.635C749.569 488.637 750.739 489.989 754.301 489.989C757.889 489.989 759.059 488.637 759.059 486.635V486.089C759.059 485.829 758.929 485.725 758.669 485.725H757.733C757.473 485.725 757.369 485.829 757.369 486.089V486.531C757.369 487.727 756.745 488.533 754.353 488.533C751.961 488.533 751.337 487.727 751.337 486.531V483.645H758.695C758.955 483.645 759.059 483.515 759.059 483.281V480.083ZM751.337 480.187C751.337 479.017 752.013 478.185 754.353 478.185C756.641 478.185 757.369 479.017 757.369 480.187V482.267H751.337V480.187ZM763.978 476.937H763.042C762.756 476.937 762.652 477.067 762.652 477.327V489.391C762.652 489.651 762.756 489.781 763.042 489.781H764.082C764.342 489.781 764.446 489.651 764.446 489.391V479.797C765.044 479.329 766.448 478.341 768.372 478.341C770.036 478.341 770.66 479.147 770.66 480.317V489.391C770.66 489.651 770.79 489.781 771.05 489.781H772.09C772.35 489.781 772.454 489.651 772.454 489.391V479.927C772.454 478.081 771.284 476.729 768.866 476.729C766.656 476.729 765.148 477.691 764.42 478.315L764.368 477.327C764.342 477.067 764.264 476.937 763.978 476.937ZM778.779 476.989V474.233C778.779 473.973 778.675 473.843 778.415 473.843H777.349C777.089 473.843 776.959 473.973 776.959 474.233V476.989H776.751L775.399 477.067C775.139 477.093 775.035 477.197 775.035 477.457V478.081C775.035 478.341 775.139 478.471 775.399 478.471H776.959V486.427C776.959 488.533 777.999 489.781 781.561 489.781H782.237C782.497 489.781 782.627 489.677 782.627 489.391V488.637C782.627 488.351 782.497 488.247 782.237 488.247H781.795C779.481 488.247 778.779 487.467 778.779 486.245V478.471H781.691C781.951 478.471 782.081 478.341 782.081 478.081V477.353C782.081 477.093 781.951 476.989 781.691 476.989H778.779ZM795.922 486.063C795.922 486.323 796.026 486.427 796.286 486.427H797.066C797.326 486.427 797.43 486.323 797.43 486.063V481.747H801.798C802.058 481.747 802.188 481.617 802.188 481.357V480.577C802.188 480.291 802.058 480.187 801.798 480.187H797.43V475.897C797.43 475.611 797.326 475.481 797.066 475.481H796.286C796.026 475.481 795.922 475.611 795.922 475.897V480.187H791.632C791.346 480.187 791.242 480.291 791.242 480.577V481.357C791.242 481.617 791.346 481.747 791.632 481.747H795.922V486.063ZM813.439 476.937H812.503C812.217 476.937 812.113 477.067 812.113 477.327V489.391C812.113 489.651 812.217 489.781 812.503 489.781H813.543C813.803 489.781 813.907 489.651 813.907 489.391V479.797C814.505 479.329 815.909 478.341 817.833 478.341C819.497 478.341 820.121 479.147 820.121 480.317V489.391C820.121 489.651 820.251 489.781 820.511 489.781H821.551C821.811 489.781 821.915 489.651 821.915 489.391V479.927C821.915 478.081 820.745 476.729 818.327 476.729C816.117 476.729 814.609 477.691 813.881 478.315L813.829 477.327C813.803 477.067 813.725 476.937 813.439 476.937ZM826.316 476.989L824.912 477.067C824.652 477.093 824.548 477.197 824.548 477.457V478.081C824.548 478.341 824.652 478.471 824.912 478.471H826.524V489.391C826.524 489.651 826.654 489.781 826.914 489.781H827.954C828.24 489.781 828.344 489.651 828.344 489.391V478.471H831.178C831.438 478.471 831.568 478.341 831.568 478.081V477.353C831.568 477.093 831.438 476.989 831.178 476.989H828.344V474.935C828.344 473.739 829.072 472.959 831.386 472.959H831.542C831.802 472.959 831.932 472.829 831.932 472.569V471.789C831.932 471.529 831.802 471.425 831.542 471.425H831.386C827.824 471.425 826.524 472.777 826.524 474.753V476.989H826.316ZM836.619 476.989V474.233C836.619 473.973 836.515 473.843 836.255 473.843H835.189C834.929 473.843 834.799 473.973 834.799 474.233V476.989H834.591L833.239 477.067C832.979 477.093 832.875 477.197 832.875 477.457V478.081C832.875 478.341 832.979 478.471 833.239 478.471H834.799V486.427C834.799 488.533 835.839 489.781 839.401 489.781H840.077C840.337 489.781 840.467 489.677 840.467 489.391V488.637C840.467 488.351 840.337 488.247 840.077 488.247H839.635C837.321 488.247 836.619 487.467 836.619 486.245V478.471H839.531C839.791 478.471 839.921 478.341 839.921 478.081V477.353C839.921 477.093 839.791 476.989 839.531 476.989H836.619ZM849.471 476.937C849.185 476.937 849.081 477.067 849.081 477.327V489.391C849.081 489.651 849.185 489.781 849.471 489.781H850.511C850.771 489.781 850.875 489.651 850.875 489.391V479.797C851.421 479.329 852.721 478.341 854.645 478.341C856.309 478.341 856.933 479.147 856.933 480.317V489.391C856.933 489.651 857.063 489.781 857.323 489.781H858.363C858.623 489.781 858.727 489.651 858.727 489.391V480.317C858.727 480.161 858.727 479.979 858.701 479.849C859.195 479.381 860.495 478.341 862.497 478.341C864.161 478.341 864.785 479.147 864.785 480.317V489.391C864.785 489.651 864.915 489.781 865.175 489.781H866.215C866.475 489.781 866.605 489.651 866.605 489.391V479.927C866.605 478.081 865.409 476.729 862.991 476.729C860.495 476.729 859.091 477.951 858.441 478.497C857.973 477.431 856.881 476.729 855.139 476.729C852.929 476.729 851.525 477.691 850.823 478.289L850.797 477.327C850.797 477.067 850.693 476.937 850.407 476.937H849.471ZM870.38 480.473C870.38 480.759 870.484 480.889 870.744 480.889H871.68C871.966 480.889 872.07 480.759 872.07 480.473V480.161C872.07 478.991 872.72 478.211 875.034 478.211C877.348 478.211 877.972 479.043 877.972 480.213V482.553H873.5C871.238 482.553 870.12 483.931 870.12 485.621V486.921C870.12 488.611 871.29 489.989 873.708 489.989C875.788 489.989 877.244 489.053 877.998 488.455L878.05 489.391C878.076 489.651 878.154 489.781 878.44 489.781H879.376C879.636 489.781 879.74 489.651 879.74 489.391V480.031C879.74 478.081 878.622 476.729 875.06 476.729C871.55 476.729 870.38 478.081 870.38 480.031V480.473ZM874.124 488.481C872.564 488.481 871.862 487.831 871.862 486.687V485.855C871.862 484.711 872.434 483.983 873.838 483.983H877.972V487.025C877.374 487.493 875.996 488.481 874.124 488.481ZM889.721 476.729C887.797 476.729 886.211 477.925 885.483 478.601L885.405 477.327C885.379 477.067 885.301 476.937 885.015 476.937H884.079C883.793 476.937 883.689 477.067 883.689 477.327V489.391C883.689 489.651 883.793 489.781 884.079 489.781H885.119C885.379 489.781 885.483 489.651 885.483 489.391V480.109C886.107 479.589 887.771 478.445 889.721 478.367C889.981 478.367 890.137 478.237 890.137 477.977V477.119C890.137 476.859 889.981 476.729 889.721 476.729ZM896.786 482.501L901.7 477.327C901.882 477.119 901.804 476.937 901.518 476.937H900.348C900.114 476.937 899.906 477.119 899.724 477.327L895.304 481.877H894.446V471.997C894.446 471.737 894.342 471.607 894.082 471.607H893.016C892.756 471.607 892.652 471.737 892.652 471.997V489.391C892.652 489.651 892.756 489.781 893.016 489.781H894.082C894.342 489.781 894.446 489.651 894.446 489.391V483.255H895.33L900.322 489.391C900.504 489.625 900.66 489.781 900.946 489.781H902.116C902.376 489.781 902.454 489.573 902.298 489.391L896.786 482.501ZM913.662 480.083C913.662 478.081 912.518 476.729 908.956 476.729C905.368 476.729 904.172 478.081 904.172 480.083V486.635C904.172 488.637 905.342 489.989 908.904 489.989C912.492 489.989 913.662 488.637 913.662 486.635V486.089C913.662 485.829 913.532 485.725 913.272 485.725H912.336C912.076 485.725 911.972 485.829 911.972 486.089V486.531C911.972 487.727 911.348 488.533 908.956 488.533C906.564 488.533 905.94 487.727 905.94 486.531V483.645H913.298C913.558 483.645 913.662 483.515 913.662 483.281V480.083ZM905.94 480.187C905.94 479.017 906.616 478.185 908.956 478.185C911.244 478.185 911.972 479.017 911.972 480.187V482.267H905.94V480.187ZM919.621 476.989V474.233C919.621 473.973 919.517 473.843 919.257 473.843H918.191C917.931 473.843 917.801 473.973 917.801 474.233V476.989H917.593L916.241 477.067C915.981 477.093 915.877 477.197 915.877 477.457V478.081C915.877 478.341 915.981 478.471 916.241 478.471H917.801V486.427C917.801 488.533 918.841 489.781 922.403 489.781H923.079C923.339 489.781 923.469 489.677 923.469 489.391V488.637C923.469 488.351 923.339 488.247 923.079 488.247H922.637C920.323 488.247 919.621 487.467 919.621 486.245V478.471H922.533C922.793 478.471 922.923 478.341 922.923 478.081V477.353C922.923 477.093 922.793 476.989 922.533 476.989H919.621ZM927.595 476.937H926.659C926.373 476.937 926.269 477.067 926.269 477.327V494.773C926.269 495.033 926.373 495.137 926.659 495.137H927.699C927.959 495.137 928.063 495.033 928.063 494.773V488.481C928.817 489.053 930.299 489.989 932.483 489.989C934.953 489.989 936.071 488.637 936.071 486.661V480.057C936.071 478.081 934.953 476.729 932.483 476.729C930.247 476.729 928.765 477.717 928.037 478.315L927.985 477.327C927.959 477.067 927.881 476.937 927.595 476.937ZM934.277 486.401C934.277 487.467 933.679 488.351 931.989 488.351C930.039 488.351 928.661 487.337 928.063 486.895V479.849C928.661 479.381 930.039 478.367 931.989 478.367C933.679 478.367 934.277 479.251 934.277 480.317V486.401ZM941.698 471.997C941.698 471.737 941.594 471.607 941.334 471.607H940.294C940.008 471.607 939.904 471.737 939.904 471.997V489.391C939.904 489.651 940.008 489.781 940.294 489.781H941.334C941.594 489.781 941.698 489.651 941.698 489.391V471.997ZM945.638 480.473C945.638 480.759 945.742 480.889 946.002 480.889H946.938C947.224 480.889 947.328 480.759 947.328 480.473V480.161C947.328 478.991 947.978 478.211 950.292 478.211C952.606 478.211 953.23 479.043 953.23 480.213V482.553H948.758C946.496 482.553 945.378 483.931 945.378 485.621V486.921C945.378 488.611 946.548 489.989 948.966 489.989C951.046 489.989 952.502 489.053 953.256 488.455L953.308 489.391C953.334 489.651 953.412 489.781 953.698 489.781H954.634C954.894 489.781 954.998 489.651 954.998 489.391V480.031C954.998 478.081 953.88 476.729 950.318 476.729C946.808 476.729 945.638 478.081 945.638 480.031V480.473ZM949.382 488.481C947.822 488.481 947.12 487.831 947.12 486.687V485.855C947.12 484.711 947.692 483.983 949.096 483.983H953.23V487.025C952.632 487.493 951.254 488.481 949.382 488.481ZM963.393 476.729C959.831 476.729 958.661 478.081 958.661 480.083V486.635C958.661 488.637 959.805 489.989 963.367 489.989C966.929 489.989 968.125 488.637 968.125 486.635V485.933C968.125 485.647 968.021 485.543 967.735 485.543H966.773C966.487 485.543 966.383 485.647 966.383 485.933V486.505C966.383 487.727 965.733 488.507 963.419 488.507C961.105 488.507 960.455 487.727 960.455 486.505V480.187C960.455 478.991 961.105 478.211 963.419 478.211C965.733 478.211 966.383 478.991 966.383 480.187V480.577C966.383 480.837 966.487 480.967 966.773 480.967H967.735C968.021 480.967 968.125 480.837 968.125 480.577V480.083C968.125 478.081 966.955 476.729 963.393 476.729ZM980.592 480.083C980.592 478.081 979.448 476.729 975.886 476.729C972.298 476.729 971.102 478.081 971.102 480.083V486.635C971.102 488.637 972.272 489.989 975.834 489.989C979.422 489.989 980.592 488.637 980.592 486.635V486.089C980.592 485.829 980.462 485.725 980.202 485.725H979.266C979.006 485.725 978.902 485.829 978.902 486.089V486.531C978.902 487.727 978.278 488.533 975.886 488.533C973.494 488.533 972.87 487.727 972.87 486.531V483.645H980.228C980.488 483.645 980.592 483.515 980.592 483.281V480.083ZM972.87 480.187C972.87 479.017 973.546 478.185 975.886 478.185C978.174 478.185 978.902 479.017 978.902 480.187V482.267H972.87V480.187ZM999.203 480.083C999.203 478.081 998.059 476.729 994.497 476.729C990.909 476.729 989.713 478.081 989.713 480.083V486.635C989.713 488.637 990.883 489.989 994.445 489.989C998.033 489.989 999.203 488.637 999.203 486.635V486.089C999.203 485.829 999.073 485.725 998.813 485.725H997.877C997.617 485.725 997.513 485.829 997.513 486.089V486.531C997.513 487.727 996.889 488.533 994.497 488.533C992.105 488.533 991.481 487.727 991.481 486.531V483.645H998.839C999.099 483.645 999.203 483.515 999.203 483.281V480.083ZM991.481 480.187C991.481 479.017 992.157 478.185 994.497 478.185C996.785 478.185 997.513 479.017 997.513 480.187V482.267H991.481V480.187ZM1005.16 476.989V474.233C1005.16 473.973 1005.06 473.843 1004.8 473.843H1003.73C1003.47 473.843 1003.34 473.973 1003.34 474.233V476.989H1003.13L1001.78 477.067C1001.52 477.093 1001.42 477.197 1001.42 477.457V478.081C1001.42 478.341 1001.52 478.471 1001.78 478.471H1003.34V486.427C1003.34 488.533 1004.38 489.781 1007.94 489.781H1008.62C1008.88 489.781 1009.01 489.677 1009.01 489.391V488.637C1009.01 488.351 1008.88 488.247 1008.62 488.247H1008.18C1005.86 488.247 1005.16 487.467 1005.16 486.245V478.471H1008.07C1008.33 478.471 1008.46 478.341 1008.46 478.081V477.353C1008.46 477.093 1008.33 476.989 1008.07 476.989H1005.16ZM1016.1 476.729C1012.54 476.729 1011.37 478.081 1011.37 480.083V486.635C1011.37 488.637 1012.52 489.989 1016.08 489.989C1019.64 489.989 1020.84 488.637 1020.84 486.635V485.933C1020.84 485.647 1020.73 485.543 1020.45 485.543H1019.48C1019.2 485.543 1019.09 485.647 1019.09 485.933V486.505C1019.09 487.727 1018.44 488.507 1016.13 488.507C1013.82 488.507 1013.17 487.727 1013.17 486.505V480.187C1013.17 478.991 1013.82 478.211 1016.13 478.211C1018.44 478.211 1019.09 478.991 1019.09 480.187V480.577C1019.09 480.837 1019.2 480.967 1019.48 480.967H1020.45C1020.73 480.967 1020.84 480.837 1020.84 480.577V480.083C1020.84 478.081 1019.67 476.729 1016.1 476.729Z" fill="white"/>
<path d="M151.286 7.71C151.364 7.476 151.286 7.32 151 7.32H149.908C149.648 7.32 149.544 7.45 149.44 7.71L145.8 17.85C145.748 18.006 145.722 18.084 145.722 18.266V19.02C145.722 19.306 145.852 19.41 146.112 19.41H154.562V24.61C154.562 24.87 154.666 25 154.952 25H156.07C156.33 25 156.434 24.87 156.434 24.61V7.71C156.434 7.45 156.33 7.32 156.07 7.32H154.952C154.666 7.32 154.562 7.45 154.562 7.71V17.824H147.646L151.286 7.71ZM163.272 14.886C162.986 14.886 162.882 14.99 162.882 15.276V16.056C162.882 16.316 162.986 16.42 163.272 16.42H165.586C168.342 16.42 168.992 17.304 168.992 18.838V21.204C168.992 22.712 168.16 23.674 165.508 23.674C162.856 23.674 161.998 22.712 161.998 21.204V20.866C161.998 20.606 161.894 20.502 161.634 20.502H160.568C160.308 20.502 160.204 20.606 160.204 20.866V21.438C160.204 23.518 161.374 25.208 165.534 25.208C169.668 25.208 170.812 23.57 170.812 21.49V18.63C170.812 17.148 170.344 16.082 168.394 15.614C170.188 15.172 170.63 14.184 170.63 12.728V10.83C170.63 8.75 169.616 7.112 165.508 7.112C161.374 7.112 160.334 8.802 160.334 10.882V11.454C160.334 11.714 160.438 11.818 160.698 11.818H161.764C162.024 11.818 162.128 11.714 162.128 11.454V11.116C162.128 9.608 162.856 8.646 165.482 8.646C168.108 8.646 168.81 9.608 168.81 11.116V12.468C168.81 14.002 168.16 14.886 165.43 14.886H163.272ZM174.842 12.442C174.842 13.924 175.752 14.912 178.352 14.912C180.952 14.912 181.862 13.924 181.862 12.442V9.608C181.862 8.126 180.952 7.138 178.352 7.138C175.752 7.138 174.842 8.126 174.842 9.608V12.442ZM180.354 12.39C180.354 13.17 179.834 13.664 178.352 13.664C176.87 13.664 176.35 13.17 176.35 12.39V9.66C176.35 8.906 176.87 8.386 178.352 8.386C179.834 8.386 180.354 8.906 180.354 9.66V12.39ZM189.194 22.686C189.194 23.492 188.674 23.986 187.218 23.986C185.736 23.986 185.216 23.492 185.216 22.686V19.982C185.216 19.202 185.736 18.708 187.218 18.708C188.674 18.708 189.194 19.202 189.194 19.982V22.686ZM183.682 22.764C183.682 24.246 184.592 25.234 187.218 25.234C189.818 25.234 190.728 24.246 190.728 22.764V19.93C190.728 18.448 189.818 17.46 187.218 17.46C184.592 17.46 183.682 18.448 183.682 19.93V22.764ZM187.53 7.71C187.634 7.502 187.582 7.32 187.322 7.32H186.438C186.152 7.32 185.996 7.502 185.892 7.71L177.988 24.61C177.91 24.766 177.936 25 178.17 25H179.106C179.366 25 179.522 24.896 179.652 24.61L187.53 7.71ZM206.64 25C210.93 25 212.282 23.284 212.282 21.204V11.116C212.282 9.036 210.93 7.32 206.64 7.32H201.388C201.154 7.32 201.05 7.45 201.05 7.71V24.61C201.05 24.87 201.128 25 201.362 25H206.64ZM206.64 8.906C209.422 8.906 210.436 9.894 210.436 11.402V20.918C210.436 22.426 209.422 23.414 206.64 23.414H202.87V8.906H206.64ZM225.582 15.302C225.582 13.3 224.438 11.948 220.876 11.948C217.288 11.948 216.092 13.3 216.092 15.302V21.854C216.092 23.856 217.262 25.208 220.824 25.208C224.412 25.208 225.582 23.856 225.582 21.854V21.308C225.582 21.048 225.452 20.944 225.192 20.944H224.256C223.996 20.944 223.892 21.048 223.892 21.308V21.75C223.892 22.946 223.268 23.752 220.876 23.752C218.484 23.752 217.86 22.946 217.86 21.75V18.864H225.218C225.478 18.864 225.582 18.734 225.582 18.5V15.302ZM217.86 15.406C217.86 14.236 218.536 13.404 220.876 13.404C223.164 13.404 223.892 14.236 223.892 15.406V17.486H217.86V15.406ZM234.038 18.526L238.068 12.546C238.224 12.338 238.146 12.156 237.886 12.156H236.846C236.56 12.156 236.404 12.338 236.274 12.546L233.18 17.226L229.956 12.546C229.8 12.338 229.644 12.156 229.384 12.156H228.188C227.928 12.156 227.85 12.338 228.006 12.546L232.036 18.474L227.876 24.61C227.746 24.818 227.824 25 228.084 25H229.124C229.41 25 229.566 24.818 229.696 24.61L232.92 19.774L236.274 24.61C236.404 24.818 236.56 25 236.846 25H238.016C238.276 25 238.354 24.818 238.224 24.61L234.038 18.526ZM256.203 15.302C256.203 13.3 255.059 11.948 251.497 11.948C247.909 11.948 246.713 13.3 246.713 15.302V21.854C246.713 23.856 247.883 25.208 251.445 25.208C255.033 25.208 256.203 23.856 256.203 21.854V21.308C256.203 21.048 256.073 20.944 255.813 20.944H254.877C254.617 20.944 254.513 21.048 254.513 21.308V21.75C254.513 22.946 253.889 23.752 251.497 23.752C249.105 23.752 248.481 22.946 248.481 21.75V18.864H255.839C256.099 18.864 256.203 18.734 256.203 18.5V15.302ZM248.481 15.406C248.481 14.236 249.157 13.404 251.497 13.404C253.785 13.404 254.513 14.236 254.513 15.406V17.486H248.481V15.406ZM264.659 18.526L268.689 12.546C268.845 12.338 268.767 12.156 268.507 12.156H267.467C267.181 12.156 267.025 12.338 266.895 12.546L263.801 17.226L260.577 12.546C260.421 12.338 260.265 12.156 260.005 12.156H258.809C258.549 12.156 258.471 12.338 258.627 12.546L262.657 18.474L258.497 24.61C258.367 24.818 258.445 25 258.705 25H259.745C260.031 25 260.187 24.818 260.317 24.61L263.541 19.774L266.895 24.61C267.025 24.818 267.181 25 267.467 25H268.637C268.897 25 268.975 24.818 268.845 24.61L264.659 18.526ZM275.693 11.948C272.131 11.948 270.961 13.3 270.961 15.302V21.854C270.961 23.856 272.105 25.208 275.667 25.208C279.229 25.208 280.425 23.856 280.425 21.854V21.152C280.425 20.866 280.321 20.762 280.035 20.762H279.073C278.787 20.762 278.683 20.866 278.683 21.152V21.724C278.683 22.946 278.033 23.726 275.719 23.726C273.405 23.726 272.755 22.946 272.755 21.724V15.406C272.755 14.21 273.405 13.43 275.719 13.43C278.033 13.43 278.683 14.21 278.683 15.406V15.796C278.683 16.056 278.787 16.186 279.073 16.186H280.035C280.321 16.186 280.425 16.056 280.425 15.796V15.302C280.425 13.3 279.255 11.948 275.693 11.948ZM285.483 7.216C285.483 6.956 285.379 6.826 285.119 6.826H284.079C283.793 6.826 283.689 6.956 283.689 7.216V24.61C283.689 24.87 283.793 25 284.079 25H285.119C285.379 25 285.483 24.87 285.483 24.61V15.016C286.081 14.548 287.485 13.56 289.409 13.56C291.073 13.56 291.697 14.366 291.697 15.536V24.61C291.697 24.87 291.827 25 292.087 25H293.127C293.387 25 293.491 24.87 293.491 24.61V15.146C293.491 13.3 292.321 11.948 289.903 11.948C287.719 11.948 286.237 12.858 285.483 13.482V7.216ZM297.268 15.692C297.268 15.978 297.372 16.108 297.632 16.108H298.568C298.854 16.108 298.958 15.978 298.958 15.692V15.38C298.958 14.21 299.608 13.43 301.922 13.43C304.236 13.43 304.86 14.262 304.86 15.432V17.772H300.388C298.126 17.772 297.008 19.15 297.008 20.84V22.14C297.008 23.83 298.178 25.208 300.596 25.208C302.676 25.208 304.132 24.272 304.886 23.674L304.938 24.61C304.964 24.87 305.042 25 305.328 25H306.264C306.524 25 306.628 24.87 306.628 24.61V15.25C306.628 13.3 305.51 11.948 301.948 11.948C298.438 11.948 297.268 13.3 297.268 15.25V15.692ZM301.012 23.7C299.452 23.7 298.75 23.05 298.75 21.906V21.074C298.75 19.93 299.322 19.202 300.726 19.202H304.86V22.244C304.262 22.712 302.884 23.7 301.012 23.7ZM311.903 12.156H310.967C310.681 12.156 310.577 12.286 310.577 12.546V24.61C310.577 24.87 310.681 25 310.967 25H312.007C312.267 25 312.371 24.87 312.371 24.61V15.016C312.969 14.548 314.373 13.56 316.297 13.56C317.961 13.56 318.585 14.366 318.585 15.536V24.61C318.585 24.87 318.715 25 318.975 25H320.015C320.275 25 320.379 24.87 320.379 24.61V15.146C320.379 13.3 319.209 11.948 316.791 11.948C314.581 11.948 313.073 12.91 312.345 13.534L312.293 12.546C312.267 12.286 312.189 12.156 311.903 12.156ZM327.667 25.208C329.825 25.208 331.281 24.272 332.061 23.7V26.846C332.061 28.042 331.307 28.848 328.993 28.848H325.457C325.197 28.848 325.067 28.952 325.067 29.212V29.992C325.067 30.252 325.197 30.356 325.457 30.356H328.993C332.555 30.356 333.855 29.004 333.855 27.002V12.546C333.855 12.286 333.751 12.156 333.465 12.156H332.529C332.243 12.156 332.165 12.286 332.139 12.546L332.087 13.534C331.359 12.936 329.851 11.948 327.667 11.948C325.171 11.948 324.053 13.3 324.053 15.276V21.88C324.053 23.856 325.171 25.208 327.667 25.208ZM325.847 15.536C325.847 14.47 326.471 13.586 328.135 13.586C330.059 13.586 331.463 14.6 332.061 15.068V22.114C331.463 22.556 330.059 23.57 328.135 23.57C326.471 23.57 325.847 22.686 325.847 21.62V15.536ZM347.178 15.302C347.178 13.3 346.034 11.948 342.472 11.948C338.884 11.948 337.688 13.3 337.688 15.302V21.854C337.688 23.856 338.858 25.208 342.42 25.208C346.008 25.208 347.178 23.856 347.178 21.854V21.308C347.178 21.048 347.048 20.944 346.788 20.944H345.852C345.592 20.944 345.488 21.048 345.488 21.308V21.75C345.488 22.946 344.864 23.752 342.472 23.752C340.08 23.752 339.456 22.946 339.456 21.75V18.864H346.814C347.074 18.864 347.178 18.734 347.178 18.5V15.302ZM339.456 15.406C339.456 14.236 340.132 13.404 342.472 13.404C344.76 13.404 345.488 14.236 345.488 15.406V17.486H339.456V15.406Z" fill="white"/>
<path d="M2.91166 223.11C2.67766 223.162 2.52166 223.292 2.52166 223.552V224.436C2.52166 224.696 2.67766 224.8 2.91166 224.748L7.04566 223.786V237.93H2.88566C2.62566 237.93 2.49566 238.034 2.49566 238.294V239.126C2.49566 239.412 2.62566 239.516 2.88566 239.516H12.9997C13.2597 239.516 13.3897 239.412 13.3897 239.126V238.294C13.3897 238.034 13.2597 237.93 12.9997 237.93H8.89166V222.096C8.89166 221.784 8.68366 221.732 8.52766 221.758L2.91166 223.11ZM16.4575 221.836C16.1715 221.836 16.0415 221.94 16.0415 222.226V223.032C16.0415 223.318 16.1715 223.422 16.4575 223.422H25.3755L18.7195 239.126C18.6155 239.386 18.6935 239.516 19.0055 239.516H20.2795C20.5395 239.516 20.6695 239.334 20.7475 239.126L27.4035 223.344C27.4295 223.266 27.4815 223.136 27.4815 223.006V222.226C27.4815 221.94 27.3775 221.836 27.1175 221.836H16.4575ZM30.9393 226.958C30.9393 228.44 31.8493 229.428 34.4493 229.428C37.0493 229.428 37.9593 228.44 37.9593 226.958V224.124C37.9593 222.642 37.0493 221.654 34.4493 221.654C31.8493 221.654 30.9393 222.642 30.9393 224.124V226.958ZM36.4513 226.906C36.4513 227.686 35.9313 228.18 34.4493 228.18C32.9673 228.18 32.4473 227.686 32.4473 226.906V224.176C32.4473 223.422 32.9673 222.902 34.4493 222.902C35.9313 222.902 36.4513 223.422 36.4513 224.176V226.906ZM45.2913 237.202C45.2913 238.008 44.7713 238.502 43.3153 238.502C41.8333 238.502 41.3133 238.008 41.3133 237.202V234.498C41.3133 233.718 41.8333 233.224 43.3153 233.224C44.7713 233.224 45.2913 233.718 45.2913 234.498V237.202ZM39.7793 237.28C39.7793 238.762 40.6893 239.75 43.3153 239.75C45.9153 239.75 46.8253 238.762 46.8253 237.28V234.446C46.8253 232.964 45.9153 231.976 43.3153 231.976C40.6893 231.976 39.7793 232.964 39.7793 234.446V237.28ZM43.6273 222.226C43.7313 222.018 43.6793 221.836 43.4193 221.836H42.5353C42.2493 221.836 42.0933 222.018 41.9893 222.226L34.0853 239.126C34.0073 239.282 34.0333 239.516 34.2673 239.516H35.2033C35.4632 239.516 35.6193 239.412 35.7493 239.126L43.6273 222.226ZM67.8073 234.264C67.8073 234.004 67.7033 233.874 67.4433 233.874H66.4033C66.1173 233.874 66.0133 234.004 66.0133 234.264V235.642C66.0133 237.15 65.1033 238.138 62.3473 238.138C59.5913 238.138 58.6813 237.15 58.6813 235.642V225.71C58.6813 224.202 59.5913 223.214 62.3473 223.214C65.1033 223.214 66.0133 224.202 66.0133 225.71V226.75C66.0133 227.036 66.1173 227.166 66.4033 227.166H67.4433C67.7033 227.166 67.8073 227.036 67.8073 226.75V225.424C67.8073 223.344 66.6113 221.628 62.3213 221.628C58.0312 221.628 56.8353 223.344 56.8353 225.424V235.928C56.8353 238.008 58.0312 239.724 62.3213 239.724C66.6113 239.724 67.8073 238.008 67.8073 235.928V234.264ZM81.035 239.516C81.295 239.516 81.425 239.412 81.425 239.126V238.294C81.425 238.034 81.295 237.93 81.035 237.93H73.313V231.014H80.255C80.541 231.014 80.645 230.91 80.645 230.624V229.87C80.645 229.584 80.541 229.48 80.255 229.48H73.313V223.422H80.723C80.983 223.422 81.113 223.318 81.113 223.032V222.226C81.113 221.94 80.983 221.836 80.723 221.836H71.857C71.597 221.836 71.493 221.966 71.493 222.226V239.126C71.493 239.386 71.597 239.516 71.831 239.516H81.035ZM90.9257 230.546L95.7617 222.226C95.8917 221.992 95.8397 221.836 95.5797 221.836H94.3837C94.1237 221.836 93.9677 221.992 93.8377 222.226L90.0157 228.96L86.0117 222.226C85.8817 222.018 85.7257 221.836 85.4397 221.836H84.1397C83.8797 221.836 83.8537 222.044 83.9837 222.252L88.8457 230.494L83.8537 239.074C83.7237 239.308 83.7757 239.516 84.0357 239.516H85.2577C85.5437 239.516 85.6737 239.334 85.8037 239.126L89.8077 232.158L93.9417 239.126C94.0717 239.334 94.2277 239.516 94.5137 239.516H95.7877C96.0737 239.516 96.1257 239.334 95.9957 239.126L90.9257 230.546ZM114.18 229.818C114.18 227.816 113.036 226.464 109.474 226.464C105.886 226.464 104.69 227.816 104.69 229.818V236.37C104.69 238.372 105.86 239.724 109.422 239.724C113.01 239.724 114.18 238.372 114.18 236.37V235.824C114.18 235.564 114.05 235.46 113.79 235.46H112.854C112.594 235.46 112.49 235.564 112.49 235.824V236.266C112.49 237.462 111.866 238.268 109.474 238.268C107.082 238.268 106.458 237.462 106.458 236.266V233.38H113.816C114.076 233.38 114.18 233.25 114.18 233.016V229.818ZM106.458 229.922C106.458 228.752 107.134 227.92 109.474 227.92C111.762 227.92 112.49 228.752 112.49 229.922V232.002H106.458V229.922ZM122.636 233.042L126.666 227.062C126.822 226.854 126.744 226.672 126.484 226.672H125.444C125.158 226.672 125.002 226.854 124.872 227.062L121.778 231.742L118.554 227.062C118.398 226.854 118.242 226.672 117.982 226.672H116.786C116.526 226.672 116.448 226.854 116.604 227.062L120.634 232.99L116.474 239.126C116.344 239.334 116.422 239.516 116.682 239.516H117.722C118.008 239.516 118.164 239.334 118.294 239.126L121.518 234.29L124.872 239.126C125.002 239.334 125.158 239.516 125.444 239.516H126.614C126.874 239.516 126.952 239.334 126.822 239.126L122.636 233.042ZM133.67 226.464C130.108 226.464 128.938 227.816 128.938 229.818V236.37C128.938 238.372 130.082 239.724 133.644 239.724C137.206 239.724 138.402 238.372 138.402 236.37V235.668C138.402 235.382 138.298 235.278 138.012 235.278H137.05C136.764 235.278 136.66 235.382 136.66 235.668V236.24C136.66 237.462 136.01 238.242 133.696 238.242C131.382 238.242 130.732 237.462 130.732 236.24V229.922C130.732 228.726 131.382 227.946 133.696 227.946C136.01 227.946 136.66 228.726 136.66 229.922V230.312C136.66 230.572 136.764 230.702 137.05 230.702H138.012C138.298 230.702 138.402 230.572 138.402 230.312V229.818C138.402 227.816 137.232 226.464 133.67 226.464ZM143.459 221.732C143.459 221.472 143.355 221.342 143.095 221.342H142.055C141.769 221.342 141.665 221.472 141.665 221.732V239.126C141.665 239.386 141.769 239.516 142.055 239.516H143.095C143.355 239.516 143.459 239.386 143.459 239.126V229.532C144.057 229.064 145.461 228.076 147.385 228.076C149.049 228.076 149.673 228.882 149.673 230.052V239.126C149.673 239.386 149.803 239.516 150.063 239.516H151.103C151.363 239.516 151.467 239.386 151.467 239.126V229.662C151.467 227.816 150.297 226.464 147.879 226.464C145.695 226.464 144.213 227.374 143.459 227.998V221.732ZM155.245 230.208C155.245 230.494 155.349 230.624 155.609 230.624H156.545C156.831 230.624 156.935 230.494 156.935 230.208V229.896C156.935 228.726 157.585 227.946 159.899 227.946C162.213 227.946 162.837 228.778 162.837 229.948V232.288H158.365C156.103 232.288 154.985 233.666 154.985 235.356V236.656C154.985 238.346 156.155 239.724 158.573 239.724C160.653 239.724 162.109 238.788 162.863 238.19L162.915 239.126C162.941 239.386 163.019 239.516 163.305 239.516H164.241C164.501 239.516 164.605 239.386 164.605 239.126V229.766C164.605 227.816 163.487 226.464 159.925 226.464C156.415 226.464 155.245 227.816 155.245 229.766V230.208ZM158.989 238.216C157.429 238.216 156.727 237.566 156.727 236.422V235.59C156.727 234.446 157.299 233.718 158.703 233.718H162.837V236.76C162.239 237.228 160.861 238.216 158.989 238.216ZM169.88 226.672H168.944C168.658 226.672 168.554 226.802 168.554 227.062V239.126C168.554 239.386 168.658 239.516 168.944 239.516H169.984C170.244 239.516 170.348 239.386 170.348 239.126V229.532C170.946 229.064 172.35 228.076 174.274 228.076C175.938 228.076 176.562 228.882 176.562 230.052V239.126C176.562 239.386 176.692 239.516 176.952 239.516H177.992C178.252 239.516 178.356 239.386 178.356 239.126V229.662C178.356 227.816 177.186 226.464 174.768 226.464C172.558 226.464 171.05 227.426 170.322 228.05L170.27 227.062C170.244 226.802 170.166 226.672 169.88 226.672ZM185.644 239.724C187.802 239.724 189.258 238.788 190.038 238.216V241.362C190.038 242.558 189.284 243.364 186.97 243.364H183.434C183.174 243.364 183.044 243.468 183.044 243.728V244.508C183.044 244.768 183.174 244.872 183.434 244.872H186.97C190.532 244.872 191.832 243.52 191.832 241.518V227.062C191.832 226.802 191.728 226.672 191.442 226.672H190.506C190.22 226.672 190.142 226.802 190.116 227.062L190.064 228.05C189.336 227.452 187.828 226.464 185.644 226.464C183.148 226.464 182.03 227.816 182.03 229.792V236.396C182.03 238.372 183.148 239.724 185.644 239.724ZM183.824 230.052C183.824 228.986 184.448 228.102 186.112 228.102C188.036 228.102 189.44 229.116 190.038 229.584V236.63C189.44 237.072 188.036 238.086 186.112 238.086C184.448 238.086 183.824 237.202 183.824 236.136V230.052ZM205.154 229.818C205.154 227.816 204.01 226.464 200.448 226.464C196.86 226.464 195.664 227.816 195.664 229.818V236.37C195.664 238.372 196.834 239.724 200.396 239.724C203.984 239.724 205.154 238.372 205.154 236.37V235.824C205.154 235.564 205.024 235.46 204.764 235.46H203.828C203.568 235.46 203.464 235.564 203.464 235.824V236.266C203.464 237.462 202.84 238.268 200.448 238.268C198.056 238.268 197.432 237.462 197.432 236.266V233.38H204.79C205.05 233.38 205.154 233.25 205.154 233.016V229.818ZM197.432 229.922C197.432 228.752 198.108 227.92 200.448 227.92C202.736 227.92 203.464 228.752 203.464 229.922V232.002H197.432V229.922ZM215.715 230.182C215.715 230.416 215.819 230.52 216.053 230.52H217.015C217.275 230.52 217.379 230.416 217.379 230.182V229.428C217.379 227.868 216.157 226.464 212.855 226.464C209.527 226.464 208.357 227.868 208.357 229.428V230.442C208.357 231.742 209.449 232.652 210.359 232.964L214.363 234.29C215.247 234.576 215.897 234.966 215.897 235.746V236.708C215.897 237.748 214.805 238.346 212.829 238.346C210.827 238.346 209.787 237.748 209.787 236.708V236.084C209.787 235.85 209.709 235.72 209.449 235.72H208.487C208.227 235.72 208.123 235.85 208.123 236.084V236.786C208.123 238.346 209.475 239.724 212.829 239.724C216.157 239.724 217.561 238.346 217.561 236.786V235.304C217.561 234.082 216.625 233.25 215.325 232.834L211.321 231.534C210.749 231.352 209.995 230.91 209.995 230.104V229.428C209.995 228.414 210.905 227.816 212.829 227.816C214.779 227.816 215.715 228.414 215.715 229.428V230.182Z" fill="white"/>
<mask id="path-17-inside-1_1127_16774" fill="white">
<path d="M624.323 249.375C624.323 225.431 619.607 201.72 610.443 179.598C601.28 157.476 587.849 137.376 570.918 120.444C553.986 103.513 533.886 90.0818 511.764 80.9186C489.642 71.7553 465.931 67.0391 441.987 67.0391L441.987 249.375H624.323Z"/>
</mask>
<path d="M624.323 249.375C624.323 225.431 619.607 201.72 610.443 179.598C601.28 157.476 587.849 137.376 570.918 120.444C553.986 103.513 533.886 90.0818 511.764 80.9186C489.642 71.7553 465.931 67.0391 441.987 67.0391L441.987 249.375H624.323Z" stroke="#2CE776" stroke-width="130" mask="url(#path-17-inside-1_1127_16774)"/>
<mask id="path-18-inside-2_1127_16774" fill="white">
<path d="M595.477 347.8C614.459 318.197 624.476 283.736 624.321 248.57L441.987 249.375L595.477 347.8Z"/>
</mask>
<path d="M595.477 347.8C614.459 318.197 624.476 283.736 624.321 248.57L441.987 249.375L595.477 347.8Z" stroke="#1DA854" stroke-width="130" mask="url(#path-18-inside-2_1127_16774)"/>
<mask id="path-19-inside-3_1127_16774" fill="white">
<path d="M565.574 383.438C577.182 372.736 587.352 360.572 595.827 347.251L441.987 249.375L565.574 383.438Z"/>
</mask>
<path d="M565.574 383.438C577.182 372.736 587.352 360.572 595.827 347.251L441.987 249.375L565.574 383.438Z" stroke="#167E3F" stroke-width="130" mask="url(#path-19-inside-3_1127_16774)"/>
<mask id="path-20-inside-4_1127_16774" fill="white">
<path d="M513.603 417.058C532.768 408.873 550.387 397.464 565.696 383.325L441.987 249.375L513.603 417.058Z"/>
</mask>
<path d="M513.603 417.058C532.768 408.873 550.387 397.464 565.696 383.325L441.987 249.375L513.603 417.058Z" stroke="#36D04F" stroke-width="130" mask="url(#path-20-inside-4_1127_16774)"/>
<mask id="path-21-inside-5_1127_16774" fill="white">
<path d="M490.996 425.002C498.912 422.793 506.669 420.051 514.214 416.796L441.987 249.375L490.996 425.002Z"/>
</mask>
<path d="M490.996 425.002C498.912 422.793 506.669 420.051 514.214 416.796L441.987 249.375L490.996 425.002Z" stroke="#0CB552" stroke-width="130" mask="url(#path-21-inside-5_1127_16774)"/>
<mask id="path-22-inside-6_1127_16774" fill="white">
<path d="M347.226 405.154C368.692 418.212 392.624 426.692 417.523 430.063C442.421 433.434 467.747 431.623 491.912 424.744L441.987 249.375L347.226 405.154Z"/>
</mask>
<path d="M347.226 405.154C368.692 418.212 392.624 426.692 417.523 430.063C442.421 433.434 467.747 431.623 491.912 424.744L441.987 249.375L347.226 405.154Z" stroke="#079E44" stroke-width="130" mask="url(#path-22-inside-6_1127_16774)"/>
<mask id="path-23-inside-7_1127_16774" fill="white">
<path d="M260.93 227.813C256.641 263.826 263.189 300.299 279.737 332.571C296.285 364.843 322.08 391.447 353.826 408.982L441.987 249.375L260.93 227.813Z"/>
</mask>
<path d="M260.93 227.813C256.641 263.826 263.189 300.299 279.737 332.571C296.285 364.843 322.08 391.447 353.826 408.982L441.987 249.375L260.93 227.813Z" stroke="#23E770" stroke-width="130" mask="url(#path-23-inside-7_1127_16774)"/>
<mask id="path-24-inside-8_1127_16774" fill="white">
<path d="M441.987 67.0391C397.061 67.0391 353.717 83.6248 320.267 113.615C286.817 143.606 265.617 184.89 260.732 229.549L441.987 249.375V67.0391Z"/>
</mask>
<path d="M441.987 67.0391C397.061 67.0391 353.717 83.6248 320.267 113.615C286.817 143.606 265.617 184.89 260.732 229.549L441.987 249.375V67.0391Z" stroke="#007E35" stroke-width="130" mask="url(#path-24-inside-8_1127_16774)"/>
<circle cx="441.986" cy="249.38" r="124.239" fill="#050A12"/>
</svg>
