<svg width="791" height="176" viewBox="0 0 791 176" fill="none" xmlns="http://www.w3.org/2000/svg">
<path d="M88 2C103.82 2 119.334 6.36375 132.834 14.6112C146.334 22.8586 157.298 34.67 164.519 48.746C171.74 62.822 174.938 78.617 173.762 94.3934C172.586 110.17 167.081 125.316 157.853 138.166C148.625 151.015 136.031 161.071 121.457 167.225C106.883 173.38 90.8939 175.395 75.2487 173.049C59.6034 170.704 44.9084 164.088 32.7802 153.93C20.6521 143.772 11.5609 130.466 6.50677 115.475L88 88V2Z" fill="#050A12" stroke="#24D269" stroke-width="3" stroke-linecap="round" stroke-dasharray="5 5"/>
<path d="M293 2C311.474 2 329.456 7.9487 344.286 18.9654L293 88V2Z" fill="#050A12" stroke="#24D269" stroke-width="3" stroke-linecap="round" stroke-dasharray="5 5"/>
<path d="M498 2C514.282 2 530.229 6.62202 543.988 15.3286C557.746 24.0352 568.75 36.4686 575.721 51.1829C582.691 65.8973 585.341 82.2881 583.363 98.4494C581.384 114.611 574.859 129.878 564.545 142.477L498 88V2Z" fill="#050A12" stroke="#24D269" stroke-width="3" stroke-linecap="round" stroke-dasharray="5 5"/>
<path d="M703 2C722.12 2 740.694 8.37134 755.788 20.1072C770.882 31.843 781.635 48.2741 786.347 66.8039L703 88V2Z" fill="#050A12" stroke="#24D269" stroke-width="3" stroke-linecap="round" stroke-dasharray="5 5"/>
<path d="M6.3661 115.054C2.07852 102.116 0.927353 88.3447 3.00748 74.8748C5.08759 61.4049 10.3394 48.6223 18.33 37.5808C26.3207 26.5392 36.8212 17.555 48.966 11.3688C61.1107 5.18253 74.5519 1.97144 88.1815 2.0002L88 88L6.3661 115.054Z" fill="#050A12" stroke="#3F3F3F" stroke-width="3" stroke-linecap="round" stroke-dasharray="5 5"/>
<path d="M344.893 19.4205C361.133 31.7092 372.485 49.3626 376.928 69.2378C381.372 89.1129 378.617 109.92 369.155 127.954C359.694 145.989 344.139 160.08 325.261 167.72C306.382 175.359 285.405 176.052 266.064 169.673C246.723 163.294 230.273 150.259 219.644 132.887C209.014 115.516 204.894 94.9354 208.017 74.8106C211.141 54.6858 221.305 36.3225 236.7 22.9901C252.095 9.65759 271.722 2.22121 292.086 2.00485L293 88L344.893 19.4205Z" fill="#050A12" stroke="#3F3F3F" stroke-width="3" stroke-linecap="round" stroke-dasharray="5 5"/>
<circle cx="293" cy="88" r="84" fill="#050C13"/>
<path d="M273.345 62.096H278.105V92H284.265V52.8H280.121C279.169 55.432 278.105 57.728 273.345 57.728V62.096ZM297.396 61.816C297.396 59.016 298.628 57.952 300.588 57.952C302.548 57.952 303.78 59.016 303.78 61.816V82.984C303.78 85.784 302.548 86.848 300.588 86.848C298.628 86.848 297.396 85.784 297.396 82.984V61.816ZM291.236 82.592C291.236 88.864 294.54 92.448 300.588 92.448C306.636 92.448 309.94 88.864 309.94 82.592V62.208C309.94 55.936 306.636 52.352 300.588 52.352C294.54 52.352 291.236 55.936 291.236 62.208V82.592Z" fill="white"/>
<path opacity="0.6" d="M271.43 123V111.547H272.945V116.25H278.898V111.547H280.414V123H278.898V117.602H272.945V123H271.43ZM282.242 118.852C282.242 117.315 282.669 116.177 283.523 115.438C284.237 114.823 285.107 114.516 286.133 114.516C287.273 114.516 288.206 114.891 288.93 115.641C289.654 116.385 290.016 117.417 290.016 118.734C290.016 119.802 289.854 120.643 289.531 121.258C289.214 121.867 288.747 122.341 288.133 122.68C287.523 123.018 286.857 123.188 286.133 123.188C284.971 123.188 284.031 122.815 283.312 122.07C282.599 121.326 282.242 120.253 282.242 118.852ZM283.688 118.852C283.688 119.914 283.919 120.711 284.383 121.242C284.846 121.768 285.43 122.031 286.133 122.031C286.831 122.031 287.411 121.766 287.875 121.234C288.339 120.703 288.57 119.893 288.57 118.805C288.57 117.779 288.336 117.003 287.867 116.477C287.404 115.945 286.826 115.68 286.133 115.68C285.43 115.68 284.846 115.943 284.383 116.469C283.919 116.995 283.688 117.789 283.688 118.852ZM297.109 123V121.781C296.464 122.719 295.586 123.188 294.477 123.188C293.987 123.188 293.529 123.094 293.102 122.906C292.68 122.719 292.365 122.484 292.156 122.203C291.953 121.917 291.81 121.568 291.727 121.156C291.669 120.88 291.641 120.443 291.641 119.844V114.703H293.047V119.305C293.047 120.039 293.076 120.534 293.133 120.789C293.221 121.159 293.409 121.451 293.695 121.664C293.982 121.872 294.336 121.977 294.758 121.977C295.18 121.977 295.576 121.87 295.945 121.656C296.315 121.438 296.576 121.143 296.727 120.773C296.883 120.398 296.961 119.857 296.961 119.148V114.703H298.367V123H297.109ZM300.562 123V114.703H301.828V115.961C302.151 115.372 302.448 114.984 302.719 114.797C302.995 114.609 303.297 114.516 303.625 114.516C304.099 114.516 304.581 114.667 305.07 114.969L304.586 116.273C304.242 116.07 303.898 115.969 303.555 115.969C303.247 115.969 302.971 116.062 302.727 116.25C302.482 116.432 302.307 116.688 302.203 117.016C302.047 117.516 301.969 118.062 301.969 118.656V123H300.562ZM305.344 120.523L306.734 120.305C306.812 120.862 307.029 121.289 307.383 121.586C307.742 121.883 308.242 122.031 308.883 122.031C309.529 122.031 310.008 121.901 310.32 121.641C310.633 121.375 310.789 121.065 310.789 120.711C310.789 120.393 310.651 120.143 310.375 119.961C310.182 119.836 309.703 119.677 308.938 119.484C307.906 119.224 307.19 119 306.789 118.812C306.393 118.62 306.091 118.357 305.883 118.023C305.68 117.685 305.578 117.312 305.578 116.906C305.578 116.536 305.661 116.195 305.828 115.883C306 115.565 306.232 115.302 306.523 115.094C306.742 114.932 307.039 114.797 307.414 114.688C307.794 114.573 308.201 114.516 308.633 114.516C309.284 114.516 309.854 114.609 310.344 114.797C310.839 114.984 311.203 115.24 311.438 115.562C311.672 115.88 311.833 116.307 311.922 116.844L310.547 117.031C310.484 116.604 310.302 116.271 310 116.031C309.703 115.792 309.281 115.672 308.734 115.672C308.089 115.672 307.628 115.779 307.352 115.992C307.076 116.206 306.938 116.456 306.938 116.742C306.938 116.924 306.995 117.089 307.109 117.234C307.224 117.385 307.404 117.51 307.648 117.609C307.789 117.661 308.203 117.781 308.891 117.969C309.885 118.234 310.578 118.453 310.969 118.625C311.365 118.792 311.674 119.036 311.898 119.359C312.122 119.682 312.234 120.083 312.234 120.562C312.234 121.031 312.096 121.474 311.82 121.891C311.549 122.302 311.156 122.622 310.641 122.852C310.125 123.076 309.542 123.188 308.891 123.188C307.812 123.188 306.99 122.964 306.422 122.516C305.859 122.068 305.5 121.404 305.344 120.523Z" fill="white"/>
<path d="M563.566 143.652C554.16 154.733 542.099 163.25 528.51 168.406C514.92 173.563 500.245 175.191 485.856 173.138C471.467 171.086 457.832 165.42 446.226 156.669C434.62 147.919 425.422 136.37 419.489 123.101C413.557 109.831 411.084 95.2749 412.303 80.7911C413.521 66.3072 418.391 52.3685 426.456 40.2768C434.522 28.185 445.521 18.3349 458.426 11.6464C471.33 4.95787 485.72 1.6492 500.25 2.02943L498 88L563.566 143.652Z" fill="#050A12" stroke="#3F3F3F" stroke-width="3" stroke-linecap="round" stroke-dasharray="5 5"/>
<circle cx="498" cy="88" r="84" fill="#050C13"/>
<path d="M490.745 62.432C490.745 73.744 478.537 75.648 478.537 87.184V92H496.345V86.4H484.697C484.641 86.12 484.641 85.84 484.641 85.56C484.641 79.12 496.905 74.528 496.905 62.208C496.905 55.936 493.769 52.352 487.721 52.352C481.673 52.352 478.537 55.936 478.537 62.208V66.016H484.361V61.816C484.361 59.016 485.593 57.952 487.553 57.952C489.513 57.952 490.745 58.904 490.745 62.432ZM506.396 61.816C506.396 59.016 507.628 57.952 509.588 57.952C511.548 57.952 512.78 59.016 512.78 61.816V82.984C512.78 85.784 511.548 86.848 509.588 86.848C507.628 86.848 506.396 85.784 506.396 82.984V61.816ZM500.236 82.592C500.236 88.864 503.54 92.448 509.588 92.448C515.636 92.448 518.94 88.864 518.94 82.592V62.208C518.94 55.936 515.636 52.352 509.588 52.352C503.54 52.352 500.236 55.936 500.236 62.208V82.592Z" fill="white"/>
<path opacity="0.6" d="M482.289 123V111.547H484.57L487.281 119.656C487.531 120.411 487.714 120.977 487.828 121.352C487.958 120.935 488.161 120.323 488.438 119.516L491.18 111.547H493.219V123H491.758V113.414L488.43 123H487.062L483.75 113.25V123H482.289ZM495.492 113.164V111.547H496.898V113.164H495.492ZM495.492 123V114.703H496.898V123H495.492ZM499.047 123V114.703H500.312V115.883C500.922 114.971 501.802 114.516 502.953 114.516C503.453 114.516 503.911 114.607 504.328 114.789C504.75 114.966 505.065 115.201 505.273 115.492C505.482 115.784 505.628 116.13 505.711 116.531C505.763 116.792 505.789 117.247 505.789 117.898V123H504.383V117.953C504.383 117.38 504.328 116.953 504.219 116.672C504.109 116.385 503.914 116.159 503.633 115.992C503.357 115.82 503.031 115.734 502.656 115.734C502.057 115.734 501.539 115.924 501.102 116.305C500.669 116.685 500.453 117.406 500.453 118.469V123H499.047ZM507.391 120.523L508.781 120.305C508.859 120.862 509.076 121.289 509.43 121.586C509.789 121.883 510.289 122.031 510.93 122.031C511.576 122.031 512.055 121.901 512.367 121.641C512.68 121.375 512.836 121.065 512.836 120.711C512.836 120.393 512.698 120.143 512.422 119.961C512.229 119.836 511.75 119.677 510.984 119.484C509.953 119.224 509.237 119 508.836 118.812C508.44 118.62 508.138 118.357 507.93 118.023C507.727 117.685 507.625 117.312 507.625 116.906C507.625 116.536 507.708 116.195 507.875 115.883C508.047 115.565 508.279 115.302 508.57 115.094C508.789 114.932 509.086 114.797 509.461 114.688C509.841 114.573 510.247 114.516 510.68 114.516C511.331 114.516 511.901 114.609 512.391 114.797C512.885 114.984 513.25 115.24 513.484 115.562C513.719 115.88 513.88 116.307 513.969 116.844L512.594 117.031C512.531 116.604 512.349 116.271 512.047 116.031C511.75 115.792 511.328 115.672 510.781 115.672C510.135 115.672 509.674 115.779 509.398 115.992C509.122 116.206 508.984 116.456 508.984 116.742C508.984 116.924 509.042 117.089 509.156 117.234C509.271 117.385 509.451 117.51 509.695 117.609C509.836 117.661 510.25 117.781 510.938 117.969C511.932 118.234 512.625 118.453 513.016 118.625C513.411 118.792 513.721 119.036 513.945 119.359C514.169 119.682 514.281 120.083 514.281 120.562C514.281 121.031 514.143 121.474 513.867 121.891C513.596 122.302 513.203 122.622 512.688 122.852C512.172 123.076 511.589 123.188 510.938 123.188C509.859 123.188 509.036 122.964 508.469 122.516C507.906 122.068 507.547 121.404 507.391 120.523Z" fill="white"/>
<path d="M786.661 68.0807C790.788 85.4121 789.43 103.597 782.775 120.124C776.12 136.65 764.497 150.702 749.512 160.337C734.526 169.973 716.918 174.716 699.121 173.912C681.323 173.109 664.214 166.798 650.158 155.851C636.102 144.904 625.793 129.862 620.654 112.803C615.516 95.7441 615.803 77.5105 621.474 60.6216C627.146 43.7326 637.923 29.022 652.316 18.5222C666.709 8.02254 684.008 2.25203 701.822 2.00806L703 88L786.661 68.0807Z" fill="#050A12" stroke="#3F3F3F" stroke-width="3" stroke-linecap="round" stroke-dasharray="5 5"/>
<circle cx="703" cy="88" r="84" fill="#050C13"/>
<path d="M685.345 62.096H690.105V92H696.265V52.8H692.121C691.169 55.432 690.105 57.728 685.345 57.728V62.096ZM715.612 64.616C715.612 67.752 714.212 68.76 711.916 68.76H709.508V74.36H711.58C714.38 74.36 715.612 75.704 715.612 79.344V82.424C715.612 85.896 714.38 86.848 712.42 86.848C710.46 86.848 709.228 85.784 709.228 82.984V79.344H703.404V82.592C703.404 88.864 706.54 92.448 712.588 92.448C718.636 92.448 721.772 88.864 721.772 82.592V79.512C721.772 75.536 720.54 72.624 717.46 71.28C720.428 70.048 721.772 67.416 721.772 63.216V62.208C721.772 55.936 718.636 52.352 712.588 52.352C706.54 52.352 703.404 55.936 703.404 62.208V64.336H709.228V61.816C709.228 59.016 710.46 57.952 712.42 57.952C714.38 57.952 715.612 58.904 715.612 62.432V64.616Z" fill="white"/>
<path opacity="0.6" d="M689.93 119.32L691.359 119.195C691.427 119.768 691.583 120.24 691.828 120.609C692.078 120.974 692.464 121.271 692.984 121.5C693.505 121.724 694.091 121.836 694.742 121.836C695.32 121.836 695.831 121.75 696.273 121.578C696.716 121.406 697.044 121.172 697.258 120.875C697.477 120.573 697.586 120.245 697.586 119.891C697.586 119.531 697.482 119.219 697.273 118.953C697.065 118.682 696.721 118.456 696.242 118.273C695.935 118.154 695.255 117.969 694.203 117.719C693.151 117.464 692.414 117.224 691.992 117C691.445 116.714 691.036 116.359 690.766 115.938C690.5 115.51 690.367 115.034 690.367 114.508C690.367 113.93 690.531 113.391 690.859 112.891C691.188 112.385 691.667 112.003 692.297 111.742C692.927 111.482 693.628 111.352 694.398 111.352C695.247 111.352 695.995 111.49 696.641 111.766C697.292 112.036 697.792 112.438 698.141 112.969C698.49 113.5 698.677 114.102 698.703 114.773L697.25 114.883C697.172 114.159 696.906 113.612 696.453 113.242C696.005 112.872 695.341 112.688 694.461 112.688C693.544 112.688 692.875 112.857 692.453 113.195C692.036 113.529 691.828 113.932 691.828 114.406C691.828 114.818 691.977 115.156 692.273 115.422C692.565 115.688 693.326 115.961 694.555 116.242C695.789 116.518 696.635 116.76 697.094 116.969C697.76 117.276 698.253 117.667 698.57 118.141C698.888 118.609 699.047 119.151 699.047 119.766C699.047 120.375 698.872 120.951 698.523 121.492C698.174 122.029 697.672 122.448 697.016 122.75C696.365 123.047 695.63 123.195 694.812 123.195C693.776 123.195 692.906 123.044 692.203 122.742C691.505 122.44 690.956 121.987 690.555 121.383C690.159 120.773 689.951 120.086 689.93 119.32ZM706.617 120.328L708.07 120.508C707.841 121.357 707.417 122.016 706.797 122.484C706.177 122.953 705.385 123.188 704.422 123.188C703.208 123.188 702.245 122.815 701.531 122.07C700.823 121.32 700.469 120.271 700.469 118.922C700.469 117.526 700.828 116.443 701.547 115.672C702.266 114.901 703.198 114.516 704.344 114.516C705.453 114.516 706.359 114.893 707.062 115.648C707.766 116.404 708.117 117.466 708.117 118.836C708.117 118.919 708.115 119.044 708.109 119.211H701.922C701.974 120.122 702.232 120.82 702.695 121.305C703.159 121.789 703.737 122.031 704.43 122.031C704.945 122.031 705.385 121.896 705.75 121.625C706.115 121.354 706.404 120.922 706.617 120.328ZM702 118.055H706.633C706.57 117.357 706.393 116.833 706.102 116.484C705.654 115.943 705.073 115.672 704.359 115.672C703.714 115.672 703.169 115.888 702.727 116.32C702.289 116.753 702.047 117.331 702 118.055ZM715.258 119.961L716.641 120.141C716.49 121.094 716.102 121.841 715.477 122.383C714.857 122.919 714.094 123.188 713.188 123.188C712.052 123.188 711.138 122.818 710.445 122.078C709.758 121.333 709.414 120.268 709.414 118.883C709.414 117.987 709.562 117.203 709.859 116.531C710.156 115.859 710.607 115.357 711.211 115.023C711.82 114.685 712.482 114.516 713.195 114.516C714.096 114.516 714.833 114.745 715.406 115.203C715.979 115.656 716.346 116.302 716.508 117.141L715.141 117.352C715.01 116.794 714.779 116.375 714.445 116.094C714.117 115.812 713.719 115.672 713.25 115.672C712.542 115.672 711.966 115.927 711.523 116.438C711.081 116.943 710.859 117.745 710.859 118.844C710.859 119.958 711.073 120.768 711.5 121.273C711.927 121.779 712.484 122.031 713.172 122.031C713.724 122.031 714.185 121.862 714.555 121.523C714.924 121.185 715.159 120.664 715.258 119.961Z" fill="white"/>
<circle cx="88" cy="88" r="84" fill="#050C13"/>
<path d="M67.0809 84.888H78.9529V92H85.0009V84.888H87.9129V79.288H85.0009V52.8H78.2809L67.0809 79.288V84.888ZM72.7369 79.288L78.9529 64.56V79.288H72.7369ZM90.46 79.344V82.592C90.46 88.864 93.596 92.448 99.644 92.448C105.692 92.448 108.828 88.864 108.828 82.592V73.856C108.828 68.088 106.532 64.896 101.996 64.896C99.532 64.896 97.74 65.904 96.62 67.752L97.124 58.4H107.82V52.8H91.58L90.46 75.536H96.284V74.36C96.284 71.56 97.516 70.496 99.476 70.496C101.436 70.496 102.668 71.56 102.668 74.36V82.984C102.668 85.784 101.436 86.792 99.476 86.792C97.516 86.792 96.284 85.784 96.284 82.984V79.344H90.46Z" fill="white"/>
<path opacity="0.6" d="M71.5 123V111.547H75.4453C76.3359 111.547 77.0156 111.602 77.4844 111.711C78.1406 111.862 78.7005 112.135 79.1641 112.531C79.7682 113.042 80.2188 113.695 80.5156 114.492C80.8177 115.284 80.9688 116.19 80.9688 117.211C80.9688 118.081 80.8672 118.852 80.6641 119.523C80.4609 120.195 80.2005 120.753 79.8828 121.195C79.5651 121.633 79.2161 121.979 78.8359 122.234C78.4609 122.484 78.0052 122.674 77.4688 122.805C76.9375 122.935 76.3255 123 75.6328 123H71.5ZM73.0156 121.648H75.4609C76.2161 121.648 76.8073 121.578 77.2344 121.438C77.6667 121.297 78.0104 121.099 78.2656 120.844C78.625 120.484 78.9036 120.003 79.1016 119.398C79.3047 118.789 79.4062 118.052 79.4062 117.188C79.4062 115.99 79.2083 115.07 78.8125 114.43C78.4219 113.784 77.9453 113.352 77.3828 113.133C76.9766 112.977 76.3229 112.898 75.4219 112.898H73.0156V121.648ZM88.2969 121.977C87.776 122.419 87.2734 122.732 86.7891 122.914C86.3099 123.096 85.7943 123.188 85.2422 123.188C84.3307 123.188 83.6302 122.966 83.1406 122.523C82.651 122.076 82.4062 121.505 82.4062 120.812C82.4062 120.406 82.4974 120.036 82.6797 119.703C82.8672 119.365 83.1094 119.094 83.4062 118.891C83.7083 118.688 84.0469 118.534 84.4219 118.43C84.6979 118.357 85.1146 118.286 85.6719 118.219C86.8073 118.083 87.6432 117.922 88.1797 117.734C88.1849 117.542 88.1875 117.419 88.1875 117.367C88.1875 116.794 88.0547 116.391 87.7891 116.156C87.4297 115.839 86.8958 115.68 86.1875 115.68C85.526 115.68 85.0365 115.797 84.7188 116.031C84.4062 116.26 84.1745 116.669 84.0234 117.258L82.6484 117.07C82.7734 116.482 82.9792 116.008 83.2656 115.648C83.5521 115.284 83.9661 115.005 84.5078 114.812C85.0495 114.615 85.6771 114.516 86.3906 114.516C87.099 114.516 87.6745 114.599 88.1172 114.766C88.5599 114.932 88.8854 115.143 89.0938 115.398C89.3021 115.648 89.4479 115.966 89.5312 116.352C89.5781 116.591 89.6016 117.023 89.6016 117.648V119.523C89.6016 120.831 89.6302 121.659 89.6875 122.008C89.75 122.352 89.8698 122.682 90.0469 123H88.5781C88.4323 122.708 88.3385 122.367 88.2969 121.977ZM88.1797 118.836C87.6693 119.044 86.9036 119.221 85.8828 119.367C85.3047 119.451 84.8958 119.544 84.6562 119.648C84.4167 119.753 84.2318 119.906 84.1016 120.109C83.9714 120.307 83.9062 120.529 83.9062 120.773C83.9062 121.148 84.0469 121.461 84.3281 121.711C84.6146 121.961 85.0312 122.086 85.5781 122.086C86.1198 122.086 86.6016 121.969 87.0234 121.734C87.4453 121.495 87.7552 121.169 87.9531 120.758C88.1042 120.44 88.1797 119.971 88.1797 119.352V118.836ZM91.7266 126.195L91.5703 124.875C91.8776 124.958 92.1458 125 92.375 125C92.6875 125 92.9375 124.948 93.125 124.844C93.3125 124.74 93.4661 124.594 93.5859 124.406C93.6745 124.266 93.8177 123.917 94.0156 123.359C94.0417 123.281 94.0833 123.167 94.1406 123.016L90.9922 114.703H92.5078L94.2344 119.508C94.4583 120.117 94.6589 120.758 94.8359 121.43C94.9974 120.784 95.1901 120.154 95.4141 119.539L97.1875 114.703H98.5938L95.4375 123.141C95.099 124.052 94.8359 124.68 94.6484 125.023C94.3984 125.487 94.112 125.826 93.7891 126.039C93.4661 126.258 93.0807 126.367 92.6328 126.367C92.362 126.367 92.0599 126.31 91.7266 126.195ZM99.2266 120.523L100.617 120.305C100.695 120.862 100.911 121.289 101.266 121.586C101.625 121.883 102.125 122.031 102.766 122.031C103.411 122.031 103.891 121.901 104.203 121.641C104.516 121.375 104.672 121.065 104.672 120.711C104.672 120.393 104.534 120.143 104.258 119.961C104.065 119.836 103.586 119.677 102.82 119.484C101.789 119.224 101.073 119 100.672 118.812C100.276 118.62 99.974 118.357 99.7656 118.023C99.5625 117.685 99.4609 117.312 99.4609 116.906C99.4609 116.536 99.5443 116.195 99.7109 115.883C99.8828 115.565 100.115 115.302 100.406 115.094C100.625 114.932 100.922 114.797 101.297 114.688C101.677 114.573 102.083 114.516 102.516 114.516C103.167 114.516 103.737 114.609 104.227 114.797C104.721 114.984 105.086 115.24 105.32 115.562C105.555 115.88 105.716 116.307 105.805 116.844L104.43 117.031C104.367 116.604 104.185 116.271 103.883 116.031C103.586 115.792 103.164 115.672 102.617 115.672C101.971 115.672 101.51 115.779 101.234 115.992C100.958 116.206 100.82 116.456 100.82 116.742C100.82 116.924 100.878 117.089 100.992 117.234C101.107 117.385 101.286 117.51 101.531 117.609C101.672 117.661 102.086 117.781 102.773 117.969C103.768 118.234 104.461 118.453 104.852 118.625C105.247 118.792 105.557 119.036 105.781 119.359C106.005 119.682 106.117 120.083 106.117 120.562C106.117 121.031 105.979 121.474 105.703 121.891C105.432 122.302 105.039 122.622 104.523 122.852C104.008 123.076 103.424 123.188 102.773 123.188C101.695 123.188 100.872 122.964 100.305 122.516C99.7422 122.068 99.3828 121.404 99.2266 120.523Z" fill="white"/>
</svg>
