<svg width="141" height="141" viewBox="0 0 141 141" fill="none" xmlns="http://www.w3.org/2000/svg">
<path d="M125.892 56.7561C127.825 56.7561 129.391 55.1895 129.391 53.2571C129.391 51.3246 127.825 49.7581 125.892 49.7581C123.96 49.7581 122.393 51.3246 122.393 53.2571C122.393 55.1895 123.96 56.7561 125.892 56.7561Z" fill="#FBD725"/>
<path d="M125.892 56.2561C127.548 56.2561 128.891 54.9134 128.891 53.2571C128.891 51.6008 127.548 50.2581 125.892 50.2581C124.236 50.2581 122.893 51.6008 122.893 53.2571C122.893 54.9134 124.236 56.2561 125.892 56.2561Z" stroke="#FBD725"/>
<path d="M83.5511 127.012C114.763 119.807 134.223 88.6634 127.017 57.4519C119.812 26.2403 88.6683 6.7798 57.4568 13.9856C26.2453 21.1913 6.78477 52.3347 13.9905 83.5462C21.1963 114.758 52.3396 134.218 83.5511 127.012Z" stroke="#1CCB65" stroke-dasharray="79 483"/>
<path opacity="0.45" d="M70.5 121C97.8381 121 120 98.6142 120 71C120 43.3858 97.8381 21 70.5 21C43.1619 21 21 43.3858 21 71C21 98.6142 43.1619 121 70.5 121Z" fill="#092F22"/>
<path d="M92.375 70H88.123C87.7898 65.7665 85.9568 61.7908 82.9537 58.7883C79.9506 55.7858 75.9746 53.9534 71.741 53.621V49.369C71.741 49.0058 71.5967 48.6575 71.3399 48.4006C71.0831 48.1438 70.7347 47.9995 70.3715 47.9995C70.0083 47.9995 69.66 48.1438 69.4031 48.4006C69.1463 48.6575 69.002 49.0058 69.002 49.369V53.621C64.7686 53.9537 60.7929 55.7861 57.79 58.7886C54.7871 61.7911 52.9542 65.7666 52.621 70H48.369C48.0058 70 47.6575 70.1443 47.4006 70.4011C47.1438 70.658 46.9995 71.0063 46.9995 71.3695C46.9995 71.7327 47.1438 72.0811 47.4006 72.3379C47.6575 72.5947 48.0058 72.739 48.369 72.739H52.621C52.953 76.973 54.7851 80.9494 57.7877 83.9529C60.7903 86.9564 64.7662 88.7897 69 89.123V93.375C69 93.7382 69.1443 94.0866 69.4011 94.3434C69.658 94.6002 70.0063 94.7445 70.3695 94.7445C70.7327 94.7445 71.0811 94.6002 71.3379 94.3434C71.5947 94.0866 71.739 93.7382 71.739 93.375V89.123C75.9733 88.791 79.95 86.9586 82.9535 83.9556C85.9571 80.9526 87.7902 76.9762 88.123 72.742H92.375C92.7382 72.742 93.0866 72.5977 93.3434 72.3409C93.6002 72.0841 93.7445 71.7357 93.7445 71.3725C93.7445 71.0093 93.6002 70.661 93.3434 70.4041C93.0866 70.1473 92.7382 70.003 92.375 70.003V70ZM71.741 86.375V85.067C71.741 84.7038 71.5967 84.3555 71.3399 84.0986C71.0831 83.8418 70.7347 83.6975 70.3715 83.6975C70.0083 83.6975 69.66 83.8418 69.4031 84.0986C69.1463 84.3555 69.002 84.7038 69.002 85.067V86.375C65.4962 86.0497 62.2144 84.5089 59.7248 82.0192C57.2352 79.5296 55.6943 76.2478 55.369 72.742H56.677C57.0402 72.742 57.3886 72.5977 57.6454 72.3409C57.9022 72.0841 58.0465 71.7357 58.0465 71.3725C58.0465 71.0093 57.9022 70.661 57.6454 70.4041C57.3886 70.1473 57.0402 70.003 56.677 70.003H55.369C55.694 66.4973 57.2345 63.2156 59.7237 60.7258C62.213 58.236 65.4944 56.6948 69 56.369V57.678C69 58.0412 69.1443 58.3896 69.4011 58.6464C69.658 58.9032 70.0063 59.0475 70.3695 59.0475C70.7327 59.0475 71.0811 58.9032 71.3379 58.6464C71.5947 58.3896 71.739 58.0412 71.739 57.678V56.369C75.2451 56.6936 78.5273 58.2338 81.0175 60.7231C83.5077 63.2124 85.0491 66.4941 85.375 70H84.066C83.7028 70 83.3545 70.1443 83.0976 70.4011C82.8408 70.658 82.6965 71.0063 82.6965 71.3695C82.6965 71.7327 82.8408 72.0811 83.0976 72.3379C83.3545 72.5947 83.7028 72.739 84.066 72.739H85.374C85.0494 76.2454 83.5088 79.5278 81.0191 82.0181C78.5294 84.5083 75.2473 86.0496 71.741 86.375Z" fill="#1CCB65"/>
<path d="M51.1991 59.047C51.5622 59.047 51.9104 58.9027 52.1671 58.646C52.4238 58.3892 52.5681 58.041 52.5681 57.678V53.569H56.6761C57.0393 53.569 57.3876 53.4247 57.6445 53.1678C57.9013 52.911 58.0456 52.5627 58.0456 52.1995C58.0456 51.8362 57.9013 51.4879 57.6445 51.2311C57.3876 50.9742 57.0393 50.83 56.6761 50.83H51.1991C50.836 50.83 50.4878 50.9742 50.231 51.2309C49.9743 51.4877 49.8301 51.8359 49.8301 52.199V57.677C49.8299 57.8568 49.8653 58.0349 49.934 58.2012C50.0027 58.3674 50.1036 58.5184 50.2307 58.6456C50.3578 58.7729 50.5088 58.8738 50.675 58.9426C50.8411 59.0115 51.0192 59.047 51.1991 59.047Z" fill="#1CCB65"/>
<path d="M56.6771 89.175H52.5691V85.067C52.5691 84.7038 52.4248 84.3555 52.168 84.0986C51.9111 83.8418 51.5628 83.6975 51.1996 83.6975C50.8364 83.6975 50.488 83.8418 50.2312 84.0986C49.9744 84.3555 49.8301 84.7038 49.8301 85.067V90.545C49.8301 90.9081 49.9743 91.2563 50.231 91.5131C50.4878 91.7698 50.836 91.914 51.1991 91.914H56.6771C57.0403 91.914 57.3886 91.7697 57.6455 91.5129C57.9023 91.2561 58.0466 90.9077 58.0466 90.5445C58.0466 90.1813 57.9023 89.833 57.6455 89.5761C57.3886 89.3193 57.0403 89.175 56.6771 89.175Z" fill="#1CCB65"/>
<path d="M89.5438 83.697C89.1807 83.697 88.8325 83.8413 88.5757 84.098C88.319 84.3547 88.1748 84.7029 88.1748 85.066V89.174H84.0668C83.7036 89.174 83.3552 89.3183 83.0984 89.5751C82.8416 89.832 82.6973 90.1803 82.6973 90.5435C82.6973 90.9067 82.8416 91.2551 83.0984 91.5119C83.3552 91.7687 83.7036 91.913 84.0668 91.913H89.5448C89.9079 91.913 90.2561 91.7688 90.5128 91.5121C90.7696 91.2553 90.9138 90.9071 90.9138 90.544V85.067C90.9139 84.8871 90.8786 84.7089 90.8098 84.5426C90.741 84.3763 90.6401 84.2252 90.5128 84.098C90.3856 83.9707 90.2345 83.8698 90.0682 83.801C89.9019 83.7322 89.7237 83.6969 89.5438 83.697Z" fill="#1CCB65"/>
<path d="M84.0668 53.569H88.1748V57.677C88.1748 58.0402 88.3191 58.3885 88.5759 58.6453C88.8327 58.9022 89.1811 59.0465 89.5443 59.0465C89.9075 59.0465 90.2558 58.9022 90.5127 58.6453C90.7695 58.3885 90.9138 58.0402 90.9138 57.677V52.199C90.9138 52.0191 90.8783 51.841 90.8095 51.6748C90.7406 51.5087 90.6397 51.3577 90.5125 51.2306C90.3852 51.1034 90.2342 51.0026 90.068 50.9339C89.9018 50.8651 89.7236 50.8298 89.5438 50.83H84.0668C83.7036 50.83 83.3552 50.9742 83.0984 51.2311C82.8416 51.4879 82.6973 51.8362 82.6973 52.1995C82.6973 52.5627 82.8416 52.911 83.0984 53.1678C83.3552 53.4247 83.7036 53.569 84.0668 53.569Z" fill="#1CCB65"/>
<path d="M69.4999 70.039C74.3064 70.039 78.2029 68.9685 78.2029 67.648C78.2029 66.3274 74.3064 65.257 69.4999 65.257C64.6933 65.257 60.7969 66.3274 60.7969 67.648C60.7969 68.9685 64.6933 70.039 69.4999 70.039Z" fill="#1CCB65"/>
<path d="M63.3319 72.58C65.3339 73.1688 67.4133 73.452 69.4999 73.42C74.4389 73.374 76.7479 72.152 76.7479 72.152C77.6869 71.73 78.2229 71.263 78.2229 70.837V68.897C78.2225 68.8745 78.2205 68.8521 78.2169 68.83C77.7711 69.4072 77.1572 69.8317 76.4599 70.045V71.274C76.4632 71.314 76.4582 71.3542 76.4452 71.3921C76.4322 71.4301 76.4114 71.4649 76.3843 71.4944C76.3571 71.5239 76.3241 71.5475 76.2874 71.5636C76.2506 71.5797 76.211 71.588 76.1709 71.588C76.1307 71.588 76.0911 71.5797 76.0543 71.5636C76.0176 71.5475 75.9846 71.5239 75.9575 71.4944C75.9303 71.4649 75.9096 71.4301 75.8965 71.3921C75.8835 71.3542 75.8785 71.314 75.8819 71.274V70.249C75.7079 70.305 75.5489 70.349 75.4189 70.385V71.877C75.4215 71.9293 75.4135 71.9815 75.3954 72.0306C75.3772 72.0797 75.3492 72.1246 75.3132 72.1625C75.2771 72.2005 75.2337 72.2307 75.1856 72.2513C75.1375 72.272 75.0857 72.2826 75.0334 72.2826C74.981 72.2826 74.9292 72.272 74.8811 72.2513C74.833 72.2307 74.7896 72.2005 74.7536 72.1625C74.7175 72.1246 74.6895 72.0797 74.6714 72.0306C74.6532 71.9815 74.6452 71.9293 74.6479 71.877V70.561C72.9506 70.8794 71.2267 71.0335 69.4999 71.021C64.9259 71.021 61.1729 70.057 60.7829 68.829C60.7792 68.8511 60.7772 68.8735 60.7769 68.896V70.877C60.7769 71.446 61.7319 72.081 63.3319 72.58Z" fill="#1CCB65"/>
<path d="M79.962 74.1089C79.5163 74.6861 78.9023 75.1106 78.205 75.3239V76.5529C78.2083 76.5929 78.2033 76.6331 78.1903 76.6711C78.1773 76.709 78.1565 76.7438 78.1294 76.7733C78.1022 76.8029 78.0692 76.8264 78.0325 76.8425C77.9958 76.8586 77.9561 76.867 77.916 76.867C77.8759 76.867 77.8362 76.8586 77.7995 76.8425C77.7627 76.8264 77.7297 76.8029 77.7026 76.7733C77.6754 76.7438 77.6547 76.709 77.6417 76.6711C77.6286 76.6331 77.6236 76.5929 77.627 76.5529V75.5279C77.453 75.5839 77.295 75.6279 77.164 75.6639V77.1559C77.1666 77.2082 77.1586 77.2605 77.1405 77.3095C77.1223 77.3586 77.0943 77.4035 77.0583 77.4415C77.0222 77.4794 76.9788 77.5096 76.9307 77.5303C76.8826 77.5509 76.8308 77.5616 76.7785 77.5616C76.7261 77.5616 76.6743 77.5509 76.6262 77.5303C76.5781 77.5096 76.5347 77.4794 76.4987 77.4415C76.4626 77.4035 76.4346 77.3586 76.4165 77.3095C76.3983 77.2605 76.3903 77.2082 76.393 77.1559V75.8399C74.6957 76.1583 72.9718 76.3124 71.245 76.2999C66.671 76.2999 62.918 75.3369 62.528 74.1079C62.5243 74.1301 62.5223 74.1525 62.522 74.1749V76.1559C62.522 76.7219 63.477 77.3559 65.077 77.8559C67.079 78.4446 69.1584 78.7278 71.245 78.6959C76.184 78.6499 78.493 77.4279 78.493 77.4279C79.432 77.0059 79.968 76.5389 79.968 76.1129V74.1739C79.9676 74.1521 79.9656 74.1304 79.962 74.1089Z" fill="#1CCB65"/>
<path d="M69.8879 74.324C67.8005 74.3773 65.7181 74.0936 63.7209 73.484C63.3274 73.3636 62.9416 73.219 62.5659 73.051C62.7369 74.33 66.5659 75.351 71.2659 75.351C76.0719 75.351 79.9659 74.281 79.9659 72.96C79.9659 72.488 79.4659 72.049 78.6099 71.678V71.739C78.6099 72.186 78.0199 72.679 76.9909 73.117C76.9899 73.119 74.7259 74.186 69.8879 74.324Z" fill="#1CCB65"/>
</svg>
