<svg id="Group_73" data-name="Group 73" xmlns="http://www.w3.org/2000/svg" width="20" height="20" viewBox="0 0 20 20">
  <g id="Group_69" data-name="Group 69">
    <path id="Path_196" data-name="Path 196" d="M0,0H20V20H0Z" fill="none"/>
    <path id="Path_197" data-name="Path 197" d="M18.765,5.328a6.987,6.987,0,0,1-2,.548A3.5,3.5,0,0,0,18.3,3.948a6.965,6.965,0,0,1-2.213.846,3.485,3.485,0,0,0-5.938,3.178A9.9,9.9,0,0,1,2.962,4.331,3.49,3.49,0,0,0,4.04,8.984a3.473,3.473,0,0,1-1.578-.436v.043a3.487,3.487,0,0,0,2.8,3.417,3.508,3.508,0,0,1-1.574.06A3.488,3.488,0,0,0,6.938,14.49a7,7,0,0,1-5.159,1.443A9.858,9.858,0,0,0,7.121,17.5a9.849,9.849,0,0,0,9.917-9.917c0-.15,0-.3-.011-.45a7.08,7.08,0,0,0,1.739-1.8Z" transform="translate(-0.297 -0.615)" fill="#1cd465"/>
  </g>
</svg>
